<svg width="28" height="28" viewBox="0 0 28 28" fill="none" xmlns="http://www.w3.org/2000/svg">
<path fill-rule="evenodd" clip-rule="evenodd" d="M10.0404 7.70711C10.4309 7.31658 10.4309 6.68342 10.0404 6.29289C9.6499 5.90237 9.01673 5.90237 8.62621 6.29289L1.62621 13.2929C1.43867 13.4804 1.33331 13.7348 1.33331 14C1.33331 14.2652 1.43867 14.5196 1.62621 14.7071L8.62621 21.7071C9.01673 22.0976 9.6499 22.0976 10.0404 21.7071C10.4309 21.3166 10.4309 20.6834 10.0404 20.2929L3.74753 14L10.0404 7.70711ZM19.3738 6.29289C18.9832 5.90237 18.3501 5.90237 17.9595 6.29289C17.569 6.68342 17.569 7.31658 17.9595 7.70711L24.2524 14L17.9595 20.2929C17.569 20.6834 17.569 21.3166 17.9595 21.7071C18.3501 22.0976 18.9832 22.0976 19.3738 21.7071L26.3738 14.7071C26.7643 14.3166 26.7643 13.6834 26.3738 13.2929L19.3738 6.29289Z" fill="#000"/>
</svg>
