<?xml version="1.0" standalone="no"?>
<!DOCTYPE svg PUBLIC "-//W3C//DTD SVG 20010904//EN"
 "http://www.w3.org/TR/2001/REC-SVG-20010904/DTD/svg10.dtd">
<svg version="1.0" xmlns="http://www.w3.org/2000/svg"
 width="700.000000pt" height="700.000000pt" viewBox="0 0 700.000000 700.000000"
 preserveAspectRatio="xMidYMid meet">
<metadata>
Created by potrace 1.11, written by Peter Selinger 2001-2013
</metadata>
<g transform="translate(0.000000,700.000000) scale(0.100000,-0.100000)"
fill="#000000" stroke="none">
<path d="M924 5503 l1 -924 295 -171 c162 -93 320 -184 350 -201 30 -17 83
-48 118 -69 34 -21 65 -38 67 -38 3 0 34 -17 68 -38 34 -21 143 -86 242 -143
99 -57 189 -109 200 -116 11 -7 27 -15 35 -19 8 -4 56 -31 105 -60 50 -29 97
-54 104 -56 12 -2 14 138 15 911 1 596 -2 918 -9 926 -5 7 -75 49 -155 95 -80
46 -158 91 -175 100 -16 10 -97 57 -180 105 -82 48 -170 99 -195 113 -25 14
-99 56 -165 95 -66 38 -140 81 -165 95 -25 14 -57 32 -72 41 -52 31 -373 216
-399 231 -15 8 -41 22 -57 31 l-30 16 2 -924z"/>
<path d="M2700 4466 c0 -635 3 -926 10 -926 6 0 23 -8 38 -19 29 -20 468 -274
517 -299 17 -9 53 -31 82 -49 29 -18 55 -33 58 -33 3 0 24 -12 46 -26 23 -14
60 -36 82 -49 23 -12 173 -98 332 -190 160 -93 310 -179 335 -193 25 -14 57
-34 73 -44 l27 -19 0 928 0 928 -258 148 c-141 81 -349 201 -462 267 -113 65
-221 127 -240 138 -19 11 -164 94 -322 186 -159 92 -295 169 -303 172 -13 5
-15 -101 -15 -920z"/>
<path d="M6025 5367 c-375 -217 -577 -333 -605 -349 -19 -11 -226 -131 -460
-266 -234 -135 -438 -253 -454 -262 l-30 -16 0 -922 c-1 -887 0 -922 17 -916
10 3 63 32 117 64 54 32 122 71 152 88 91 50 481 277 525 305 24 15 45 27 48
27 5 0 146 82 565 326 l175 102 1 921 c1 506 -1 921 -5 921 -3 0 -24 -11 -46
-23z"/>
<path d="M2700 2418 l0 -923 216 -125 c119 -69 238 -137 263 -151 26 -15 66
-38 89 -53 23 -14 44 -26 47 -26 4 0 77 -42 155 -90 8 -5 65 -37 125 -72 148
-84 138 -79 240 -138 50 -29 108 -63 130 -75 22 -13 106 -62 188 -109 l147
-85 0 928 c0 876 -1 929 -17 934 -10 4 -38 18 -61 32 -97 57 -329 192 -342
198 -8 4 -33 18 -55 32 -22 14 -51 31 -65 37 -14 7 -36 19 -50 29 -22 14 -287
168 -405 234 -22 13 -80 46 -130 75 -49 29 -164 95 -255 148 -91 52 -174 101
-185 108 -11 8 -23 14 -27 14 -5 0 -8 -415 -8 -922z"/>
</g>
</svg>
