<svg width="20" height="15" viewBox="0 0 20 15" fill="none" xmlns="http://www.w3.org/2000/svg">
<path fill-rule="evenodd" clip-rule="evenodd" d="M10.3821 0.514136C10.1373 0.405444 9.86247 0.405444 9.61766 0.514136L1.28235 4.21481C0.85233 4.40573 0.649902 4.85204 0.649902 5.25092C0.649902 5.64979 0.85233 6.0961 1.28235 6.28702L2.98306 7.0421C2.59047 7.62812 2.22743 8.44045 2.10162 9.53703C1.67621 9.67121 1.36768 10.0689 1.36768 10.5387C1.36768 10.8854 1.53566 11.1928 1.79458 11.384C1.81677 11.4806 1.83002 11.639 1.80982 11.8481C1.78636 12.0909 1.72179 12.358 1.61689 12.6014C1.39674 13.1126 1.08488 13.3607 0.739421 13.3607V14.522C1.51093 14.522 2.05279 14.0882 2.40151 13.5767C2.42504 13.6061 2.44921 13.6352 2.47387 13.664C2.85165 14.1043 3.45185 14.5674 4.19599 14.5674V13.4061C3.94218 13.4061 3.63514 13.2341 3.35517 12.9078C3.22334 12.7542 3.11837 12.589 3.04869 12.443C3.01403 12.3704 2.99079 12.3081 2.97689 12.2594C2.96463 12.2165 2.96258 12.1942 2.96222 12.1905L2.93579 12.1904C2.9484 12.1125 2.9584 12.0355 2.9657 11.9598C2.98264 11.785 2.98661 11.6051 2.9725 11.4306C3.27005 11.2452 3.46801 10.9151 3.46801 10.5387C3.46801 10.1597 3.26721 9.82763 2.96619 9.64296C3.08328 8.61409 3.43739 7.89268 3.79348 7.40188L4.18678 7.57651L4.15999 8.46048L4.15971 8.47805V11.1002C4.15971 11.2361 4.20641 11.3611 4.28459 11.46C4.43152 11.7867 4.69079 12.0521 4.97955 12.2625C5.33167 12.519 5.7787 12.7316 6.27917 12.902C7.28188 13.2432 8.58107 13.4424 9.98417 13.4424C11.3873 13.4424 12.6865 13.2432 13.6892 12.902C14.1896 12.7316 14.6367 12.519 14.9888 12.2625C15.2775 12.0521 15.5368 11.7867 15.6837 11.46C15.7619 11.3611 15.8086 11.2361 15.8086 11.1002V7.57847L18.7175 6.28702C19.1475 6.0961 19.3499 5.64979 19.3499 5.25092C19.3499 4.85204 19.1475 4.40573 18.7175 4.21481L10.3821 0.514136ZM9.97864 4.01592L4.81724 6.58586L9.9999 8.88683L18.1886 5.25122L9.9999 1.615L1.81117 5.25061L3.78427 6.12724L9.59051 3.23626L9.97864 4.01592ZM14.6474 8.09404L10.3821 9.98769C10.1373 10.0964 9.86247 10.0964 9.61766 9.98769L5.33309 8.08546L5.32097 8.48684V10.9178C5.32373 10.926 5.32628 10.9344 5.32862 10.9428C5.34939 11.0166 5.4287 11.153 5.66331 11.3239C5.89196 11.4904 6.22353 11.6563 6.65333 11.8026C7.51124 12.0946 8.6798 12.2812 9.98417 12.2812C11.2885 12.2812 12.4571 12.0946 13.315 11.8026C13.7448 11.6563 14.0764 11.4904 14.305 11.3239C14.5396 11.153 14.6189 11.0166 14.6397 10.9428C14.6421 10.9344 14.6446 10.926 14.6474 10.9178V8.09404Z" fill="#623CE4"/>
</svg>
