<svg width="23" height="17" xmlns="http://www.w3.org/2000/svg"><path d="M11.95.098a1.08 1.08 0 00-.9 0l-9.806 4.45C.738 4.779.5 5.316.5 5.796c0 .48.238 1.016.744 1.246l2 .908c-.461.705-.888 1.682-1.036 3.001-.5.161-.864.64-.864 1.205 0 .417.198.786.503 1.016.026.117.041.307.018.559a3.15 3.15 0 01-.227.905c-.26.615-.626.914-1.033.914v1.396c.908 0 1.545-.521 1.956-1.136.027.035.056.07.085.105.444.53 1.15 1.086 2.026 1.086v-1.397c-.299 0-.66-.207-.99-.599a2.616 2.616 0 01-.36-.559 1.466 1.466 0 01-.084-.22c-.015-.052-.017-.08-.018-.084h-.03c.014-.094.026-.186.034-.277.02-.21.025-.427.008-.637.35-.223.583-.62.583-1.072 0-.456-.236-.855-.59-1.078.138-1.237.554-2.105.973-2.695l.463.21-.031 1.063v3.175c0 .163.054.314.146.433.173.393.478.712.818.965.414.309.94.564 1.529.769 1.18.41 2.708.65 4.359.65 1.65 0 3.179-.24 4.358-.65.59-.205 1.115-.46 1.53-.77.34-.252.644-.571.817-.964a.705.705 0 00.147-.433V8.594l3.422-1.553c.506-.23.744-.766.744-1.246s-.238-1.016-.744-1.246L11.95.098zm-.475 4.212L5.403 7.4l6.097 2.768 9.634-4.373L11.5 1.422 1.866 5.795l2.321 1.054 6.831-3.477.457.938zm5.493 4.904l-5.018 2.278a1.08 1.08 0 01-.9 0L6.01 9.204l-.015.483v2.924l.01.03c.024.088.117.252.393.458.27.2.66.4 1.165.576 1.01.351 2.384.575 3.919.575 1.534 0 2.909-.224 3.918-.575.506-.176.896-.376 1.165-.576.276-.206.37-.37.394-.458a.586.586 0 01.009-.03V9.214z" fill="#333" fill-rule="evenodd"/></svg>