<svg width="125" height="30" viewBox="0 0 125 30" fill="none" xmlns="http://www.w3.org/2000/svg"><path d="M75.027 14.777v8.103h2.907v-8.412c0-2.073-.69-3.432-2.621-3.432-1.24 0-2.955.453-4.242 1.12V6.127l-2.908.405V22.88h2.908v-8.055c1.049-.548 2.312-.977 3.026-.977.668 0 .93.31.93.93zM42.57 16.183v6.697h3.002V7.009H42.57v6.53h-5.886v-6.53h-3.002v15.87h3.002v-6.696h5.886z" fill="#000"/><path fill-rule="evenodd" clip-rule="evenodd" d="M54.175 22.88h2.383v-7.65c0-2.907-1.072-4.194-4.718-4.194-1.287 0-2.884.215-3.98.548l.358 2.216c1.024-.214 2.168-.357 3.216-.357 1.86 0 2.217.453 2.217 1.74v1.215h-2.789c-2.359 0-3.383.905-3.383 3.265 0 2.002.905 3.455 3.026 3.455a6.345 6.345 0 003.456-1.024l.214.786zm-2.669-4.385h2.145v1.716c-.548.31-1.335.596-2.193.596-.905 0-1.167-.358-1.167-1.168 0-.882.262-1.144 1.215-1.144z" fill="#000"/><path d="M62.182 23.118c-1.24 0-2.93-.286-4.003-.667l.405-2.216c.977.286 2.264.5 3.455.5 1.287 0 1.478-.286 1.478-1.168 0-.714-.143-1.072-2.026-1.525-2.836-.69-3.17-1.406-3.17-3.646 0-2.335 1.025-3.36 4.338-3.36 1.072 0 2.478.143 3.479.405l-.286 2.312c-.882-.167-2.288-.334-3.193-.334-1.263 0-1.478.286-1.478 1 0 .93.072 1.002 1.644 1.407 3.241.858 3.551 1.287 3.551 3.67 0 2.24-.69 3.622-4.194 3.622zM80.08 22.88h2.906V11.274H80.08V22.88zM80.08 9.63h2.906V6.27H80.08v3.36zM90.66 6.77c-3.956 0-5.648 1.692-5.648 4.6v7.149c0 2.907 1.692 4.599 5.648 4.599 1.477 0 3.002-.19 4.313-.524l-.334-2.598c-1.287.239-2.788.405-3.884.405-2.073 0-2.74-.715-2.74-2.406v-6.101c0-1.692.666-2.407 2.74-2.407 1.096 0 2.597.167 3.884.405l.334-2.597a17.95 17.95 0 00-4.313-.525z" fill="#000"/><path fill-rule="evenodd" clip-rule="evenodd" d="M100.931 23.118c-3.98 0-5.052-2.192-5.052-4.575V15.61c0-2.382 1.072-4.575 5.052-4.575 3.979 0 5.052 2.193 5.052 4.575v2.931c0 2.384-1.073 4.576-5.052 4.576zm0-9.603c-1.55 0-2.145.69-2.145 2.001v3.122c0 1.31.596 2.002 2.145 2.002s2.144-.691 2.144-2.002v-3.122c0-1.31-.595-2.001-2.144-2.001z" fill="#000"/><path d="M110.63 15.397c1.048-.667 1.954-1.191 3.074-1.692l-.286-2.669c-1.025.286-2.407 1.096-3.05 1.525l-.191-1.287h-2.454V22.88h2.907v-7.483z" fill="#000"/><path fill-rule="evenodd" clip-rule="evenodd" d="M124.727 19.02c0 2.573-1.144 4.098-3.836 4.098-1.025 0-2.193-.143-3.098-.333v4.79l-2.907.405V11.274h2.311l.286.978c1.025-.74 2.216-1.216 3.67-1.216 2.335 0 3.574 1.382 3.574 4.028v3.955zm-6.934 1.31c.762.167 1.739.31 2.573.31 1.049 0 1.454-.5 1.454-1.55v-4.098c0-.953-.357-1.477-1.43-1.477-.953 0-1.978.476-2.597 1.048v5.767z" fill="#000"/><path d="M0 7.196L11.455.587v4.965L4.304 9.68v15.873L0 23.069V7.196z" fill="#000"/><path d="M16.029.587V13.23h-4.574V8.511l-4.303 2.485v16.196l4.303 2.49V17.078h4.574v4.687l4.303-2.485V3.072L16.03.587z" fill="#000"/><path d="M27.484 23.079l-11.456 6.608v-4.964l7.152-4.13V4.722l4.304 2.485v15.873z" fill="#000"/></svg>