<svg id="LOGOS" xmlns="http://www.w3.org/2000/svg" viewBox="0 0 504.26 132"><defs><style>.cls-1{fill:#623ce4;fill-rule:evenodd}</style></defs><path d="M127.43 58h-11.25v-6.68h30.12V58h-11.25v33.61h-7.62z"/><path d="M154.26 86.16a30.77 30.77 0 009-1.39l1.15 5.57a31.64 31.64 0 01-10.83 1.87c-9.25 0-12.46-4.29-12.46-11.37V73c0-6.23 2.78-11.49 12.22-11.49s11.56 5.51 11.56 11.86v6.29h-16.4v1.54c.01 3.57 1.28 4.96 5.76 4.96zm-5.75-12.4h9.38v-1.45c0-2.78-.85-4.72-4.48-4.72s-4.9 1.94-4.9 4.72zM184.63 68.32a57.67 57.67 0 00-7.81 4.29v19h-7.38V62.14h6.23l.49 3.27a33 33 0 017.74-3.87zM202.65 68.32a58.17 58.17 0 00-7.8 4.29v19h-7.38V62.14h6.23l.48 3.27a33.13 33.13 0 017.75-3.87zM227.33 91.61h-6.05l-.54-2a16.15 16.15 0 01-8.77 2.6c-5.39 0-7.69-3.69-7.69-8.77 0-6 2.61-8.29 8.59-8.29H220v-3.08c0-3.27-.91-4.42-5.62-4.42a40.74 40.74 0 00-8.17.91l-.91-5.63a38.32 38.32 0 0110.1-1.39c9.26 0 12 3.27 12 10.65zM220 80.47h-5.44c-2.42 0-3.09.67-3.09 2.91 0 2.06.67 3 3 3a11.57 11.57 0 005.53-1.55zM250 55.43a21.87 21.87 0 00-4.24-.48c-2.9 0-3.32 1.27-3.32 3.5v3.69H250l-.47 5.86h-7.07v23.6h-7.38V68h-4.72v-5.86h4.72V58c0-6.11 2.84-9.13 9.37-9.13a23.51 23.51 0 016.35.84zM264.41 92.21c-10.1 0-12.82-5.56-12.82-11.61v-7.45c0-6 2.72-11.61 12.82-11.61s12.83 5.57 12.83 11.61v7.45c0 6.05-2.72 11.61-12.83 11.61zm0-24.38c-3.93 0-5.44 1.76-5.44 5.08v7.93c0 3.32 1.51 5.08 5.44 5.08s5.45-1.76 5.45-5.08v-7.93c0-3.32-1.51-5.08-5.45-5.08zM296.23 68.32a58.17 58.17 0 00-7.8 4.29v19h-7.38V62.14h6.23l.48 3.27a33.33 33.33 0 017.75-3.87zM316.5 91.61V71c0-1.58-.67-2.36-2.36-2.36s-5 1.09-7.68 2.48v20.49h-7.39V62.14h5.63l.73 2.49a29.4 29.4 0 0111.79-3.09c2.85 0 4.6 1.15 5.57 3.15a28.84 28.84 0 0111.86-3.15c4.9 0 6.65 3.45 6.65 8.71v21.36h-7.38V71c0-1.58-.67-2.36-2.36-2.36a19.55 19.55 0 00-7.68 2.48v20.49z"/><path class="cls-1" d="M50.95 43.44L70.63 54.8v22.73L50.95 66.17V43.44z"/><path fill="#3c2aa8" fill-rule="evenodd" d="M72.78 54.8v22.73l19.69-11.36V43.44L72.78 54.8z"/><path class="cls-1" d="M29.11 30.76v22.72l19.68 11.36V42.12L29.11 30.76zM50.95 91.38l19.68 11.36V80.02L50.95 68.66v22.72z"/><path d="M124 41.35V35.7h-5.17v5.65h-2.64V27.77h2.64v5.69H124v-5.69h2.64v13.58zm12.33 0h-2.1l-.19-.66a5.77 5.77 0 01-3 .86c-1.86 0-2.66-1.23-2.66-2.92 0-2 .9-2.75 3-2.75h2.45v-1c0-1.09-.31-1.47-1.95-1.47a14.94 14.94 0 00-2.83.3l-.31-1.87a13.9 13.9 0 013.5-.46c3.2 0 4.15 1.09 4.15 3.54zm-2.56-3.7h-1.89c-.83 0-1.06.22-1.06 1s.23 1 1 1a4.15 4.15 0 001.93-.5zm7.91 3.9a12.53 12.53 0 01-3.52-.56l.36-1.87a11.94 11.94 0 003 .42c1.13 0 1.3-.24 1.3-1 0-.6-.13-.9-1.79-1.28-2.49-.59-2.78-1.19-2.78-3.08s.9-2.84 3.81-2.84a14.07 14.07 0 013.06.34l-.25 1.95a18.84 18.84 0 00-2.81-.28c-1.11 0-1.3.24-1.3.85 0 .78.07.84 1.45 1.18 2.85.73 3.12 1.09 3.12 3.1s-.58 3.07-3.66 3.07zm11.71-.2v-6.84c0-.52-.23-.79-.82-.79a7.31 7.31 0 00-2.66.83v6.8h-2.56V27.58l2.56.38v4.34a9.19 9.19 0 013.73-.95c1.7 0 2.3 1.15 2.3 2.9v7.1zm4.7-11.19v-2.39h2.56v2.39zm0 11.19v-9.8h2.56v9.8zm4.6-9.72c0-2.45 1.49-3.88 5-3.88a16.47 16.47 0 013.79.44l-.29 2.19a21.49 21.49 0 00-3.42-.34c-1.82 0-2.41.6-2.41 2v5.16c0 1.42.59 2 2.41 2a21.49 21.49 0 003.42-.34l.29 2.19a16.47 16.47 0 01-3.79.44c-3.48 0-5-1.43-5-3.88zm14.41 9.92c-3.5 0-4.44-1.85-4.44-3.86v-2.48c0-2 .94-3.86 4.44-3.86s4.44 1.85 4.44 3.86v2.48c-.01 2.01-.95 3.86-4.45 3.86zm0-8.11c-1.36 0-1.89.59-1.89 1.69v2.64c0 1.11.53 1.69 1.89 1.69s1.89-.58 1.89-1.69v-2.64c.01-1.13-.54-1.69-1.9-1.69zm11.64.16A21.79 21.79 0 00186 35v6.32h-2.56v-9.8h2.16l.17 1.09a11.15 11.15 0 012.68-1.29zM199 38.09c0 2.17-1 3.46-3.37 3.46a14.85 14.85 0 01-2.73-.28v4l-2.55.38v-14.1h2l.25.83a5.48 5.48 0 013.23-1c2.05 0 3.14 1.17 3.14 3.4zm-6.1 1.11a12 12 0 002.27.26c.92 0 1.28-.42 1.28-1.31v-3.46c0-.81-.32-1.25-1.26-1.25a3.68 3.68 0 00-2.29.89zM379.65 86.89l.52 4.22a51.14 51.14 0 01-9.93 1c-9.23 0-13.53-3.69-13.53-11.6V63c0-7.93 4.3-11.62 13.53-11.62a51.13 51.13 0 019.93 1.06l-.52 4.22a61.29 61.29 0 00-9.24-.82c-6.54 0-8.77 1.89-8.77 7.46v17c0 5.57 2.23 7.45 8.77 7.45a61.29 61.29 0 009.24-.86zM388.34 50.08v41.48h-4.81V50.77l4.81-.69zM415 65.22c-2-2.09-5.05-3.15-9-3.15-10.2 0-11.73 6.79-11.73 10.84v8.42c0 4 1.53 10.83 11.73 10.83 4 0 7-1.06 9-3.14a10.88 10.88 0 002.7-7.69v-8.42a10.86 10.86 0 00-2.7-7.69zm-2.11 16.29c0 4.31-2.32 6.5-6.92 6.5s-6.97-2.19-6.97-6.5v-8.79c0-4.3 2.33-6.49 6.91-6.49s6.92 2.19 6.92 6.49zM445.65 62.67v28.9h-3.88l-.48-2.57-.12.06c-3.2 1.54-8.24 3.09-11.67 3.09-4.19 0-6.23-2.38-6.23-7.31V62.67h4.81v22.12c0 1.91.93 2.8 2.91 2.8 2.24 0 6.72-1.35 9.79-2.94h.06v-22zM469.45 50.77V63h-.13a46.64 46.64 0 00-8.28-.9c-6.29 0-9.35 3.08-9.35 9.4v11.86c0 5.92 2.75 8.8 8.39 8.8a15.4 15.4 0 009.55-3.16l.15-.1.43 2.72h4.05V50.08zm0 33.65a13.47 13.47 0 01-8.32 3.5c-3.8 0-4.58-1.83-4.58-4.59V71.47c0-3.63 1.44-5.18 4.83-5.18a47.85 47.85 0 018 .89h.09z"/></svg>