<svg xmlns="http://www.w3.org/2000/svg" width="418" height="436" fill="none"><path fill="#8C909C" d="M139.333 211.843a.74.74 0 1 1 0 1.478.74.74 0 0 1 0-1.478Zm0 60.334a.738.738 0 0 1 .524 1.263.752.752 0 0 1-.379.203.747.747 0 0 1-.76-.315.742.742 0 0 1 .615-1.151Zm0-30.167c.147 0 .29.043.411.125a.733.733 0 0 1 .315.759.735.735 0 0 1-.581.582.743.743 0 0 1-.885-.726.744.744 0 0 1 .74-.74Zm0 20.111a.738.738 0 0 1 .145 1.466.743.743 0 0 1-.885-.726.744.744 0 0 1 .74-.74Zm0-30.166a.738.738 0 0 1 .524 1.263.743.743 0 0 1-1.139-.112.745.745 0 0 1 .092-.935.743.743 0 0 1 .523-.216Zm0-10.056c.147 0 .29.043.411.125a.733.733 0 0 1 .315.759.735.735 0 0 1-.581.582.743.743 0 0 1-.885-.726.744.744 0 0 1 .74-.74Zm0 30.166a.74.74 0 0 1 .726.885.743.743 0 0 1-.581.581.745.745 0 0 1-.885-.725.744.744 0 0 1 .74-.741Zm0-140.777a.738.738 0 0 1 .524 1.263.745.745 0 0 1-.807.161.743.743 0 0 1-.457-.684.742.742 0 0 1 .74-.74Zm-8.708 165.917a.738.738 0 0 1 .144 1.465.735.735 0 0 1-.759-.314.737.737 0 0 1 .092-.935.732.732 0 0 1 .523-.216Zm8.708-155.862a.74.74 0 1 1 0 1.478.74.74 0 0 1 0-1.478Zm-8.708 135.75a.74.74 0 1 1 0 1.478.74.74 0 0 1 0-1.478Zm8.708-125.694c.147 0 .29.043.411.125a.733.733 0 0 1 .315.759.735.735 0 0 1-.581.582.743.743 0 0 1-.885-.726.744.744 0 0 1 .74-.74Zm-8.708 135.75a.738.738 0 0 1 .144 1.466.743.743 0 0 1-.759-.315.736.736 0 0 1 .092-.934.735.735 0 0 1 .523-.217Zm8.708-125.694a.738.738 0 0 1 .524 1.263.743.743 0 0 1-1.139-.112.745.745 0 0 1 .092-.935.743.743 0 0 1 .523-.216Zm0 40.222a.738.738 0 0 1 .524 1.263.752.752 0 0 1-.379.203.747.747 0 0 1-.76-.315.742.742 0 0 1 .615-1.151Zm0 20.111a.738.738 0 0 1 .524 1.263.745.745 0 0 1-.807.161.743.743 0 0 1-.457-.684.742.742 0 0 1 .74-.74Zm0-30.167a.738.738 0 0 1 .145 1.466.743.743 0 0 1-.885-.726.744.744 0 0 1 .74-.74Zm0 20.111a.738.738 0 0 1 .145 1.466.738.738 0 0 1-.885-.726.744.744 0 0 1 .74-.74Zm0-30.167a.74.74 0 0 1 .726.885.743.743 0 0 1-.581.581.745.745 0 0 1-.885-.725.744.744 0 0 1 .74-.741Zm0-10.055c.147 0 .29.043.411.125a.733.733 0 0 1 .315.759.735.735 0 0 1-.581.582.743.743 0 0 1-.885-.726.744.744 0 0 1 .74-.74Zm17.417-30.167a.744.744 0 0 1 .684.457.743.743 0 0 1-.54 1.009.735.735 0 0 1-.759-.315.74.74 0 0 1 .615-1.151Zm-8.708 155.862c.146 0 .289.043.411.124a.745.745 0 0 1 .314.76.735.735 0 0 1-.581.581.737.737 0 0 1-.76-.314.745.745 0 0 1 .092-.935.742.742 0 0 1 .524-.216Zm0-20.112a.744.744 0 0 1 .683.457.737.737 0 0 1-.16.807.743.743 0 0 1-1.139-.113.74.74 0 0 1 .616-1.151Zm0-30.166a.736.736 0 0 1 .683.457.735.735 0 0 1-.16.806.745.745 0 0 1-.379.203.746.746 0 0 1-.76-.315.744.744 0 0 1 .092-.935.749.749 0 0 1 .524-.216Zm0 10.055a.744.744 0 0 1 .683.457.737.737 0 0 1-.16.807.737.737 0 0 1-1.139-.113.74.74 0 0 1 .616-1.151Zm0 10.056a.736.736 0 0 1 .683.457.735.735 0 0 1-.16.806.738.738 0 0 1-1.139-.112.744.744 0 0 1 .092-.935.749.749 0 0 1 .524-.216Zm0 20.111a.736.736 0 0 1 .683.457.735.735 0 0 1-.16.806.745.745 0 0 1-.807.161.738.738 0 0 1-.4-.967.737.737 0 0 1 .684-.457Zm8.708-155.861a.743.743 0 0 1 .684.456.747.747 0 0 1-.161.807.737.737 0 0 1-1.138-.112.736.736 0 0 1 .092-.934.738.738 0 0 1 .523-.217Zm0 40.222a.736.736 0 0 1 .684.457.743.743 0 0 1-.54 1.009.743.743 0 0 1-.759-.315.736.736 0 0 1 .092-.934.738.738 0 0 1 .523-.217Zm0 10.055a.744.744 0 0 1 .684.457.746.746 0 0 1-.161.807.736.736 0 0 1-.806.16.742.742 0 0 1-.457-.683.74.74 0 0 1 .74-.741Zm0-30.166a.736.736 0 0 1 .684.457.743.743 0 0 1-.54 1.009.743.743 0 0 1-.759-.315.736.736 0 0 1 .092-.934.738.738 0 0 1 .523-.217Zm0 10.056a.743.743 0 0 1 .684.456.746.746 0 0 1-.161.807.735.735 0 0 1-.806.16.737.737 0 0 1-.457-.684.74.74 0 0 1 .74-.739Zm-8.708 45.25c.146 0 .289.043.411.124a.745.745 0 0 1 .314.76.735.735 0 0 1-.581.581.737.737 0 0 1-.76-.314.745.745 0 0 1 .092-.935.742.742 0 0 1 .524-.216Zm0-50.278a.736.736 0 0 1 .683.457.735.735 0 0 1-.16.806.745.745 0 0 1-.379.203.746.746 0 0 1-.76-.315.744.744 0 0 1 .092-.935.749.749 0 0 1 .524-.216Zm0 80.444a.744.744 0 0 1 .683.457.737.737 0 0 1-.16.806.745.745 0 0 1-.807.161.738.738 0 0 1-.4-.967.737.737 0 0 1 .684-.457Zm0-90.5a.744.744 0 0 1 .683.457.737.737 0 0 1-.16.806.745.745 0 0 1-.807.161.738.738 0 0 1-.4-.967.737.737 0 0 1 .684-.457Zm0 30.167a.736.736 0 0 1 .683.457.735.735 0 0 1-.16.806.745.745 0 0 1-.807.161.745.745 0 0 1-.457-.684.741.741 0 0 1 .741-.74Zm0-40.223a.744.744 0 0 1 .683.457.738.738 0 0 1-.539 1.009.738.738 0 0 1-.828-1.009.742.742 0 0 1 .684-.457Zm0 30.167a.744.744 0 0 1 .683.457.737.737 0 0 1-.16.807.737.737 0 0 1-1.139-.113.74.74 0 0 1 .616-1.151Zm0 50.278a.744.744 0 0 1 .683.457.737.737 0 0 1-.16.806.745.745 0 0 1-.807.161.738.738 0 0 1-.4-.967.745.745 0 0 1 .684-.457Zm0 10.055a.744.744 0 0 1 .683.457.738.738 0 0 1-.539 1.009.738.738 0 0 1-.828-1.009.742.742 0 0 1 .684-.457Zm0-40.222a.744.744 0 0 1 .683.457.737.737 0 0 1-.16.807.743.743 0 0 1-1.139-.113.74.74 0 0 1 .616-1.151Zm0 10.056a.736.736 0 0 1 .683.457.735.735 0 0 1-.16.806.745.745 0 0 1-.807.161.738.738 0 0 1-.4-.967.737.737 0 0 1 .684-.457Zm-8.709 105.583a.738.738 0 0 1 .145 1.466.738.738 0 0 1-.885-.726.744.744 0 0 1 .74-.74Zm-17.416-50.277c.146 0 .289.043.411.124a.745.745 0 0 1 .314.76.735.735 0 0 1-.581.581.737.737 0 0 1-.76-.314.745.745 0 0 1 .092-.935.742.742 0 0 1 .524-.216Zm-8.709 25.138a.74.74 0 1 1 0 1.478.74.74 0 0 1 0-1.478Zm0-40.222a.738.738 0 0 1 .145 1.466.743.743 0 0 1-.885-.726.744.744 0 0 1 .74-.74Zm0 30.167a.738.738 0 0 1 .524 1.263.74.74 0 1 1-.524-1.263Zm0-10.056a.738.738 0 0 1 .145 1.466.738.738 0 0 1-.885-.726.744.744 0 0 1 .74-.74Zm0 40.223a.738.738 0 0 1 .524 1.263.743.743 0 0 1-1.139-.112.745.745 0 0 1 .092-.935.743.743 0 0 1 .523-.216Zm0-50.278a.738.738 0 0 1 .524 1.263.748.748 0 0 1-.379.203.747.747 0 0 1-.76-.315.742.742 0 0 1 .615-1.151Zm0 40.222c.147 0 .29.043.411.125a.733.733 0 0 1 .315.759.735.735 0 0 1-.581.582.743.743 0 0 1-.885-.726.744.744 0 0 1 .74-.74Zm8.709-155.861a.736.736 0 0 1 .683.457.735.735 0 0 1-.16.806.745.745 0 0 1-.807.161.745.745 0 0 1-.457-.684.741.741 0 0 1 .741-.74Zm0 40.222a.744.744 0 0 1 .683.457.737.737 0 0 1-.16.806.745.745 0 0 1-.807.161.738.738 0 0 1-.4-.967.737.737 0 0 1 .684-.457Zm0 10.055a.744.744 0 0 1 .683.457.738.738 0 0 1-.539 1.009.738.738 0 0 1-.828-1.009.742.742 0 0 1 .684-.457Zm0-40.222a.744.744 0 0 1 .683.457.737.737 0 0 1-.16.807.743.743 0 0 1-1.139-.113.74.74 0 0 1 .616-1.151Zm0 20.112c.146 0 .289.043.411.124a.745.745 0 0 1 .314.76.735.735 0 0 1-.581.581.737.737 0 0 1-.76-.314.745.745 0 0 1 .092-.935.742.742 0 0 1 .524-.216Zm-8.709-5.028a.738.738 0 0 1 .524 1.263.748.748 0 0 1-.379.203.747.747 0 0 1-.76-.315.742.742 0 0 1 .615-1.151Zm0 70.388a.74.74 0 0 1 .726.885.743.743 0 0 1-.581.581.745.745 0 0 1-.885-.725.744.744 0 0 1 .74-.741Zm0-80.444a.738.738 0 0 1 .145 1.466.743.743 0 0 1-.885-.726.744.744 0 0 1 .74-.74Zm8.709 45.25a.744.744 0 0 1 .683.457.737.737 0 0 1-.16.806.745.745 0 0 1-.807.161.738.738 0 0 1-.4-.967.737.737 0 0 1 .684-.457Zm8.708 75.417a.738.738 0 0 1 .144 1.466.743.743 0 0 1-.759-.315.736.736 0 0 1 .092-.934.735.735 0 0 1 .523-.217Zm26.125-75.417a.736.736 0 0 1 .684.457.743.743 0 0 1-.54 1.009.743.743 0 0 1-.759-.315.734.734 0 0 1 .092-.934.738.738 0 0 1 .523-.217Zm-43.542-25.139a.738.738 0 0 1 .145 1.466.738.738 0 0 1-.885-.726.744.744 0 0 1 .74-.74Zm0 50.278c.147 0 .29.043.411.125a.733.733 0 0 1 .315.759.735.735 0 0 1-.581.582.743.743 0 0 1-.885-.726.744.744 0 0 1 .74-.74Zm0-10.055a.738.738 0 0 1 .524 1.263.743.743 0 0 1-1.139-.112.745.745 0 0 1 .092-.935.743.743 0 0 1 .523-.216Zm0-20.112a.74.74 0 1 1 0 1.478.74.74 0 0 1 0-1.478Zm0 10.056c.147 0 .29.043.411.125a.733.733 0 0 1 .315.759.735.735 0 0 1-.581.582.743.743 0 0 1-.885-.726.744.744 0 0 1 .74-.74Zm0-20.111a.738.738 0 0 1 .524 1.263.74.74 0 1 1-.524-1.263Zm0-40.223a.74.74 0 0 1 .726.885.743.743 0 0 1-.581.581.745.745 0 0 1-.885-.725.744.744 0 0 1 .74-.741Zm17.417 50.278a.74.74 0 1 1 0 1.478.74.74 0 0 1 0-1.478Zm0 10.056a.738.738 0 0 1 .144 1.466.743.743 0 0 1-.759-.315.736.736 0 0 1 .092-.934.735.735 0 0 1 .523-.217Zm0-20.111a.738.738 0 0 1 .144 1.466.743.743 0 0 1-.759-.315.736.736 0 0 1 .092-.934.735.735 0 0 1 .523-.217Zm0-10.056a.74.74 0 1 1 0 1.478.74.74 0 0 1 0-1.478Zm0-10.055a.738.738 0 1 1-.283 1.423.736.736 0 0 1-.457-.683.74.74 0 0 1 .74-.74Zm0 50.278a.738.738 0 0 1 .144 1.465.735.735 0 0 1-.759-.314.737.737 0 0 1 .092-.935.732.732 0 0 1 .523-.216Zm0 50.277a.74.74 0 1 1 0 1.478.74.74 0 0 1 0-1.478Zm0-10.055a.738.738 0 1 1-.283 1.423.736.736 0 0 1-.457-.683.74.74 0 0 1 .74-.74Zm0-20.112a.74.74 0 1 1 0 1.478.74.74 0 0 1 0-1.478Zm0-10.055a.74.74 0 1 1 0 1.478.74.74 0 0 1 0-1.478Zm0 20.111a.74.74 0 1 1 0 1.478.74.74 0 0 1 0-1.478Zm-8.708-25.139a.744.744 0 0 1 .683.457.737.737 0 0 1-.16.807.737.737 0 0 1-1.263-.524.725.725 0 0 1 .216-.523.749.749 0 0 1 .524-.217Zm0 50.278a.744.744 0 0 1 .683.457.737.737 0 0 1-.16.806.745.745 0 0 1-.807.161.743.743 0 0 1-.4-.967.737.737 0 0 1 .684-.457Zm0-30.167a.744.744 0 0 1 .683.457.737.737 0 0 1-.16.807.743.743 0 0 1-1.139-.113.738.738 0 0 1 .092-.934.749.749 0 0 1 .524-.217Zm0 10.056a.736.736 0 0 1 .683.457.735.735 0 0 1-.16.806.745.745 0 0 1-.807.161.743.743 0 0 1-.4-.967.737.737 0 0 1 .684-.457Zm8.708-95.528a.74.74 0 1 1 0 1.478.74.74 0 0 1 0-1.478Zm-8.708 75.417a.736.736 0 0 1 .683.457.735.735 0 0 1-.16.806.745.745 0 0 1-.807.161.745.745 0 0 1-.457-.684.741.741 0 0 1 .741-.74Zm0-20.111a.736.736 0 0 1 .683.457.735.735 0 0 1-.16.806.745.745 0 0 1-.379.203.746.746 0 0 1-.76-.315.744.744 0 0 1 .092-.935.749.749 0 0 1 .524-.216Zm0 70.388a.744.744 0 0 1 .683.457.738.738 0 0 1-.539 1.009.738.738 0 0 1-.828-1.009.742.742 0 0 1 .684-.457Zm8.708-135.75a.74.74 0 1 1 0 1.478.74.74 0 0 1 0-1.478Zm-8.708 165.917a.744.744 0 0 1 .683.457.737.737 0 0 1-.16.807.737.737 0 0 1-1.139-.113.74.74 0 0 1 .616-1.151Zm0-10.055a.736.736 0 0 1 .683.457.735.735 0 0 1-.16.806.745.745 0 0 1-.379.203.746.746 0 0 1-.76-.315.744.744 0 0 1 .092-.935.749.749 0 0 1 .524-.216Zm0-10.056a.744.744 0 0 1 .683.457.737.737 0 0 1-.16.806.745.745 0 0 1-.807.161.738.738 0 0 1-.4-.967.737.737 0 0 1 .684-.457Zm0-130.722a.736.736 0 0 1 .683.457.735.735 0 0 1-.16.806.745.745 0 0 1-.807.161.738.738 0 0 1-.4-.967.737.737 0 0 1 .684-.457Zm60.958 15.083a.744.744 0 0 1 .684.457.743.743 0 0 1-.54 1.009.735.735 0 0 1-.759-.315.74.74 0 0 1 .615-1.151Zm8.708 65.361a.74.74 0 1 1 0 1.478.74.74 0 0 1 0-1.478Zm0-70.388a.738.738 0 0 1 .144 1.465.735.735 0 0 1-.759-.314.737.737 0 0 1 .092-.935.739.739 0 0 1 .523-.216Zm0-30.167a.738.738 0 0 1 .144 1.466.743.743 0 0 1-.759-.315.736.736 0 0 1 .092-.934.74.74 0 0 1 .523-.217Zm0 40.222a.74.74 0 1 1 0 1.478.74.74 0 0 1 0-1.478Zm-8.708 125.695a.743.743 0 0 1 .684.456.746.746 0 0 1-.161.807.735.735 0 0 1-.806.16.737.737 0 0 1-.457-.684.74.74 0 0 1 .74-.739Zm8.708-115.64a.74.74 0 1 1 0 1.478.74.74 0 0 1 0-1.478Zm0 30.167a.74.74 0 1 1 0 1.478.74.74 0 0 1 0-1.478Zm-8.708 75.417a.736.736 0 0 1 .684.457.743.743 0 0 1-.54 1.009.743.743 0 0 1-.759-.315.736.736 0 0 1 .092-.934.738.738 0 0 1 .523-.217Zm-26.125-85.472a.743.743 0 0 1 .684.456.746.746 0 0 1-.161.807.743.743 0 0 1-1.263-.523.738.738 0 0 1 .74-.74Zm34.833-10.056a.74.74 0 1 1 0 1.478.74.74 0 0 1 0-1.478Zm0 10.056a.738.738 0 1 1-.283 1.423.736.736 0 0 1-.457-.683.74.74 0 0 1 .74-.74Zm0-50.278a.738.738 0 0 1 .144 1.466.743.743 0 0 1-.759-.315.736.736 0 0 1 .092-.934.74.74 0 0 1 .523-.217Zm-8.708 65.361a.736.736 0 0 1 .684.457.743.743 0 0 1-.54 1.009.743.743 0 0 1-.759-.315.736.736 0 0 1 .092-.934.738.738 0 0 1 .523-.217Zm0-10.055a.743.743 0 0 1 .684.456.746.746 0 0 1-.161.807.735.735 0 0 1-.806.16.737.737 0 0 1-.457-.684.74.74 0 0 1 .74-.739Zm0-10.056a.736.736 0 0 1 .684.457.743.743 0 0 1-.54 1.009.743.743 0 0 1-.759-.315.736.736 0 0 1 .092-.934.738.738 0 0 1 .523-.217Zm0-10.056a.744.744 0 0 1 .684.457.743.743 0 0 1-.54 1.009.735.735 0 0 1-.759-.315.74.74 0 0 1 .615-1.151Zm0-10.055a.743.743 0 0 1 .684.456.747.747 0 0 1-.161.807.737.737 0 0 1-1.138-.112.736.736 0 0 1 .092-.934.738.738 0 0 1 .523-.217Zm0 100.555a.744.744 0 0 1 .684.457.743.743 0 0 1-.54 1.009.735.735 0 0 1-.759-.315.74.74 0 0 1 .615-1.151Zm0-20.111a.744.744 0 0 1 .684.457.743.743 0 0 1-.54 1.009.735.735 0 0 1-.759-.315.74.74 0 0 1 .615-1.151Zm0 10.056a.743.743 0 0 1 .684.456.747.747 0 0 1-.161.807.737.737 0 0 1-1.138-.112.736.736 0 0 1 .092-.934.738.738 0 0 1 .523-.217Zm0-20.111a.743.743 0 0 1 .684.456.746.746 0 0 1-.161.807.743.743 0 0 1-1.263-.523.738.738 0 0 1 .74-.74Zm0-10.056a.736.736 0 0 1 .684.457.743.743 0 0 1-.54 1.009.743.743 0 0 1-.759-.315.734.734 0 0 1 .092-.934.738.738 0 0 1 .523-.217Zm0-10.056a.744.744 0 0 1 .684.457.746.746 0 0 1-.161.807.736.736 0 0 1-.806.16.742.742 0 0 1-.457-.683.74.74 0 0 1 .74-.741Zm8.708-85.472a.74.74 0 1 1 0 1.478.74.74 0 0 1 0-1.478Zm8.709 85.472a.744.744 0 0 1 .683.457.738.738 0 0 1-.539 1.009.738.738 0 0 1-.828-1.009.742.742 0 0 1 .684-.457Zm0 10.056a.744.744 0 0 1 .683.457.737.737 0 0 1-.16.806.745.745 0 0 1-.807.161.738.738 0 0 1-.4-.967.737.737 0 0 1 .684-.457Zm0-30.166c.146 0 .289.043.411.124a.745.745 0 0 1 .314.76.735.735 0 0 1-.581.581.737.737 0 0 1-.76-.314.745.745 0 0 1 .092-.935.742.742 0 0 1 .524-.216Zm0 40.222a.736.736 0 0 1 .683.457.735.735 0 0 1-.16.806.745.745 0 0 1-.379.203.746.746 0 0 1-.76-.315.744.744 0 0 1 .092-.935.749.749 0 0 1 .524-.216Zm0-30.167a.744.744 0 0 1 .683.457.737.737 0 0 1-.16.806.745.745 0 0 1-.807.161.738.738 0 0 1-.4-.967.737.737 0 0 1 .684-.457Zm0 70.389a.736.736 0 0 1 .683.457.735.735 0 0 1-.16.806.745.745 0 0 1-.807.161.738.738 0 0 1-.4-.967.737.737 0 0 1 .684-.457Zm0-100.556a.744.744 0 0 1 .683.457.737.737 0 0 1-.16.807.743.743 0 0 1-1.139-.113.74.74 0 0 1 .616-1.151Zm0 110.612c.146 0 .289.043.411.124a.745.745 0 0 1 .314.76.735.735 0 0 1-.581.581.737.737 0 0 1-.76-.314.745.745 0 0 1 .092-.935.742.742 0 0 1 .524-.216Zm0-30.167a.736.736 0 0 1 .683.457.735.735 0 0 1-.16.806.738.738 0 0 1-1.139-.112.744.744 0 0 1 .092-.935.749.749 0 0 1 .524-.216Zm0-10.056a.744.744 0 0 1 .683.457.737.737 0 0 1-.16.807.737.737 0 0 1-1.139-.113.74.74 0 0 1 .616-1.151Zm0 20.111a.744.744 0 0 1 .683.457.737.737 0 0 1-.16.807.743.743 0 0 1-1.139-.113.74.74 0 0 1 .616-1.151Zm-8.709-15.083a.738.738 0 0 1 .144 1.466.743.743 0 0 1-.759-.315.736.736 0 0 1 .092-.934.74.74 0 0 1 .523-.217Zm0 30.167a.738.738 0 1 1-.283 1.423.736.736 0 0 1-.457-.683.74.74 0 0 1 .74-.74Zm0-10.056a.74.74 0 1 1 0 1.478.74.74 0 0 1 0-1.478Zm0-10.056a.74.74 0 1 1 0 1.478.74.74 0 0 1 0-1.478Zm0-20.11a.738.738 0 0 1 .144 1.465.735.735 0 0 1-.759-.314.737.737 0 0 1 .092-.935.739.739 0 0 1 .523-.216Zm8.709-75.417a.736.736 0 0 1 .683.457.735.735 0 0 1-.16.806.745.745 0 0 1-.807.161.745.745 0 0 1-.457-.684.741.741 0 0 1 .741-.74Zm-8.709 65.361a.738.738 0 0 1 .144 1.466.743.743 0 0 1-.759-.315.736.736 0 0 1 .092-.934.74.74 0 0 1 .523-.217Zm8.709-85.472a.736.736 0 0 1 .683.457.735.735 0 0 1-.16.806.745.745 0 0 1-.379.203.746.746 0 0 1-.76-.315.744.744 0 0 1 .092-.935.749.749 0 0 1 .524-.216Zm0 10.055a.744.744 0 0 1 .683.457.737.737 0 0 1-.16.807.737.737 0 0 1-1.139-.113.74.74 0 0 1 .616-1.151Zm-8.709 135.75a.74.74 0 1 1 0 1.478.74.74 0 0 1 0-1.478Zm8.709-165.917a.744.744 0 0 1 .683.457.738.738 0 0 1-.539 1.009.738.738 0 0 1-.828-1.009.742.742 0 0 1 .684-.457Zm0 10.056a.744.744 0 0 1 .683.457.737.737 0 0 1-.16.806.745.745 0 0 1-.807.161.738.738 0 0 1-.4-.967.737.737 0 0 1 .684-.457Zm-8.709 75.417a.738.738 0 0 1 .144 1.466.743.743 0 0 1-.759-.315.736.736 0 0 1 .092-.934.74.74 0 0 1 .523-.217Zm-26.125-45.25a.738.738 0 0 1 .524 1.263.745.745 0 0 1-.807.161.743.743 0 0 1-.457-.684.744.744 0 0 1 .74-.74Zm0 90.5a.738.738 0 0 1 .524 1.263.745.745 0 0 1-.807.161.743.743 0 0 1-.457-.684.742.742 0 0 1 .74-.74Zm0-70.389c.147 0 .29.043.411.125a.733.733 0 0 1 .315.759.735.735 0 0 1-.581.582.743.743 0 0 1-.885-.726.744.744 0 0 1 .74-.74Zm0-30.167a.738.738 0 0 1 .145 1.466.738.738 0 0 1-.885-.726.744.744 0 0 1 .74-.74Zm0-10.055a.738.738 0 0 1 .524 1.263.752.752 0 0 1-.379.203.747.747 0 0 1-.76-.315.742.742 0 0 1 .615-1.151Zm0 50.278a.738.738 0 0 1 .524 1.263.743.743 0 0 1-1.139-.112.745.745 0 0 1 .092-.935.743.743 0 0 1 .523-.216Zm0 10.055c.147 0 .29.043.411.125a.733.733 0 0 1 .315.759.735.735 0 0 1-.581.582.743.743 0 0 1-.885-.726.744.744 0 0 1 .74-.74Zm0 30.167a.738.738 0 0 1 .524 1.263.752.752 0 0 1-.379.203.747.747 0 0 1-.76-.315.742.742 0 0 1 .615-1.151Zm0 10.055a.738.738 0 0 1 .145 1.466.738.738 0 0 1-.885-.726.744.744 0 0 1 .74-.74Zm0-30.167a.74.74 0 0 1 .726.885.743.743 0 0 1-.581.581.745.745 0 0 1-.885-.725.744.744 0 0 1 .74-.741Zm0-80.444a.738.738 0 0 1 .145 1.466.743.743 0 0 1-.885-.726.744.744 0 0 1 .74-.74Zm0 90.5a.738.738 0 0 1 .145 1.466.743.743 0 0 1-.885-.726.744.744 0 0 1 .74-.74Zm0-50.278a.74.74 0 1 1 0 1.478.74.74 0 0 1 0-1.478Zm0-50.278a.74.74 0 0 1 .726.885.743.743 0 0 1-.581.581.745.745 0 0 1-.885-.725.744.744 0 0 1 .74-.741Zm-8.708 105.584a.736.736 0 0 1 .684.457.743.743 0 0 1-.54 1.009.743.743 0 0 1-.759-.315.736.736 0 0 1 .092-.934.738.738 0 0 1 .523-.217Zm0 10.056a.743.743 0 0 1 .684.456.746.746 0 0 1-.161.807.735.735 0 0 1-.806.16.737.737 0 0 1-.457-.684.74.74 0 0 1 .74-.739Zm0-40.223a.744.744 0 0 1 .684.457.743.743 0 0 1-.54 1.009.735.735 0 0 1-.759-.315.74.74 0 0 1 .615-1.151Zm0 10.056a.743.743 0 0 1 .684.456.747.747 0 0 1-.161.807.737.737 0 0 1-1.138-.112.736.736 0 0 1 .092-.934.738.738 0 0 1 .523-.217Zm0 10.055a.744.744 0 0 1 .684.457.743.743 0 0 1-.54 1.009.735.735 0 0 1-.759-.315.74.74 0 0 1 .615-1.151Zm0 30.167a.736.736 0 0 1 .684.457.743.743 0 0 1-.54 1.009.743.743 0 0 1-.759-.315.736.736 0 0 1 .092-.934.738.738 0 0 1 .523-.217Zm0 30.167a.743.743 0 0 1 .684.456.746.746 0 0 1-.161.807.743.743 0 0 1-1.263-.523.738.738 0 0 1 .74-.74Zm0 10.055a.736.736 0 0 1 .684.457.743.743 0 0 1-.54 1.009.735.735 0 0 1-.759-.315.74.74 0 0 1 .615-1.151Zm0-30.167a.744.744 0 0 1 .684.457.746.746 0 0 1-.161.807.736.736 0 0 1-.806.16.742.742 0 0 1-.457-.683.74.74 0 0 1 .74-.741Zm0 10.056a.736.736 0 0 1 .684.457.743.743 0 0 1-.54 1.009.743.743 0 0 1-.759-.315.734.734 0 0 1 .092-.934.738.738 0 0 1 .523-.217Zm17.417-10.056a.744.744 0 0 1 .683.457.738.738 0 0 1-.539 1.009.738.738 0 0 1-.828-1.009.742.742 0 0 1 .684-.457Zm0-20.11c.146 0 .289.043.411.124a.745.745 0 0 1 .314.76.735.735 0 0 1-.581.581.737.737 0 0 1-.76-.314.745.745 0 0 1 .092-.935.742.742 0 0 1 .524-.216Zm0 10.055a.744.744 0 0 1 .683.457.737.737 0 0 1-.16.806.745.745 0 0 1-.807.161.738.738 0 0 1-.4-.967.745.745 0 0 1 .684-.457Zm0-40.222a.736.736 0 0 1 .683.457.735.735 0 0 1-.16.806.745.745 0 0 1-.807.161.745.745 0 0 1-.457-.684.741.741 0 0 1 .741-.74Zm0 10.055a.744.744 0 0 1 .683.457.737.737 0 0 1-.16.807.743.743 0 0 1-1.139-.113.74.74 0 0 1 .616-1.151Zm8.708-75.416a.743.743 0 0 1 .684.456.746.746 0 0 1-.161.807.743.743 0 0 1-1.263-.523.738.738 0 0 1 .74-.74Zm-8.708 85.472a.736.736 0 0 1 .683.457.735.735 0 0 1-.16.806.745.745 0 0 1-.807.161.738.738 0 0 1-.4-.967.737.737 0 0 1 .684-.457Zm8.708-95.528a.736.736 0 0 1 .684.457.743.743 0 0 1-.54 1.009.743.743 0 0 1-.759-.315.734.734 0 0 1 .092-.934.738.738 0 0 1 .523-.217Zm0-10.056a.744.744 0 0 1 .684.457.746.746 0 0 1-.161.807.736.736 0 0 1-.806.16.742.742 0 0 1-.457-.683.74.74 0 0 1 .74-.741Zm-8.708 145.806a.744.744 0 0 1 .683.457.737.737 0 0 1-.16.806.745.745 0 0 1-.807.161.738.738 0 0 1-.4-.967.737.737 0 0 1 .684-.457Zm0 10.056a.736.736 0 0 1 .683.457.735.735 0 0 1-.16.806.745.745 0 0 1-.379.203.746.746 0 0 1-.76-.315.744.744 0 0 1 .092-.935.749.749 0 0 1 .524-.216Zm0 10.055a.744.744 0 0 1 .683.457.737.737 0 0 1-.16.807.737.737 0 0 1-1.139-.113.74.74 0 0 1 .616-1.151Zm0-150.833a.736.736 0 0 1 .683.457.735.735 0 0 1-.16.806.745.745 0 0 1-.807.161.738.738 0 0 1-.4-.967.737.737 0 0 1 .684-.457Zm-8.709 125.694a.74.74 0 1 1 0 1.478.74.74 0 0 1 0-1.478Zm8.709-145.805a.736.736 0 0 1 .683.457.735.735 0 0 1-.16.806.745.745 0 0 1-.807.161.745.745 0 0 1-.457-.684.741.741 0 0 1 .741-.74Zm0 10.055a.744.744 0 0 1 .683.457.737.737 0 0 1-.16.807.743.743 0 0 1-1.139-.113.74.74 0 0 1 .616-1.151Zm-8.709 145.806c.147 0 .29.043.411.125a.733.733 0 0 1 .315.759.735.735 0 0 1-.581.582.743.743 0 0 1-.885-.726.744.744 0 0 1 .74-.74Zm0 10.056a.738.738 0 0 1 .524 1.263.743.743 0 0 1-1.139-.112.745.745 0 0 1 .092-.935.743.743 0 0 1 .523-.216Zm8.709-115.64a.744.744 0 0 1 .683.457.738.738 0 0 1-.539 1.009.738.738 0 0 1-.828-1.009.742.742 0 0 1 .684-.457Zm0 10.056a.744.744 0 0 1 .683.457.737.737 0 0 1-.16.806.745.745 0 0 1-.807.161.738.738 0 0 1-.4-.967.737.737 0 0 1 .684-.457Zm0 10.056a.736.736 0 0 1 .683.457.735.735 0 0 1-.16.806.745.745 0 0 1-.379.203.746.746 0 0 1-.76-.315.744.744 0 0 1 .092-.935.749.749 0 0 1 .524-.216Zm0 10.055a.744.744 0 0 1 .683.457.737.737 0 0 1-.16.807.737.737 0 0 1-1.139-.113.74.74 0 0 1 .616-1.151Zm0-40.222a.744.744 0 0 1 .683.457.737.737 0 0 1-.16.806.745.745 0 0 1-.807.161.738.738 0 0 1-.4-.967.745.745 0 0 1 .684-.457Zm0-10.055c.146 0 .289.043.411.124a.745.745 0 0 1 .314.76.735.735 0 0 1-.581.581.737.737 0 0 1-.76-.314.745.745 0 0 1 .092-.935.742.742 0 0 1 .524-.216Zm26.125 35.194a.736.736 0 0 1 .683.457.735.735 0 0 1-.16.806.745.745 0 0 1-.807.161.738.738 0 0 1-.4-.967.737.737 0 0 1 .684-.457Zm-156.75-30.167a.743.743 0 0 1 .725.885.745.745 0 0 1-.581.581.736.736 0 0 1-.76-.315.736.736 0 0 1 .092-.934.751.751 0 0 1 .524-.217Zm0-20.111a.743.743 0 0 1 .725.885.738.738 0 0 1-.581.581.745.745 0 0 1-.76-.315.739.739 0 0 1 .616-1.151Zm0 10.056a.735.735 0 0 1 .683.457.738.738 0 0 1-.967.966.737.737 0 0 1-.4-.967.752.752 0 0 1 .4-.4.744.744 0 0 1 .284-.056Zm0-20.112a.743.743 0 0 1 .725.885.745.745 0 0 1-.581.581.736.736 0 0 1-.76-.314.741.741 0 0 1 .616-1.152Zm-8.709 165.917a.735.735 0 0 1 .684.457.739.739 0 1 1-.684-.457Zm0-10.055a.742.742 0 0 1 .684.456.742.742 0 0 1-.54 1.01.745.745 0 0 1-.759-.315.741.741 0 0 1 .615-1.151Zm8.709-115.639a.735.735 0 0 1 .683.457.738.738 0 0 1-.54 1.009.745.745 0 0 1-.759-.315.741.741 0 0 1 .616-1.151Zm0 40.222a.743.743 0 0 1 .725.885.738.738 0 0 1-.581.581.745.745 0 0 1-.76-.315.741.741 0 0 1 .616-1.151Zm0 10.055a.743.743 0 0 1 .725.885.745.745 0 0 1-.581.581.736.736 0 0 1-.76-.314.741.741 0 0 1 .616-1.152Zm-8.709 55.306a.735.735 0 0 1 .684.457.739.739 0 1 1-.684-.457Zm0-140.778a.743.743 0 0 1 .726.884.736.736 0 0 1-.581.582.737.737 0 0 1-.76-.315.736.736 0 0 1 .092-.934.739.739 0 0 1 .523-.217Zm8.709 45.25a.743.743 0 0 1 .725.885.745.745 0 0 1-.581.581.736.736 0 0 1-.76-.315.736.736 0 0 1 .092-.934.751.751 0 0 1 .524-.217Zm0 10.056a.735.735 0 0 1 .683.457.738.738 0 0 1-.54 1.009.745.745 0 0 1-.759-.315.741.741 0 0 1 .616-1.151Zm-8.709 45.25a.735.735 0 0 1 .684.457.739.739 0 1 1-.684-.457Zm0-70.389a.735.735 0 0 1 .684.457.739.739 0 1 1-.684-.457Zm0 10.055a.743.743 0 0 1 .726.885.744.744 0 0 1-.58.581.736.736 0 0 1-.76-.314.741.741 0 0 1 .614-1.152Zm0 10.056a.735.735 0 0 1 .684.457.739.739 0 1 1-.684-.457Zm0-30.166a.742.742 0 0 1 .684.456.742.742 0 0 1-.54 1.009.736.736 0 0 1-.759-.314.741.741 0 0 1 .615-1.151Zm0-10.056a.735.735 0 0 1 .684.457.739.739 0 1 1-.684-.457Zm0 50.278a.742.742 0 0 1 .684.456.742.742 0 0 1-.54 1.01.745.745 0 0 1-.759-.315.741.741 0 0 1 .615-1.151Zm0 60.333a.735.735 0 0 1 .684.457.739.739 0 1 1-.684-.457Zm8.709-25.139a.743.743 0 0 1 .725.885.738.738 0 0 1-.581.581.745.745 0 0 1-.76-.315.739.739 0 0 1 .616-1.151Zm-8.709-25.139a.735.735 0 0 1 .684.457.739.739 0 1 1-.684-.457Zm0 60.333a.743.743 0 0 1 .726.885.744.744 0 0 1-.58.581.736.736 0 0 1-.76-.314.741.741 0 0 1 .614-1.152Zm0-20.11a.742.742 0 0 1 .684.456.742.742 0 0 1-.54 1.009.736.736 0 0 1-.759-.314.741.741 0 0 1 .615-1.151Zm0-30.167a.742.742 0 0 1 .684.456.743.743 0 0 1-.54 1.01.745.745 0 0 1-.759-.315.741.741 0 0 1 .615-1.151Zm0 10.055a.743.743 0 0 1 .726.884.736.736 0 0 1-.581.582.737.737 0 0 1-.76-.315.736.736 0 0 1 .092-.934.739.739 0 0 1 .523-.217Zm8.709-25.138a.742.742 0 0 1 .683.457.739.739 0 1 1-.683-.457Zm8.708 35.194a.735.735 0 0 1 .684.457.738.738 0 0 1-.54 1.009.745.745 0 0 1-.76-.315.741.741 0 0 1 .616-1.151Zm0 20.111a.735.735 0 0 1 .684.457.74.74 0 1 1-.684-.457Zm0-30.167a.743.743 0 0 1 .726.885.744.744 0 0 1-.582.581.736.736 0 0 1-.76-.315.736.736 0 0 1 .333-1.094.726.726 0 0 1 .283-.057Zm0 20.112a.742.742 0 0 1 .684.457.738.738 0 0 1-.967.966.742.742 0 0 1-.4-.967.74.74 0 0 1 .683-.456Zm0-40.223a.743.743 0 0 1 .726.885.744.744 0 0 1-.582.581.736.736 0 0 1-.76-.315.736.736 0 0 1 .093-.934.751.751 0 0 1 .523-.217Zm0-10.055a.735.735 0 0 1 .684.457.738.738 0 0 1-.967.966.737.737 0 0 1-.4-.966.745.745 0 0 1 .4-.401.743.743 0 0 1 .283-.056Zm0 20.111a.735.735 0 0 1 .684.457.738.738 0 0 1-.54 1.009.745.745 0 0 1-.76-.315.741.741 0 0 1 .616-1.151Zm8.708-85.473a.743.743 0 0 1 .726.885.745.745 0 0 1-.58.581.736.736 0 0 1-.76-.314.741.741 0 0 1 .614-1.152Zm0 10.056a.735.735 0 0 1 .684.457.739.739 0 1 1-.684-.457ZM52.25 282.232a.743.743 0 0 1 .726.885.744.744 0 0 1-.582.581.736.736 0 0 1-.76-.315.736.736 0 0 1 .093-.934.751.751 0 0 1 .523-.217Zm0-20.111a.743.743 0 0 1 .726.885.737.737 0 0 1-.582.581.745.745 0 0 1-.76-.315.739.739 0 0 1 .616-1.151Zm0-10.056a.742.742 0 0 1 .523 1.264.738.738 0 0 1-1.138-.112.741.741 0 0 1 .615-1.152Zm-8.708-25.138a.735.735 0 0 1 .683.457.738.738 0 0 1-.967.966.737.737 0 0 1-.4-.967.752.752 0 0 1 .4-.4.744.744 0 0 1 .284-.056Zm8.708 45.25a.735.735 0 0 1 .684.457.738.738 0 0 1-.967.966.737.737 0 0 1-.4-.966.745.745 0 0 1 .4-.401.743.743 0 0 1 .283-.056Zm-8.708-5.028a.735.735 0 0 1 .683.457.738.738 0 0 1-.54 1.009.745.745 0 0 1-.759-.315.741.741 0 0 1 .616-1.151Zm8.708-95.528a.743.743 0 0 1 .726.885.737.737 0 0 1-.582.581.745.745 0 0 1-.76-.315.739.739 0 0 1 .616-1.151Zm-8.708 105.584a.742.742 0 0 1 .683.457.739.739 0 1 1-.683-.457Zm0-40.223a.743.743 0 0 1 .725.885.745.745 0 0 1-.581.581.736.736 0 0 1-.76-.315.736.736 0 0 1 .092-.934.751.751 0 0 1 .524-.217Zm8.708-125.694a.735.735 0 0 1 .684.457.738.738 0 0 1-.54 1.009.745.745 0 0 1-.76-.315.741.741 0 0 1 .616-1.151Zm8.708 25.139a.742.742 0 0 1 .684.456.742.742 0 0 1-.54 1.01.745.745 0 0 1-.759-.315.741.741 0 0 1 .615-1.151ZM43.542 257.093a.743.743 0 0 1 .725.885.745.745 0 0 1-.581.581.736.736 0 0 1-.76-.315.736.736 0 0 1 .092-.934.751.751 0 0 1 .524-.217ZM52.25 151.51a.735.735 0 0 1 .684.457.74.74 0 1 1-.684-.457Zm0 10.055a.742.742 0 0 1 .523 1.264.738.738 0 0 1-1.138-.112.741.741 0 0 1 .615-1.152Zm0-30.166a.735.735 0 0 1 .684.457.738.738 0 0 1-.54 1.009.745.745 0 0 1-.76-.315.741.741 0 0 1 .616-1.151Zm0 10.056a.742.742 0 0 1 .684.457.738.738 0 0 1-.967.966.742.742 0 0 1-.4-.967.74.74 0 0 1 .683-.456Zm0-20.112a.743.743 0 0 1 .726.885.744.744 0 0 1-.582.581.736.736 0 0 1-.76-.315.736.736 0 0 1 .333-1.094.726.726 0 0 1 .283-.057Zm-8.708 125.695a.735.735 0 0 1 .683.457.738.738 0 0 1-.54 1.009.737.737 0 0 1-.759-.315.741.741 0 0 1 .616-1.151ZM8.708 277.205a.742.742 0 0 1 .684.456.742.742 0 0 1-.967.967.743.743 0 0 1-.457-.684.74.74 0 0 1 .74-.739Zm0-10.056a.735.735 0 0 1 .684.457.738.738 0 0 1-.54 1.009.745.745 0 0 1-.759-.315.741.741 0 0 1 .615-1.151Zm8.709-155.861a.735.735 0 0 1 .683.457.738.738 0 0 1-.54 1.009.737.737 0 0 1-.759-.315.741.741 0 0 1 .616-1.151ZM8.708 236.982a.735.735 0 0 1 .684.457.738.738 0 0 1-.54 1.009.737.737 0 0 1-.759-.315.736.736 0 0 1 .092-.934.739.739 0 0 1 .523-.217Zm0 10.056a.742.742 0 0 1 .684.456.742.742 0 0 1-.967.968.739.739 0 0 1 .283-1.424Zm8.709-125.695a.743.743 0 0 1 .725.885.745.745 0 0 1-.581.581.736.736 0 0 1-.76-.315.736.736 0 0 1 .092-.934.751.751 0 0 1 .524-.217Zm-8.709 135.75a.743.743 0 0 1 .726.884.736.736 0 0 1-.581.582.737.737 0 0 1-.76-.315.736.736 0 0 1 .092-.934.739.739 0 0 1 .523-.217Zm8.709-85.472a.743.743 0 0 1 .725.885.738.738 0 0 1-.581.581.745.745 0 0 1-.76-.315.739.739 0 0 1 .616-1.151Zm0-40.222a.735.735 0 0 1 .683.457.738.738 0 0 1-.54 1.009.745.745 0 0 1-.759-.315.741.741 0 0 1 .616-1.151Zm0 50.278a.735.735 0 0 1 .683.457.738.738 0 0 1-.967.966.737.737 0 0 1-.4-.967.752.752 0 0 1 .4-.4.744.744 0 0 1 .284-.056Zm0-20.112a.743.743 0 0 1 .725.885.745.745 0 0 1-.581.581.736.736 0 0 1-.76-.314.741.741 0 0 1 .616-1.152Zm0-10.055a.743.743 0 0 1 .725.885.738.738 0 0 1-.581.581.745.745 0 0 1-.76-.315.741.741 0 0 1 .616-1.151Zm0-10.055a.742.742 0 0 1 .683.457.739.739 0 1 1-.683-.457Zm-8.709-15.084a.735.735 0 0 1 .684.457.738.738 0 0 1-.54 1.009.745.745 0 0 1-.759-.315.739.739 0 0 1 .615-1.151Zm0 20.111a.735.735 0 0 1 .684.457.738.738 0 0 1-.54 1.009.737.737 0 0 1-.759-.315.736.736 0 0 1 .092-.934.739.739 0 0 1 .523-.217Zm0 20.111a.743.743 0 0 1 .726.884.736.736 0 0 1-.581.582.737.737 0 0 1-.76-.315.736.736 0 0 1 .092-.934.739.739 0 0 1 .523-.217Zm0-10.055a.742.742 0 0 1 .684.456.742.742 0 0 1-.54 1.01.745.745 0 0 1-.759-.315.741.741 0 0 1 .615-1.151Zm0-20.111a.742.742 0 0 1 .684.456.742.742 0 0 1-.54 1.01.745.745 0 0 1-.759-.315.741.741 0 0 1 .615-1.151Zm8.709 55.305a.743.743 0 0 1 .725.885.745.745 0 0 1-.581.581.736.736 0 0 1-.76-.315.736.736 0 0 1 .092-.934.751.751 0 0 1 .524-.217Zm-8.709 35.195a.742.742 0 0 1 .684.456.742.742 0 0 1-.54 1.01.745.745 0 0 1-.759-.315.741.741 0 0 1 .615-1.151Zm0-110.612a.743.743 0 0 1 .726.885.744.744 0 0 1-.58.581.736.736 0 0 1-.76-.314.741.741 0 0 1 .614-1.152Zm0 90.5a.743.743 0 0 1 .726.885.744.744 0 0 1-.58.581.736.736 0 0 1-.76-.314.741.741 0 0 1 .614-1.152Zm0-30.166a.735.735 0 0 1 .684.457.738.738 0 0 1-.54 1.009.745.745 0 0 1-.759-.315.741.741 0 0 1 .615-1.151Zm0 40.222a.735.735 0 0 1 .684.457.738.738 0 0 1-.54 1.009.745.745 0 0 1-.759-.315.739.739 0 0 1 .615-1.151Zm0-20.111a.735.735 0 0 1 .684.457.738.738 0 0 1-.54 1.009.745.745 0 0 1-.759-.315.741.741 0 0 1 .615-1.151Zm0-10.055a.742.742 0 0 1 .684.456.742.742 0 0 1-.967.967.743.743 0 0 1-.457-.684.74.74 0 0 1 .74-.739Zm17.417-70.39a.743.743 0 0 1 .726.885.745.745 0 0 1-.582.581.736.736 0 0 1-.76-.314.741.741 0 0 1 .616-1.152Zm0 70.39a.742.742 0 0 1 .684.457.738.738 0 0 1-.967.966.742.742 0 0 1-.4-.967.74.74 0 0 1 .683-.456Zm0 10.055a.735.735 0 0 1 .684.457.74.74 0 1 1-.684-.457Zm0 10.055a.743.743 0 0 1 .726.885.745.745 0 0 1-.582.581.736.736 0 0 1-.76-.314.741.741 0 0 1 .616-1.152Zm0-30.166a.735.735 0 0 1 .684.457.738.738 0 0 1-.54 1.009.744.744 0 0 1-.76-.315.741.741 0 0 1 .616-1.151Zm0-10.056a.743.743 0 0 1 .726.885.744.744 0 0 1-.582.581.736.736 0 0 1-.76-.315.736.736 0 0 1 .093-.934.751.751 0 0 1 .523-.217Zm0 50.278a.743.743 0 0 1 .726.885.737.737 0 0 1-.582.581.744.744 0 0 1-.76-.315.739.739 0 0 1 .616-1.151Zm0 20.111a.743.743 0 0 1 .726.885.744.744 0 0 1-.582.581.736.736 0 0 1-.76-.315.736.736 0 0 1 .093-.934.751.751 0 0 1 .523-.217Zm0 30.167a.735.735 0 0 1 .684.457.738.738 0 0 1-.54 1.009.744.744 0 0 1-.76-.315.741.741 0 0 1 .616-1.151Zm-8.708-65.361a.735.735 0 0 1 .683.457.738.738 0 0 1-.54 1.009.744.744 0 0 1-.759-.315.741.741 0 0 1 .616-1.151Zm8.708 55.305a.743.743 0 0 1 .726.885.744.744 0 0 1-.582.581.736.736 0 0 1-.76-.315.736.736 0 0 1 .093-.934.751.751 0 0 1 .523-.217Zm0-10.055a.735.735 0 0 1 .684.457.738.738 0 0 1-.54 1.009.736.736 0 0 1-.76-.315.741.741 0 0 1 .616-1.151Zm0-90.5a.735.735 0 0 1 .684.457.738.738 0 0 1-.54 1.009.744.744 0 0 1-.76-.315.741.741 0 0 1 .616-1.151Zm0 70.389a.735.735 0 0 1 .684.457.738.738 0 0 1-.967.966.736.736 0 0 1-.4-.967.752.752 0 0 1 .4-.4.744.744 0 0 1 .283-.056Zm0 50.278a.742.742 0 0 1 .684.457.738.738 0 0 1-.967.966.742.742 0 0 1-.4-.967.74.74 0 0 1 .683-.456Zm-8.708-15.084a.743.743 0 0 1 .725.885.737.737 0 0 1-.581.581.744.744 0 0 1-.76-.315.739.739 0 0 1 .616-1.151Zm0-20.111a.735.735 0 0 1 .683.457.74.74 0 1 1-.683-.457Zm0 10.055a.743.743 0 0 1 .725.885.745.745 0 0 1-.581.581.736.736 0 0 1-.76-.314.741.741 0 0 1 .616-1.152Zm0-20.11a.741.741 0 0 1 .683.457.739.739 0 1 1-.683-.457Zm0-10.056a.735.735 0 0 1 .683.457.738.738 0 0 1-.54 1.009.744.744 0 0 1-.759-.315.741.741 0 0 1 .616-1.151Zm0-10.056a.743.743 0 0 1 .725.885.744.744 0 0 1-.581.581.736.736 0 0 1-.76-.315.736.736 0 0 1 .092-.934.751.751 0 0 1 .524-.217Zm8.708-75.416a.735.735 0 0 1 .684.457.738.738 0 0 1-.967.966.737.737 0 0 1-.4-.967.752.752 0 0 1 .4-.4.744.744 0 0 1 .283-.056Zm-8.708 135.75a.735.735 0 0 1 .683.457.738.738 0 0 1-.967.966.737.737 0 0 1-.4-.967.752.752 0 0 1 .4-.4.744.744 0 0 1 .284-.056Zm8.708-125.695a.743.743 0 0 1 .726.885.744.744 0 0 1-.582.581.736.736 0 0 1-.76-.315.736.736 0 0 1 .093-.934.751.751 0 0 1 .523-.217Zm0-20.111a.743.743 0 0 1 .726.885.737.737 0 0 1-.582.581.745.745 0 0 1-.76-.315.739.739 0 0 1 .616-1.151Zm-8.708 155.861a.743.743 0 0 1 .725.885.745.745 0 0 1-.581.581.736.736 0 0 1-.76-.315.736.736 0 0 1 .092-.934.751.751 0 0 1 .524-.217Zm17.416-170.944a.742.742 0 0 1 .684.456.743.743 0 0 1-.54 1.01.745.745 0 0 1-.759-.315.741.741 0 0 1 .615-1.151Zm52.25 120.667a.742.742 0 0 1 .684.456.742.742 0 0 1-.54 1.009.736.736 0 0 1-.759-.314.741.741 0 0 1 .615-1.151Zm0 50.277a.735.735 0 0 1 .684.457.739.739 0 1 1-.684-.457Zm0-10.055a.742.742 0 0 1 .684.456.742.742 0 0 1-.539 1.01.745.745 0 0 1-.76-.315.741.741 0 0 1 .615-1.151Zm8.709-155.862a.743.743 0 0 1 .725.885.745.745 0 0 1-.581.581.736.736 0 0 1-.76-.314.741.741 0 0 1 .616-1.152Zm0 10.056a.743.743 0 0 1 .725.885.737.737 0 0 1-.581.581.744.744 0 0 1-.76-.315.739.739 0 0 1 .616-1.151Zm-8.709 135.75a.735.735 0 0 1 .684.457.739.739 0 1 1-.684-.457Zm0-10.056a.743.743 0 0 1 .726.885.744.744 0 0 1-.58.581.737.737 0 0 1-.76-.314.741.741 0 0 1 .614-1.152Zm8.709-85.472a.743.743 0 0 1 .725.885.744.744 0 0 1-.581.581.736.736 0 0 1-.76-.315.736.736 0 0 1 .092-.934.751.751 0 0 1 .524-.217Zm0-30.166a.735.735 0 0 1 .683.457.738.738 0 0 1-.967.966.737.737 0 0 1-.4-.967.752.752 0 0 1 .4-.4.744.744 0 0 1 .284-.056Zm0 40.222a.735.735 0 0 1 .683.457.738.738 0 0 1-.54 1.009.744.744 0 0 1-.759-.315.741.741 0 0 1 .616-1.151Zm0 10.056a.741.741 0 0 1 .683.457.739.739 0 1 1-.683-.457Zm-8.709 55.305a.735.735 0 0 1 .684.457.739.739 0 1 1-.684-.457Zm8.709-45.25a.743.743 0 0 1 .725.885.737.737 0 0 1-.581.581.744.744 0 0 1-.76-.315.741.741 0 0 1 .616-1.151Zm0-50.278a.743.743 0 0 1 .725.885.744.744 0 0 1-.581.581.736.736 0 0 1-.76-.315.736.736 0 0 1 .092-.934.751.751 0 0 1 .524-.217Zm0 10.056a.735.735 0 0 1 .683.457.738.738 0 0 1-.54 1.009.744.744 0 0 1-.759-.315.741.741 0 0 1 .616-1.151Zm-8.709-5.028a.735.735 0 0 1 .684.457.739.739 0 1 1-.684-.457Zm0-10.055a.742.742 0 0 1 .684.456.742.742 0 0 1-.54 1.009.736.736 0 0 1-.759-.314.741.741 0 0 1 .615-1.151Zm0 30.166a.735.735 0 0 1 .684.457.739.739 0 1 1-.684-.457Zm0-10.056a.743.743 0 0 1 .726.885.744.744 0 0 1-.58.581.737.737 0 0 1-.76-.314.741.741 0 0 1 .614-1.152Zm0-40.222a.743.743 0 0 1 .726.884.736.736 0 0 1-.581.582.736.736 0 0 1-.76-.315.736.736 0 0 1 .092-.934.739.739 0 0 1 .523-.217Zm0 10.056a.735.735 0 0 1 .684.457.739.739 0 1 1-.684-.457ZM104.5 282.232a.74.74 0 1 1 0 1.478.74.74 0 0 1 0-1.478Zm-17.417-70.389a.743.743 0 0 1 .726.884.736.736 0 0 1-.581.582.736.736 0 0 1-.76-.315.736.736 0 0 1 .092-.934.739.739 0 0 1 .523-.217Zm0-30.166a.742.742 0 0 1 .684.456.742.742 0 0 1-.539 1.01.745.745 0 0 1-.76-.315.741.741 0 0 1 .615-1.151Zm0 40.222a.735.735 0 0 1 .684.457.739.739 0 1 1-.684-.457Zm0-20.111a.742.742 0 0 1 .684.456.743.743 0 0 1-.539 1.01.745.745 0 0 1-.76-.315.741.741 0 0 1 .615-1.151Zm0-10.056a.735.735 0 0 1 .684.457.739.739 0 1 1-.684-.457Zm8.709 55.306a.735.735 0 0 1 .683.457.738.738 0 0 1-.54 1.009.736.736 0 0 1-.759-.315.741.741 0 0 1 .616-1.151Zm8.708-55.306a.74.74 0 1 1 0 1.478.74.74 0 0 1 0-1.478Zm0 10.056a.738.738 0 0 1 .144 1.466.743.743 0 0 1-.759-.315.736.736 0 0 1 .092-.934.735.735 0 0 1 .523-.217Zm0 10.055a.74.74 0 1 1 0 1.478.74.74 0 0 1 0-1.478Zm0 10.056a.738.738 0 0 1 .144 1.466.743.743 0 0 1-.759-.315.736.736 0 0 1 .092-.934.735.735 0 0 1 .523-.217Zm0-40.222a.738.738 0 1 1-.283 1.423.736.736 0 0 1-.457-.683.74.74 0 0 1 .74-.74Zm0-10.056a.74.74 0 1 1 0 1.478.74.74 0 0 1 0-1.478Zm0 80.444a.74.74 0 1 1 0 1.478.74.74 0 0 1 0-1.478Zm0-20.11a.738.738 0 0 1 .144 1.465.735.735 0 0 1-.759-.314.737.737 0 0 1 .092-.935.732.732 0 0 1 .523-.216Zm0 30.166a.74.74 0 1 1 0 1.478.74.74 0 0 1 0-1.478Zm0 10.056a.738.738 0 1 1-.283 1.423.736.736 0 0 1-.457-.683.74.74 0 0 1 .74-.74Zm0-30.167a.738.738 0 0 1 .144 1.466.743.743 0 0 1-.759-.315.736.736 0 0 1 .092-.934.735.735 0 0 1 .523-.217Zm0-80.445a.74.74 0 1 1 0 1.478.74.74 0 0 1 0-1.478Zm0-10.055a.74.74 0 1 1 0 1.478.74.74 0 0 1 0-1.478Zm-8.708 115.639a.735.735 0 0 1 .683.457.738.738 0 0 1-.54 1.009.744.744 0 0 1-.759-.315.741.741 0 0 1 .616-1.151Zm0-30.167a.743.743 0 0 1 .725.885.744.744 0 0 1-.581.581.736.736 0 0 1-.76-.315.736.736 0 0 1 .092-.934.751.751 0 0 1 .524-.217Zm0-30.167a.743.743 0 0 1 .725.885.745.745 0 0 1-.581.581.736.736 0 0 1-.76-.314.741.741 0 0 1 .616-1.152Zm-8.709-95.527a.742.742 0 0 1 .684.456.743.743 0 0 1-.539 1.01.745.745 0 0 1-.76-.315.741.741 0 0 1 .615-1.151Zm8.709 115.639a.735.735 0 0 1 .683.457.738.738 0 0 1-.967.966.737.737 0 0 1-.4-.967.752.752 0 0 1 .4-.4.744.744 0 0 1 .284-.056Zm0-10.056a.743.743 0 0 1 .725.885.737.737 0 0 1-.581.581.744.744 0 0 1-.76-.315.739.739 0 0 1 .616-1.151Zm0 40.222a.743.743 0 0 1 .725.885.744.744 0 0 1-.581.581.736.736 0 0 1-.76-.315.736.736 0 0 1 .092-.934.751.751 0 0 1 .524-.217Zm8.708-115.638a.738.738 0 0 1 .144 1.465.735.735 0 0 1-.759-.314.737.737 0 0 1 .092-.935.732.732 0 0 1 .523-.216Zm0-10.056a.738.738 0 0 1 .144 1.466.743.743 0 0 1-.759-.315.736.736 0 0 1 .092-.934.735.735 0 0 1 .523-.217Zm0-10.056a.74.74 0 1 1 0 1.478.74.74 0 0 1 0-1.478Zm0-10.055a.738.738 0 0 1 .144 1.466.743.743 0 0 1-.759-.315.736.736 0 0 1 .092-.934.735.735 0 0 1 .523-.217Zm-8.708 165.917a.741.741 0 0 1 .683.457.739.739 0 1 1-.683-.457Zm-17.417-30.167a.735.735 0 0 1 .684.457.738.738 0 0 1-.54 1.009.745.745 0 0 1-.76-.315.741.741 0 0 1 .616-1.151Zm-8.708-105.583a.742.742 0 0 1 .683.457.739.739 0 1 1-.683-.457Zm0-10.056a.735.735 0 0 1 .683.457.738.738 0 0 1-.54 1.009.745.745 0 0 1-.759-.315.741.741 0 0 1 .616-1.151Zm0 30.166a.743.743 0 0 1 .725.885.745.745 0 0 1-.581.581.736.736 0 0 1-.76-.314.741.741 0 0 1 .616-1.152Zm0-10.055a.743.743 0 0 1 .725.885.738.738 0 0 1-.581.581.745.745 0 0 1-.76-.315.741.741 0 0 1 .616-1.151Zm0-40.222a.735.735 0 0 1 .683.457.738.738 0 0 1-.54 1.009.745.745 0 0 1-.759-.315.741.741 0 0 1 .616-1.151Zm0 10.055a.743.743 0 0 1 .725.885.745.745 0 0 1-.581.581.736.736 0 0 1-.76-.315.736.736 0 0 1 .092-.934.751.751 0 0 1 .524-.217Zm0 100.556a.735.735 0 0 1 .683.457.738.738 0 0 1-.54 1.009.745.745 0 0 1-.759-.315.741.741 0 0 1 .616-1.151Zm0-10.056a.743.743 0 0 1 .725.885.745.745 0 0 1-.581.581.736.736 0 0 1-.76-.315.736.736 0 0 1 .092-.934.751.751 0 0 1 .524-.217Zm-8.709 65.362a.742.742 0 0 1 .684.456.742.742 0 0 1-.54 1.009.736.736 0 0 1-.759-.314.741.741 0 0 1 .615-1.151Zm8.709-105.584a.743.743 0 0 1 .725.885.738.738 0 0 1-.581.581.745.745 0 0 1-.76-.315.739.739 0 0 1 .616-1.151Zm0 30.167a.735.735 0 0 1 .683.457.738.738 0 0 1-.54 1.009.745.745 0 0 1-.759-.315.741.741 0 0 1 .616-1.151Zm0-20.111a.735.735 0 0 1 .683.457.738.738 0 0 1-.967.966.737.737 0 0 1-.4-.967.752.752 0 0 1 .4-.4.744.744 0 0 1 .284-.056Zm-8.709 15.083a.735.735 0 0 1 .684.457.739.739 0 1 1-.684-.457Zm0-10.055a.742.742 0 0 1 .684.456.742.742 0 0 1-.54 1.009.736.736 0 0 1-.759-.314.741.741 0 0 1 .615-1.151Zm8.709 45.25a.742.742 0 0 1 .683.457.739.739 0 1 1-.683-.457Zm-8.709-55.306a.735.735 0 0 1 .684.457.739.739 0 1 1-.684-.457Zm0 90.5a.735.735 0 0 1 .684.457.739.739 0 1 1-.684-.457Zm0-60.334a.743.743 0 0 1 .726.885.744.744 0 0 1-.58.581.736.736 0 0 1-.76-.314.741.741 0 0 1 .614-1.152Zm0-50.277a.742.742 0 0 1 .684.456.743.743 0 0 1-.54 1.01.745.745 0 0 1-.759-.315.741.741 0 0 1 .615-1.151Zm0 10.055a.743.743 0 0 1 .726.884.736.736 0 0 1-.581.582.737.737 0 0 1-.76-.315.736.736 0 0 1 .092-.934.739.739 0 0 1 .523-.217Zm0 80.445a.742.742 0 0 1 .684.456.743.743 0 0 1-.54 1.01.745.745 0 0 1-.759-.315.741.741 0 0 1 .615-1.151Zm0 10.055a.743.743 0 0 1 .726.884.736.736 0 0 1-.581.582.737.737 0 0 1-.76-.315.736.736 0 0 1 .092-.934.739.739 0 0 1 .523-.217Zm0-30.166a.742.742 0 0 1 .684.456.742.742 0 0 1-.54 1.01.745.745 0 0 1-.759-.315.741.741 0 0 1 .615-1.151Zm0 10.055a.735.735 0 0 1 .684.457.739.739 0 1 1-.684-.457Zm0-20.111a.735.735 0 0 1 .684.457.739.739 0 1 1-.684-.457Zm8.709-25.139a.743.743 0 0 1 .725.885.745.745 0 0 1-.581.581.736.736 0 0 1-.76-.315.736.736 0 0 1 .092-.934.751.751 0 0 1 .524-.217Zm8.708-15.083a.735.735 0 0 1 .684.457.738.738 0 0 1-.54 1.009.745.745 0 0 1-.76-.315.741.741 0 0 1 .616-1.151Zm0 60.333a.743.743 0 0 1 .726.885.744.744 0 0 1-.582.581.736.736 0 0 1-.76-.315.736.736 0 0 1 .093-.934.751.751 0 0 1 .523-.217Zm0 20.111a.743.743 0 0 1 .726.885.744.744 0 0 1-.582.581.736.736 0 0 1-.76-.315.736.736 0 0 1 .333-1.094.726.726 0 0 1 .283-.057ZM60.958 146.482a.735.735 0 0 1 .684.457.739.739 0 1 1-.684-.457Zm17.417 120.667a.735.735 0 0 1 .684.457.738.738 0 0 1-.54 1.009.745.745 0 0 1-.76-.315.741.741 0 0 1 .616-1.151Zm0-100.556a.743.743 0 0 1 .726.885.744.744 0 0 1-.582.581.736.736 0 0 1-.76-.315.736.736 0 0 1 .333-1.094.726.726 0 0 1 .283-.057Zm0-10.055a.735.735 0 0 1 .684.457.738.738 0 0 1-.54 1.009.745.745 0 0 1-.76-.315.741.741 0 0 1 .616-1.151Zm0 60.333a.743.743 0 0 1 .726.885.737.737 0 0 1-.582.581.745.745 0 0 1-.76-.315.739.739 0 0 1 .616-1.151Zm0-10.056a.742.742 0 0 1 .523 1.264.738.738 0 0 1-1.138-.112.741.741 0 0 1 .615-1.152Zm0-20.11a.742.742 0 0 1 .684.457.739.739 0 1 1-.684-.457Zm0 10.055a.743.743 0 0 1 .726.885.737.737 0 0 1-.582.581.745.745 0 0 1-.76-.315.741.741 0 0 1 .616-1.151Zm-8.708 45.25a.743.743 0 0 1 .725.885.738.738 0 0 1-.581.581.745.745 0 0 1-.76-.315.741.741 0 0 1 .616-1.151Zm8.708-105.583a.735.735 0 0 1 .684.457.738.738 0 0 1-.967.966.737.737 0 0 1-.4-.966.745.745 0 0 1 .4-.401.743.743 0 0 1 .283-.056Zm-8.708 135.75a.735.735 0 0 1 .683.457.738.738 0 0 1-.967.966.737.737 0 0 1-.4-.967.752.752 0 0 1 .4-.4.744.744 0 0 1 .284-.056Zm8.708 5.028a.742.742 0 0 1 .684.457.739.739 0 1 1-.684-.457Zm-8.708 5.027a.743.743 0 0 1 .725.885.745.745 0 0 1-.581.581.736.736 0 0 1-.76-.315.736.736 0 0 1 .092-.934.751.751 0 0 1 .524-.217Zm0-30.167a.743.743 0 0 1 .725.885.745.745 0 0 1-.581.581.736.736 0 0 1-.76-.314.741.741 0 0 1 .616-1.152Zm0 10.056a.743.743 0 0 1 .725.885.738.738 0 0 1-.581.581.745.745 0 0 1-.76-.315.739.739 0 0 1 .616-1.151Zm8.708-145.806a.742.742 0 0 1 .523 1.264.738.738 0 0 1-1.138-.112.741.741 0 0 1 .615-1.152Zm0 30.167a.743.743 0 0 1 .726.885.744.744 0 0 1-.582.581.736.736 0 0 1-.76-.315.736.736 0 0 1 .093-.934.751.751 0 0 1 .523-.217Zm0 80.445a.735.735 0 0 1 .684.457.738.738 0 0 1-.967.966.737.737 0 0 1-.4-.966.745.745 0 0 1 .4-.401.743.743 0 0 1 .283-.056Zm0-100.556a.743.743 0 0 1 .726.885.737.737 0 0 1-.582.581.745.745 0 0 1-.76-.315.739.739 0 0 1 .616-1.151Z"/><g fill="#C2C5CB" clip-path="url(#a)"><path d="M97.268 288h-2.952L0 233.546v-1.704l97.043 56.028.225.13Zm-87.084 0L0 282.119v1.704L7.233 288h2.951Zm69.442-.13L0 241.898v1.704L76.9 288h2.951l-.225-.13Zm-17.416 0L0 251.952v1.704L59.483 288h2.952l-.225-.13Zm-34.834 0L0 272.064v1.705L24.65 288H27.6l-.225-.13Zm17.417 0L0 262.008v1.704L42.067 288h2.95l-.224-.13ZM24.649 107H27.6L209 211.731v1.704L24.874 107.13l-.225-.13Zm-17.191.13L209 223.491v-1.704L10.184 107H7.233l.225.13Zm52.25 0L209 193.325v-1.704L62.434 107h-2.951l.225.13Zm-17.417 0L209 203.381v-1.704L45.017 107h-2.95l.224.13Zm34.833 0L209 183.269v-1.704L79.85 107H76.9l.224.13Zm17.417 0L209 173.215v-1.704L97.267 107h-2.951l.225.13ZM.075 151.441 209 272.065v1.703l-.075-.043L0 153.102v-1.705l.075.044ZM0 141.343v1.704L208.925 263.67l.075.044v-1.705L.075 141.386 0 141.343Zm0 20.11v1.705L208.925 283.78l.075.044v-1.703L.075 161.496 0 161.453Zm0-30.166v1.704l208.925 120.623.075.044v-1.704L.075 131.33 0 131.287Zm0-10.056v1.704l208.925 120.624.075.043v-1.704L.075 121.275 0 121.231Zm0-10.055v1.704l208.925 120.623.075.044v-1.704L.075 111.219 0 111.176Z"/></g><path fill="#C2C5CB" d="M97.268 107h-2.952L0 52.546v-1.704l97.043 56.028.225.13Zm-87.084 0L0 101.119v1.704L7.233 107h2.951Zm69.442-.13L0 60.897v1.705L76.9 107h2.951l-.225-.13Zm-17.416 0L0 70.952v1.704L59.483 107h2.952l-.225-.13Zm-34.834 0L0 91.064v1.705L24.65 107H27.6l-.225-.13Zm17.417 0L0 81.008v1.704L42.067 107h2.95l-.224-.13Z"/><g fill="#C2C5CB" clip-path="url(#b)"><path d="M184.351 469h-2.952L0 364.269v-1.704L184.126 468.87l.225.13Zm17.191-.13L0 352.509v1.704L198.816 469h2.951l-.225-.13Zm-52.25 0L0 382.675v1.704L146.566 469h2.951l-.225-.13Zm17.417 0L0 372.619v1.704L163.983 469h2.951l-.225-.13Zm-34.833 0L0 392.731v1.704L129.149 469h2.952l-.225-.13Zm-17.417 0L0 402.785v1.704L111.733 469h2.951l-.225-.13Zm-17.191.13h-2.952L0 414.546v-1.704l97.043 56.028.225.13Zm-87.084 0L0 463.119v1.704L7.233 469h2.951Zm69.442-.13L0 422.898v1.704L76.9 469h2.951l-.225-.13Zm-17.416 0L0 432.952v1.704L59.483 469h2.952l-.225-.13Zm-34.834 0L0 453.064v1.705L24.65 469H27.6l-.225-.13Zm17.417 0L0 443.008v1.704L42.067 469h2.95l-.224-.13ZM24.649 288H27.6L209 392.731v1.704L24.874 288.13l-.225-.13Zm-17.191.13L209 404.491v-1.704L10.184 288H7.233l.225.13Zm52.25 0L209 374.325v-1.704L62.434 288h-2.951l.225.13Zm-17.417 0L209 384.381v-1.704L45.017 288h-2.95l.224.13Zm34.833 0L209 364.269v-1.704L79.85 288H76.9l.224.13Zm17.417 0L209 354.215v-1.704L97.267 288h-2.951l.225.13Zm17.191-.13h2.952L209 342.454v1.704l-97.043-56.028-.225-.13Zm87.084 0L209 293.881v-1.704L201.767 288h-2.951Zm-69.442.13L209 334.102v-1.704L132.1 288h-2.951l.225.13Zm17.416 0L209 324.048v-1.704L149.517 288h-2.952l.225.13Zm34.834 0L209 303.936v-1.705L184.35 288h-2.951l.225.13Zm-17.417 0L209 313.992v-1.704L166.933 288h-2.951l.225.13ZM.075 332.441 209 453.065v1.703l-.075-.043L0 334.102v-1.705l.075.044ZM0 322.343v1.704L208.925 444.67l.075.044v-1.705L.075 322.386 0 322.343Zm0 20.11v1.705L208.925 464.78l.075.044v-1.703L.075 342.496 0 342.453Zm0-30.166v1.704l208.925 120.623.075.044v-1.704L.075 312.33 0 312.287Zm0-10.056v1.704l208.925 120.624.075.043v-1.704L.075 302.275 0 302.231Zm0-10.055v1.704l208.925 120.623.075.044v-1.704L.075 292.219 0 292.176Z"/></g><path fill="#C2C5CB" d="M233.649 288h2.952L418 392.731v1.705L233.874 288.13l-.225-.13Zm-17.191.13L418 404.491v-1.704L219.184 288h-2.951l.225.13Zm52.25 0L418 374.325v-1.704L271.434 288h-2.951l.225.13Zm-17.417 0L418 384.381v-1.704L254.017 288h-2.951l.225.13Zm34.833 0L418 364.27v-1.705L288.851 288h-2.952l.225.13Zm17.417 0L418 354.215v-1.704L306.267 288h-2.951l.225.13Zm-94.466 44.311L418 453.065v1.703l-.075-.043L209 334.102v-1.705l.075.044ZM209 322.343v1.704L417.925 444.67l.075.044v-1.704L209.075 322.386l-.075-.043Zm0 20.11v1.705l208.925 120.623.075.043v-1.703L209.075 342.496l-.075-.043Zm0-30.166v1.704l208.925 120.624.075.043v-1.704L209.075 312.33l-.075-.043Zm0-10.056v1.704l208.925 120.624.075.043v-1.704L209.075 302.275l-.075-.044Zm0-10.055v1.704l208.925 120.623.075.044v-1.704L209.075 292.219l-.075-.043Z"/><defs><clipPath id="a"><path fill="#fff" d="M209 107H0v181h209z"/></clipPath><clipPath id="b"><path fill="#fff" d="M209 288H0v181h209z"/></clipPath></defs></svg>