<svg xmlns="http://www.w3.org/2000/svg" width="418" height="436" fill="none"><path fill="#8C909C" d="M278.667 211.843a.74.74 0 1 0 0 1.478.74.74 0 0 0 0-1.478Zm0 60.334a.738.738 0 0 0-.524 1.263.752.752 0 0 0 .379.203.747.747 0 0 0 .76-.315.742.742 0 0 0-.615-1.151Zm0-30.167a.731.731 0 0 0-.411.125.733.733 0 0 0-.315.759.735.735 0 0 0 .581.582.743.743 0 0 0 .885-.726.744.744 0 0 0-.74-.74Zm0 20.111a.738.738 0 0 0-.145 1.466.743.743 0 0 0 .885-.726.744.744 0 0 0-.74-.74Zm0-30.166a.738.738 0 0 0-.524 1.263.743.743 0 0 0 1.139-.112.745.745 0 0 0-.092-.935.743.743 0 0 0-.523-.216Zm0-10.056a.731.731 0 0 0-.411.125.733.733 0 0 0-.315.759.735.735 0 0 0 .581.582.743.743 0 0 0 .885-.726.744.744 0 0 0-.74-.74Zm0 30.166a.74.74 0 0 0-.726.885.743.743 0 0 0 .581.581.745.745 0 0 0 .885-.725.744.744 0 0 0-.74-.741Zm0-140.777a.738.738 0 0 0-.524 1.263.745.745 0 0 0 .807.161.743.743 0 0 0 .457-.684.742.742 0 0 0-.74-.74Zm8.708 165.917a.738.738 0 0 0-.144 1.465.735.735 0 0 0 .759-.314.737.737 0 0 0-.092-.935.732.732 0 0 0-.523-.216Zm-8.708-155.862a.74.74 0 1 0 0 1.478.74.74 0 0 0 0-1.478Zm8.708 135.75a.74.74 0 1 0 0 1.478.74.74 0 0 0 0-1.478Zm-8.708-125.694a.731.731 0 0 0-.411.125.733.733 0 0 0-.315.759.735.735 0 0 0 .581.582.743.743 0 0 0 .885-.726.744.744 0 0 0-.74-.74Zm8.708 135.75a.738.738 0 0 0-.144 1.466.743.743 0 0 0 .759-.315.736.736 0 0 0-.092-.934.735.735 0 0 0-.523-.217Zm-8.708-125.694a.738.738 0 0 0-.524 1.263.743.743 0 0 0 1.139-.112.745.745 0 0 0-.092-.935.743.743 0 0 0-.523-.216Zm0 40.222a.738.738 0 0 0-.524 1.263.752.752 0 0 0 .379.203.747.747 0 0 0 .76-.315.742.742 0 0 0-.615-1.151Zm0 20.111a.738.738 0 0 0-.524 1.263.745.745 0 0 0 .807.161.743.743 0 0 0 .457-.684.742.742 0 0 0-.74-.74Zm0-30.167a.738.738 0 0 0-.145 1.466.743.743 0 0 0 .885-.726.744.744 0 0 0-.74-.74Zm0 20.111a.738.738 0 0 0-.145 1.466.738.738 0 0 0 .885-.726.744.744 0 0 0-.74-.74Zm0-30.167a.74.74 0 0 0-.726.885.743.743 0 0 0 .581.581.745.745 0 0 0 .885-.725.744.744 0 0 0-.74-.741Zm0-10.055a.731.731 0 0 0-.411.125.733.733 0 0 0-.315.759.735.735 0 0 0 .581.582.743.743 0 0 0 .885-.726.744.744 0 0 0-.74-.74Zm-17.417-30.167a.744.744 0 0 0-.684.457.743.743 0 0 0 .54 1.009.735.735 0 0 0 .759-.315.74.74 0 0 0-.615-1.151Zm8.708 155.862a.743.743 0 0 0-.411.124.745.745 0 0 0-.314.76.735.735 0 0 0 .581.581.737.737 0 0 0 .76-.314.745.745 0 0 0-.092-.935.742.742 0 0 0-.524-.216Zm0-20.112a.744.744 0 0 0-.683.457.737.737 0 0 0 .16.807.743.743 0 0 0 1.139-.113.74.74 0 0 0-.616-1.151Zm0-30.166a.736.736 0 0 0-.683.457.735.735 0 0 0 .16.806.745.745 0 0 0 .379.203.746.746 0 0 0 .76-.315.744.744 0 0 0-.092-.935.749.749 0 0 0-.524-.216Zm0 10.055a.744.744 0 0 0-.683.457.737.737 0 0 0 .16.807.737.737 0 0 0 1.139-.113.74.74 0 0 0-.616-1.151Zm0 10.056a.736.736 0 0 0-.683.457.735.735 0 0 0 .16.806.738.738 0 0 0 1.139-.112.744.744 0 0 0-.092-.935.749.749 0 0 0-.524-.216Zm0 20.111a.736.736 0 0 0-.683.457.735.735 0 0 0 .16.806.745.745 0 0 0 .807.161.738.738 0 0 0 .4-.967.737.737 0 0 0-.684-.457Zm-8.708-155.861a.743.743 0 0 0-.684.456.747.747 0 0 0 .161.807.737.737 0 0 0 1.138-.112.736.736 0 0 0-.092-.934.738.738 0 0 0-.523-.217Zm0 40.222a.736.736 0 0 0-.684.457.743.743 0 0 0 .54 1.009.743.743 0 0 0 .759-.315.736.736 0 0 0-.092-.934.738.738 0 0 0-.523-.217Zm0 10.055a.744.744 0 0 0-.684.457.746.746 0 0 0 .161.807.736.736 0 0 0 .806.16.742.742 0 0 0 .457-.683.74.74 0 0 0-.74-.741Zm0-30.166a.736.736 0 0 0-.684.457.743.743 0 0 0 .54 1.009.743.743 0 0 0 .759-.315.736.736 0 0 0-.092-.934.738.738 0 0 0-.523-.217Zm0 10.056a.743.743 0 0 0-.684.456.746.746 0 0 0 .161.807.735.735 0 0 0 .806.16.737.737 0 0 0 .457-.684.74.74 0 0 0-.74-.739Zm8.708 45.25a.743.743 0 0 0-.411.124.745.745 0 0 0-.314.76.735.735 0 0 0 .581.581.737.737 0 0 0 .76-.314.745.745 0 0 0-.092-.935.742.742 0 0 0-.524-.216Zm0-50.278a.736.736 0 0 0-.683.457.735.735 0 0 0 .16.806.745.745 0 0 0 .379.203.746.746 0 0 0 .76-.315.744.744 0 0 0-.092-.935.749.749 0 0 0-.524-.216Zm0 80.444a.744.744 0 0 0-.683.457.737.737 0 0 0 .16.806.745.745 0 0 0 .807.161.738.738 0 0 0 .4-.967.737.737 0 0 0-.684-.457Zm0-90.5a.744.744 0 0 0-.683.457.737.737 0 0 0 .16.806.745.745 0 0 0 .807.161.738.738 0 0 0 .4-.967.737.737 0 0 0-.684-.457Zm0 30.167a.736.736 0 0 0-.683.457.735.735 0 0 0 .16.806.745.745 0 0 0 .807.161.745.745 0 0 0 .457-.684.741.741 0 0 0-.741-.74Zm0-40.223a.744.744 0 0 0-.683.457.738.738 0 0 0 .539 1.009.738.738 0 0 0 .828-1.009.742.742 0 0 0-.684-.457Zm0 30.167a.744.744 0 0 0-.683.457.737.737 0 0 0 .16.807.737.737 0 0 0 1.139-.113.74.74 0 0 0-.616-1.151Zm0 50.278a.744.744 0 0 0-.683.457.737.737 0 0 0 .16.806.745.745 0 0 0 .807.161.738.738 0 0 0 .4-.967.745.745 0 0 0-.684-.457Zm0 10.055a.744.744 0 0 0-.683.457.738.738 0 0 0 .539 1.009.738.738 0 0 0 .828-1.009.742.742 0 0 0-.684-.457Zm0-40.222a.744.744 0 0 0-.683.457.737.737 0 0 0 .16.807.743.743 0 0 0 1.139-.113.74.74 0 0 0-.616-1.151Zm0 10.056a.736.736 0 0 0-.683.457.735.735 0 0 0 .16.806.745.745 0 0 0 .807.161.738.738 0 0 0 .4-.967.737.737 0 0 0-.684-.457Zm8.709 105.583a.738.738 0 0 0-.145 1.466.738.738 0 0 0 .885-.726.744.744 0 0 0-.74-.74Zm17.416-50.277a.743.743 0 0 0-.411.124.745.745 0 0 0-.314.76.735.735 0 0 0 .581.581.737.737 0 0 0 .76-.314.745.745 0 0 0-.092-.935.742.742 0 0 0-.524-.216Zm8.709 25.138a.74.74 0 1 0 0 1.478.74.74 0 0 0 0-1.478Zm0-40.222a.738.738 0 0 0-.145 1.466.743.743 0 0 0 .885-.726.744.744 0 0 0-.74-.74Zm0 30.167a.738.738 0 0 0-.524 1.263.74.74 0 1 0 .524-1.263Zm0-10.056a.738.738 0 0 0-.145 1.466.738.738 0 0 0 .885-.726.744.744 0 0 0-.74-.74Zm0 40.223a.738.738 0 0 0-.524 1.263.743.743 0 0 0 1.139-.112.745.745 0 0 0-.092-.935.743.743 0 0 0-.523-.216Zm0-50.278a.738.738 0 0 0-.524 1.263.748.748 0 0 0 .379.203.747.747 0 0 0 .76-.315.742.742 0 0 0-.615-1.151Zm0 40.222a.731.731 0 0 0-.411.125.733.733 0 0 0-.315.759.735.735 0 0 0 .581.582.743.743 0 0 0 .885-.726.744.744 0 0 0-.74-.74Zm-8.709-155.861a.736.736 0 0 0-.683.457.735.735 0 0 0 .16.806.745.745 0 0 0 .807.161.745.745 0 0 0 .457-.684.741.741 0 0 0-.741-.74Zm0 40.222a.744.744 0 0 0-.683.457.737.737 0 0 0 .16.806.745.745 0 0 0 .807.161.738.738 0 0 0 .4-.967.737.737 0 0 0-.684-.457Zm0 10.055a.744.744 0 0 0-.683.457.738.738 0 0 0 .539 1.009.738.738 0 0 0 .828-1.009.742.742 0 0 0-.684-.457Zm0-40.222a.744.744 0 0 0-.683.457.737.737 0 0 0 .16.807.743.743 0 0 0 1.139-.113.74.74 0 0 0-.616-1.151Zm0 20.112a.743.743 0 0 0-.411.124.745.745 0 0 0-.314.76.735.735 0 0 0 .581.581.737.737 0 0 0 .76-.314.745.745 0 0 0-.092-.935.742.742 0 0 0-.524-.216Zm8.709-5.028a.738.738 0 0 0-.524 1.263.748.748 0 0 0 .379.203.747.747 0 0 0 .76-.315.742.742 0 0 0-.615-1.151Zm0 70.388a.74.74 0 0 0-.726.885.743.743 0 0 0 .581.581.745.745 0 0 0 .885-.725.744.744 0 0 0-.74-.741Zm0-80.444a.738.738 0 0 0-.145 1.466.743.743 0 0 0 .885-.726.744.744 0 0 0-.74-.74Zm-8.709 45.25a.744.744 0 0 0-.683.457.737.737 0 0 0 .16.806.745.745 0 0 0 .807.161.738.738 0 0 0 .4-.967.737.737 0 0 0-.684-.457Zm-8.708 75.417a.738.738 0 0 0-.144 1.466.743.743 0 0 0 .759-.315.736.736 0 0 0-.092-.934.735.735 0 0 0-.523-.217Zm-26.125-75.417a.736.736 0 0 0-.684.457.743.743 0 0 0 .54 1.009.743.743 0 0 0 .759-.315.734.734 0 0 0-.092-.934.738.738 0 0 0-.523-.217Zm43.542-25.139a.738.738 0 0 0-.145 1.466.738.738 0 0 0 .885-.726.744.744 0 0 0-.74-.74Zm0 50.278a.731.731 0 0 0-.411.125.733.733 0 0 0-.315.759.735.735 0 0 0 .581.582.743.743 0 0 0 .885-.726.744.744 0 0 0-.74-.74Zm0-10.055a.738.738 0 0 0-.524 1.263.743.743 0 0 0 1.139-.112.745.745 0 0 0-.092-.935.743.743 0 0 0-.523-.216Zm0-20.112a.74.74 0 1 0 0 1.478.74.74 0 0 0 0-1.478Zm0 10.056a.731.731 0 0 0-.411.125.733.733 0 0 0-.315.759.735.735 0 0 0 .581.582.743.743 0 0 0 .885-.726.744.744 0 0 0-.74-.74Zm0-20.111a.738.738 0 0 0-.524 1.263.74.74 0 1 0 .524-1.263Zm0-40.223a.74.74 0 0 0-.726.885.743.743 0 0 0 .581.581.745.745 0 0 0 .885-.725.744.744 0 0 0-.74-.741Zm-17.417 50.278a.74.74 0 1 0 0 1.478.74.74 0 0 0 0-1.478Zm0 10.056a.738.738 0 0 0-.144 1.466.743.743 0 0 0 .759-.315.736.736 0 0 0-.092-.934.735.735 0 0 0-.523-.217Zm0-20.111a.738.738 0 0 0-.144 1.466.743.743 0 0 0 .759-.315.736.736 0 0 0-.092-.934.735.735 0 0 0-.523-.217Zm0-10.056a.74.74 0 1 0 0 1.478.74.74 0 0 0 0-1.478Zm0-10.055a.738.738 0 1 0 .283 1.423.736.736 0 0 0 .457-.683.74.74 0 0 0-.74-.74Zm0 50.278a.738.738 0 0 0-.144 1.465.735.735 0 0 0 .759-.314.737.737 0 0 0-.092-.935.732.732 0 0 0-.523-.216Zm0 50.277a.74.74 0 1 0 0 1.478.74.74 0 0 0 0-1.478Zm0-10.055a.738.738 0 1 0 .283 1.423.736.736 0 0 0 .457-.683.74.74 0 0 0-.74-.74Zm0-20.112a.74.74 0 1 0 0 1.478.74.74 0 0 0 0-1.478Zm0-10.055a.74.74 0 1 0 0 1.478.74.74 0 0 0 0-1.478Zm0 20.111a.74.74 0 1 0 0 1.478.74.74 0 0 0 0-1.478Zm8.708-25.139a.744.744 0 0 0-.683.457.737.737 0 0 0 .16.807.737.737 0 0 0 1.263-.524.725.725 0 0 0-.216-.523.749.749 0 0 0-.524-.217Zm0 50.278a.744.744 0 0 0-.683.457.737.737 0 0 0 .16.806.745.745 0 0 0 .807.161.743.743 0 0 0 .4-.967.737.737 0 0 0-.684-.457Zm0-30.167a.744.744 0 0 0-.683.457.737.737 0 0 0 .16.807.743.743 0 0 0 1.139-.113.738.738 0 0 0-.092-.934.749.749 0 0 0-.524-.217Zm0 10.056a.736.736 0 0 0-.683.457.735.735 0 0 0 .16.806.745.745 0 0 0 .807.161.743.743 0 0 0 .4-.967.737.737 0 0 0-.684-.457Zm-8.708-95.528a.74.74 0 1 0 0 1.478.74.74 0 0 0 0-1.478Zm8.708 75.417a.736.736 0 0 0-.683.457.735.735 0 0 0 .16.806.745.745 0 0 0 .807.161.745.745 0 0 0 .457-.684.741.741 0 0 0-.741-.74Zm0-20.111a.736.736 0 0 0-.683.457.735.735 0 0 0 .16.806.745.745 0 0 0 .379.203.746.746 0 0 0 .76-.315.744.744 0 0 0-.092-.935.749.749 0 0 0-.524-.216Zm0 70.388a.744.744 0 0 0-.683.457.738.738 0 0 0 .539 1.009.738.738 0 0 0 .828-1.009.742.742 0 0 0-.684-.457Zm-8.708-135.75a.74.74 0 1 0 0 1.478.74.74 0 0 0 0-1.478Zm8.708 165.917a.744.744 0 0 0-.683.457.737.737 0 0 0 .16.807.737.737 0 0 0 1.139-.113.74.74 0 0 0-.616-1.151Zm0-10.055a.736.736 0 0 0-.683.457.735.735 0 0 0 .16.806.745.745 0 0 0 .379.203.746.746 0 0 0 .76-.315.744.744 0 0 0-.092-.935.749.749 0 0 0-.524-.216Zm0-10.056a.744.744 0 0 0-.683.457.737.737 0 0 0 .16.806.745.745 0 0 0 .807.161.738.738 0 0 0 .4-.967.737.737 0 0 0-.684-.457Zm0-130.722a.736.736 0 0 0-.683.457.735.735 0 0 0 .16.806.745.745 0 0 0 .807.161.738.738 0 0 0 .4-.967.737.737 0 0 0-.684-.457Zm-60.958 15.083a.744.744 0 0 0-.684.457.743.743 0 0 0 .54 1.009.735.735 0 0 0 .759-.315.74.74 0 0 0-.615-1.151Zm-8.708 65.361a.74.74 0 1 0 0 1.478.74.74 0 0 0 0-1.478Zm0-70.388a.738.738 0 0 0-.144 1.465.735.735 0 0 0 .759-.314.737.737 0 0 0-.092-.935.739.739 0 0 0-.523-.216Zm0-30.167a.738.738 0 0 0-.144 1.466.743.743 0 0 0 .759-.315.736.736 0 0 0-.092-.934.74.74 0 0 0-.523-.217Zm0 40.222a.74.74 0 1 0 0 1.478.74.74 0 0 0 0-1.478Zm8.708 125.695a.743.743 0 0 0-.684.456.746.746 0 0 0 .161.807.735.735 0 0 0 .806.16.737.737 0 0 0 .457-.684.74.74 0 0 0-.74-.739Zm-8.708-115.64a.74.74 0 1 0 0 1.478.74.74 0 0 0 0-1.478Zm0 30.167a.74.74 0 1 0 0 1.478.74.74 0 0 0 0-1.478Zm8.708 75.417a.736.736 0 0 0-.684.457.743.743 0 0 0 .54 1.009.743.743 0 0 0 .759-.315.736.736 0 0 0-.092-.934.738.738 0 0 0-.523-.217Zm26.125-85.472a.743.743 0 0 0-.684.456.746.746 0 0 0 .161.807.743.743 0 0 0 1.263-.523.738.738 0 0 0-.74-.74Zm-34.833-10.056a.74.74 0 1 0 0 1.478.74.74 0 0 0 0-1.478Zm0 10.056a.738.738 0 1 0 .283 1.423.736.736 0 0 0 .457-.683.74.74 0 0 0-.74-.74Zm0-50.278a.738.738 0 0 0-.144 1.466.743.743 0 0 0 .759-.315.736.736 0 0 0-.092-.934.74.74 0 0 0-.523-.217Zm8.708 65.361a.736.736 0 0 0-.684.457.743.743 0 0 0 .54 1.009.743.743 0 0 0 .759-.315.736.736 0 0 0-.092-.934.738.738 0 0 0-.523-.217Zm0-10.055a.743.743 0 0 0-.684.456.746.746 0 0 0 .161.807.735.735 0 0 0 .806.16.737.737 0 0 0 .457-.684.74.74 0 0 0-.74-.739Zm0-10.056a.736.736 0 0 0-.684.457.743.743 0 0 0 .54 1.009.743.743 0 0 0 .759-.315.736.736 0 0 0-.092-.934.738.738 0 0 0-.523-.217Zm0-10.056a.744.744 0 0 0-.684.457.743.743 0 0 0 .54 1.009.735.735 0 0 0 .759-.315.74.74 0 0 0-.615-1.151Zm0-10.055a.743.743 0 0 0-.684.456.747.747 0 0 0 .161.807.737.737 0 0 0 1.138-.112.736.736 0 0 0-.092-.934.738.738 0 0 0-.523-.217Zm0 100.555a.744.744 0 0 0-.684.457.743.743 0 0 0 .54 1.009.735.735 0 0 0 .759-.315.74.74 0 0 0-.615-1.151Zm0-20.111a.744.744 0 0 0-.684.457.743.743 0 0 0 .54 1.009.735.735 0 0 0 .759-.315.74.74 0 0 0-.615-1.151Zm0 10.056a.743.743 0 0 0-.684.456.747.747 0 0 0 .161.807.737.737 0 0 0 1.138-.112.736.736 0 0 0-.092-.934.738.738 0 0 0-.523-.217Zm0-20.111a.743.743 0 0 0-.684.456.746.746 0 0 0 .161.807.743.743 0 0 0 1.263-.523.738.738 0 0 0-.74-.74Zm0-10.056a.736.736 0 0 0-.684.457.743.743 0 0 0 .54 1.009.743.743 0 0 0 .759-.315.734.734 0 0 0-.092-.934.738.738 0 0 0-.523-.217Zm0-10.056a.744.744 0 0 0-.684.457.746.746 0 0 0 .161.807.736.736 0 0 0 .806.16.742.742 0 0 0 .457-.683.74.74 0 0 0-.74-.741Zm-8.708-85.472a.74.74 0 1 0 0 1.478.74.74 0 0 0 0-1.478Zm-8.709 85.472a.744.744 0 0 0-.683.457.738.738 0 0 0 .539 1.009.738.738 0 0 0 .828-1.009.742.742 0 0 0-.684-.457Zm0 10.056a.744.744 0 0 0-.683.457.737.737 0 0 0 .16.806.745.745 0 0 0 .807.161.738.738 0 0 0 .4-.967.737.737 0 0 0-.684-.457Zm0-30.166a.743.743 0 0 0-.411.124.745.745 0 0 0-.314.76.735.735 0 0 0 .581.581.737.737 0 0 0 .76-.314.745.745 0 0 0-.092-.935.742.742 0 0 0-.524-.216Zm0 40.222a.736.736 0 0 0-.683.457.735.735 0 0 0 .16.806.745.745 0 0 0 .379.203.746.746 0 0 0 .76-.315.744.744 0 0 0-.092-.935.749.749 0 0 0-.524-.216Zm0-30.167a.744.744 0 0 0-.683.457.737.737 0 0 0 .16.806.745.745 0 0 0 .807.161.738.738 0 0 0 .4-.967.737.737 0 0 0-.684-.457Zm0 70.389a.736.736 0 0 0-.683.457.735.735 0 0 0 .16.806.745.745 0 0 0 .807.161.738.738 0 0 0 .4-.967.737.737 0 0 0-.684-.457Zm0-100.556a.744.744 0 0 0-.683.457.737.737 0 0 0 .16.807.743.743 0 0 0 1.139-.113.74.74 0 0 0-.616-1.151Zm0 110.612a.743.743 0 0 0-.411.124.745.745 0 0 0-.314.76.735.735 0 0 0 .581.581.737.737 0 0 0 .76-.314.745.745 0 0 0-.092-.935.742.742 0 0 0-.524-.216Zm0-30.167a.736.736 0 0 0-.683.457.735.735 0 0 0 .16.806.738.738 0 0 0 1.139-.112.744.744 0 0 0-.092-.935.749.749 0 0 0-.524-.216Zm0-10.056a.744.744 0 0 0-.683.457.737.737 0 0 0 .16.807.737.737 0 0 0 1.139-.113.74.74 0 0 0-.616-1.151Zm0 20.111a.744.744 0 0 0-.683.457.737.737 0 0 0 .16.807.743.743 0 0 0 1.139-.113.74.74 0 0 0-.616-1.151Zm8.709-15.083a.738.738 0 0 0-.144 1.466.743.743 0 0 0 .759-.315.736.736 0 0 0-.092-.934.74.74 0 0 0-.523-.217Zm0 30.167a.738.738 0 1 0 .283 1.423.736.736 0 0 0 .457-.683.74.74 0 0 0-.74-.74Zm0-10.056a.74.74 0 1 0 0 1.478.74.74 0 0 0 0-1.478Zm0-10.056a.74.74 0 1 0 0 1.478.74.74 0 0 0 0-1.478Zm0-20.11a.738.738 0 0 0-.144 1.465.735.735 0 0 0 .759-.314.737.737 0 0 0-.092-.935.739.739 0 0 0-.523-.216Zm-8.709-75.417a.736.736 0 0 0-.683.457.735.735 0 0 0 .16.806.745.745 0 0 0 .807.161.745.745 0 0 0 .457-.684.741.741 0 0 0-.741-.74Zm8.709 65.361a.738.738 0 0 0-.144 1.466.743.743 0 0 0 .759-.315.736.736 0 0 0-.092-.934.74.74 0 0 0-.523-.217Zm-8.709-85.472a.736.736 0 0 0-.683.457.735.735 0 0 0 .16.806.745.745 0 0 0 .379.203.746.746 0 0 0 .76-.315.744.744 0 0 0-.092-.935.749.749 0 0 0-.524-.216Zm0 10.055a.744.744 0 0 0-.683.457.737.737 0 0 0 .16.807.737.737 0 0 0 1.139-.113.74.74 0 0 0-.616-1.151Zm8.709 135.75a.74.74 0 1 0 0 1.478.74.74 0 0 0 0-1.478Zm-8.709-165.917a.744.744 0 0 0-.683.457.738.738 0 0 0 .539 1.009.738.738 0 0 0 .828-1.009.742.742 0 0 0-.684-.457Zm0 10.056a.744.744 0 0 0-.683.457.737.737 0 0 0 .16.806.745.745 0 0 0 .807.161.738.738 0 0 0 .4-.967.737.737 0 0 0-.684-.457Zm8.709 75.417a.738.738 0 0 0-.144 1.466.743.743 0 0 0 .759-.315.736.736 0 0 0-.092-.934.74.74 0 0 0-.523-.217Zm26.125-45.25a.738.738 0 0 0-.524 1.263.745.745 0 0 0 .807.161.743.743 0 0 0 .457-.684.744.744 0 0 0-.74-.74Zm0 90.5a.738.738 0 0 0-.524 1.263.745.745 0 0 0 .807.161.743.743 0 0 0 .457-.684.742.742 0 0 0-.74-.74Zm0-70.389a.731.731 0 0 0-.411.125.733.733 0 0 0-.315.759.735.735 0 0 0 .581.582.743.743 0 0 0 .885-.726.744.744 0 0 0-.74-.74Zm0-30.167a.738.738 0 0 0-.145 1.466.738.738 0 0 0 .885-.726.744.744 0 0 0-.74-.74Zm0-10.055a.738.738 0 0 0-.524 1.263.752.752 0 0 0 .379.203.747.747 0 0 0 .76-.315.742.742 0 0 0-.615-1.151Zm0 50.278a.738.738 0 0 0-.524 1.263.743.743 0 0 0 1.139-.112.745.745 0 0 0-.092-.935.743.743 0 0 0-.523-.216Zm0 10.055a.731.731 0 0 0-.411.125.733.733 0 0 0-.315.759.735.735 0 0 0 .581.582.743.743 0 0 0 .885-.726.744.744 0 0 0-.74-.74Zm0 30.167a.738.738 0 0 0-.524 1.263.752.752 0 0 0 .379.203.747.747 0 0 0 .76-.315.742.742 0 0 0-.615-1.151Zm0 10.055a.738.738 0 0 0-.145 1.466.738.738 0 0 0 .885-.726.744.744 0 0 0-.74-.74Zm0-30.167a.74.74 0 0 0-.726.885.743.743 0 0 0 .581.581.745.745 0 0 0 .885-.725.744.744 0 0 0-.74-.741Zm0-80.444a.738.738 0 0 0-.145 1.466.743.743 0 0 0 .885-.726.744.744 0 0 0-.74-.74Zm0 90.5a.738.738 0 0 0-.145 1.466.743.743 0 0 0 .885-.726.744.744 0 0 0-.74-.74Zm0-50.278a.74.74 0 1 0 0 1.478.74.74 0 0 0 0-1.478Zm0-50.278a.74.74 0 0 0-.726.885.743.743 0 0 0 .581.581.745.745 0 0 0 .885-.725.744.744 0 0 0-.74-.741Zm8.708 105.584a.736.736 0 0 0-.684.457.743.743 0 0 0 .54 1.009.743.743 0 0 0 .759-.315.736.736 0 0 0-.092-.934.738.738 0 0 0-.523-.217Zm0 10.056a.743.743 0 0 0-.684.456.746.746 0 0 0 .161.807.735.735 0 0 0 .806.16.737.737 0 0 0 .457-.684.74.74 0 0 0-.74-.739Zm0-40.223a.744.744 0 0 0-.684.457.743.743 0 0 0 .54 1.009.735.735 0 0 0 .759-.315.74.74 0 0 0-.615-1.151Zm0 10.056a.743.743 0 0 0-.684.456.747.747 0 0 0 .161.807.737.737 0 0 0 1.138-.112.736.736 0 0 0-.092-.934.738.738 0 0 0-.523-.217Zm0 10.055a.744.744 0 0 0-.684.457.743.743 0 0 0 .54 1.009.735.735 0 0 0 .759-.315.74.74 0 0 0-.615-1.151Zm0 30.167a.736.736 0 0 0-.684.457.743.743 0 0 0 .54 1.009.743.743 0 0 0 .759-.315.736.736 0 0 0-.092-.934.738.738 0 0 0-.523-.217Zm0 30.167a.743.743 0 0 0-.684.456.746.746 0 0 0 .161.807.743.743 0 0 0 1.263-.523.738.738 0 0 0-.74-.74Zm0 10.055a.736.736 0 0 0-.684.457.743.743 0 0 0 .54 1.009.735.735 0 0 0 .759-.315.74.74 0 0 0-.615-1.151Zm0-30.167a.744.744 0 0 0-.684.457.746.746 0 0 0 .161.807.736.736 0 0 0 .806.16.742.742 0 0 0 .457-.683.74.74 0 0 0-.74-.741Zm0 10.056a.736.736 0 0 0-.684.457.743.743 0 0 0 .54 1.009.743.743 0 0 0 .759-.315.734.734 0 0 0-.092-.934.738.738 0 0 0-.523-.217Zm-17.417-10.056a.744.744 0 0 0-.683.457.738.738 0 0 0 .539 1.009.738.738 0 0 0 .828-1.009.742.742 0 0 0-.684-.457Zm0-20.11a.743.743 0 0 0-.411.124.745.745 0 0 0-.314.76.735.735 0 0 0 .581.581.737.737 0 0 0 .76-.314.745.745 0 0 0-.092-.935.742.742 0 0 0-.524-.216Zm0 10.055a.744.744 0 0 0-.683.457.737.737 0 0 0 .16.806.745.745 0 0 0 .807.161.738.738 0 0 0 .4-.967.745.745 0 0 0-.684-.457Zm0-40.222a.736.736 0 0 0-.683.457.735.735 0 0 0 .16.806.745.745 0 0 0 .807.161.745.745 0 0 0 .457-.684.741.741 0 0 0-.741-.74Zm0 10.055a.744.744 0 0 0-.683.457.737.737 0 0 0 .16.807.743.743 0 0 0 1.139-.113.74.74 0 0 0-.616-1.151Zm-8.708-75.416a.743.743 0 0 0-.684.456.746.746 0 0 0 .161.807.743.743 0 0 0 1.263-.523.738.738 0 0 0-.74-.74Zm8.708 85.472a.736.736 0 0 0-.683.457.735.735 0 0 0 .16.806.745.745 0 0 0 .807.161.738.738 0 0 0 .4-.967.737.737 0 0 0-.684-.457Zm-8.708-95.528a.736.736 0 0 0-.684.457.743.743 0 0 0 .54 1.009.743.743 0 0 0 .759-.315.734.734 0 0 0-.092-.934.738.738 0 0 0-.523-.217Zm0-10.056a.744.744 0 0 0-.684.457.746.746 0 0 0 .161.807.736.736 0 0 0 .806.16.742.742 0 0 0 .457-.683.74.74 0 0 0-.74-.741Zm8.708 145.806a.744.744 0 0 0-.683.457.737.737 0 0 0 .16.806.745.745 0 0 0 .807.161.738.738 0 0 0 .4-.967.737.737 0 0 0-.684-.457Zm0 10.056a.736.736 0 0 0-.683.457.735.735 0 0 0 .16.806.745.745 0 0 0 .379.203.746.746 0 0 0 .76-.315.744.744 0 0 0-.092-.935.749.749 0 0 0-.524-.216Zm0 10.055a.744.744 0 0 0-.683.457.737.737 0 0 0 .16.807.737.737 0 0 0 1.139-.113.74.74 0 0 0-.616-1.151Zm0-150.833a.736.736 0 0 0-.683.457.735.735 0 0 0 .16.806.745.745 0 0 0 .807.161.738.738 0 0 0 .4-.967.737.737 0 0 0-.684-.457Zm8.709 125.694a.74.74 0 1 0 0 1.478.74.74 0 0 0 0-1.478Zm-8.709-145.805a.736.736 0 0 0-.683.457.735.735 0 0 0 .16.806.745.745 0 0 0 .807.161.745.745 0 0 0 .457-.684.741.741 0 0 0-.741-.74Zm0 10.055a.744.744 0 0 0-.683.457.737.737 0 0 0 .16.807.743.743 0 0 0 1.139-.113.74.74 0 0 0-.616-1.151Zm8.709 145.806a.731.731 0 0 0-.411.125.733.733 0 0 0-.315.759.735.735 0 0 0 .581.582.743.743 0 0 0 .885-.726.744.744 0 0 0-.74-.74Zm0 10.056a.738.738 0 0 0-.524 1.263.743.743 0 0 0 1.139-.112.745.745 0 0 0-.092-.935.743.743 0 0 0-.523-.216Zm-8.709-115.64a.744.744 0 0 0-.683.457.738.738 0 0 0 .539 1.009.738.738 0 0 0 .828-1.009.742.742 0 0 0-.684-.457Zm0 10.056a.744.744 0 0 0-.683.457.737.737 0 0 0 .16.806.745.745 0 0 0 .807.161.738.738 0 0 0 .4-.967.737.737 0 0 0-.684-.457Zm0 10.056a.736.736 0 0 0-.683.457.735.735 0 0 0 .16.806.745.745 0 0 0 .379.203.746.746 0 0 0 .76-.315.744.744 0 0 0-.092-.935.749.749 0 0 0-.524-.216Zm0 10.055a.744.744 0 0 0-.683.457.737.737 0 0 0 .16.807.737.737 0 0 0 1.139-.113.74.74 0 0 0-.616-1.151Zm0-40.222a.744.744 0 0 0-.683.457.737.737 0 0 0 .16.806.745.745 0 0 0 .807.161.738.738 0 0 0 .4-.967.745.745 0 0 0-.684-.457Zm0-10.055a.743.743 0 0 0-.411.124.745.745 0 0 0-.314.76.735.735 0 0 0 .581.581.737.737 0 0 0 .76-.314.745.745 0 0 0-.092-.935.742.742 0 0 0-.524-.216Zm-26.125 35.194a.736.736 0 0 0-.683.457.735.735 0 0 0 .16.806.745.745 0 0 0 .807.161.738.738 0 0 0 .4-.967.737.737 0 0 0-.684-.457Zm156.75-30.167a.744.744 0 0 0-.683.457.737.737 0 0 0 .16.807.737.737 0 0 0 1.139-.113.74.74 0 0 0-.616-1.151Zm0-20.111a.744.744 0 0 0-.683.457.737.737 0 0 0 .16.806.745.745 0 0 0 .807.161.738.738 0 0 0 .4-.967.745.745 0 0 0-.684-.457Zm0 10.056a.736.736 0 0 0-.683.457.735.735 0 0 0 .16.806.745.745 0 0 0 .379.203.746.746 0 0 0 .76-.315.744.744 0 0 0-.092-.935.749.749 0 0 0-.524-.216Zm0-20.112a.744.744 0 0 0-.683.457.738.738 0 0 0 .539 1.009.738.738 0 0 0 .828-1.009.742.742 0 0 0-.684-.457Zm8.709 165.917a.738.738 0 0 0-.145 1.466.738.738 0 0 0 .885-.726.744.744 0 0 0-.74-.74Zm0-10.055a.738.738 0 0 0-.524 1.263.752.752 0 0 0 .379.203.747.747 0 0 0 .76-.315.742.742 0 0 0-.615-1.151Zm-8.709-115.639a.736.736 0 0 0-.683.457.735.735 0 0 0 .16.806.745.745 0 0 0 .807.161.745.745 0 0 0 .457-.684.741.741 0 0 0-.741-.74Zm0 40.222a.744.744 0 0 0-.683.457.737.737 0 0 0 .16.806.745.745 0 0 0 .807.161.738.738 0 0 0 .4-.967.745.745 0 0 0-.684-.457Zm0 10.055a.744.744 0 0 0-.683.457.738.738 0 0 0 .539 1.009.738.738 0 0 0 .828-1.009.742.742 0 0 0-.684-.457Zm8.709 55.306a.738.738 0 0 0-.145 1.466.743.743 0 0 0 .885-.726.744.744 0 0 0-.74-.74Zm0-140.778a.74.74 0 1 0 0 1.478.74.74 0 0 0 0-1.478Zm-8.709 45.25a.744.744 0 0 0-.683.457.737.737 0 0 0 .16.807.743.743 0 0 0 1.139-.113.74.74 0 0 0-.616-1.151Zm0 10.056a.736.736 0 0 0-.683.457.735.735 0 0 0 .16.806.745.745 0 0 0 .807.161.738.738 0 0 0 .4-.967.745.745 0 0 0-.684-.457Zm8.709 45.25a.731.731 0 0 0-.411.125.733.733 0 0 0-.315.759.735.735 0 0 0 .581.582.743.743 0 0 0 .885-.726.744.744 0 0 0-.74-.74Zm0-70.389a.731.731 0 0 0-.411.125.733.733 0 0 0-.315.759.735.735 0 0 0 .581.582.743.743 0 0 0 .885-.726.744.744 0 0 0-.74-.74Zm0 10.055a.74.74 0 0 0-.726.885.743.743 0 0 0 .581.581.745.745 0 0 0 .885-.725.744.744 0 0 0-.74-.741Zm0 10.056a.738.738 0 0 0-.145 1.466.743.743 0 0 0 .885-.726.744.744 0 0 0-.74-.74Zm0-30.166a.738.738 0 0 0-.524 1.263.743.743 0 0 0 1.139-.112.745.745 0 0 0-.092-.935.743.743 0 0 0-.523-.216Zm0-10.056a.731.731 0 0 0-.411.125.733.733 0 0 0-.315.759.735.735 0 0 0 .581.582.743.743 0 0 0 .885-.726.744.744 0 0 0-.74-.74Zm0 50.278a.738.738 0 0 0-.524 1.263.752.752 0 0 0 .379.203.747.747 0 0 0 .76-.315.742.742 0 0 0-.615-1.151Zm0 60.333a.731.731 0 0 0-.411.125.733.733 0 0 0-.315.759.735.735 0 0 0 .581.582.743.743 0 0 0 .885-.726.744.744 0 0 0-.74-.74Zm-8.709-25.139a.744.744 0 0 0-.683.457.737.737 0 0 0 .16.806.745.745 0 0 0 .807.161.738.738 0 0 0 .4-.967.745.745 0 0 0-.684-.457Zm8.709-25.139a.738.738 0 0 0-.145 1.466.738.738 0 0 0 .885-.726.744.744 0 0 0-.74-.74Zm0 60.333a.74.74 0 0 0-.726.885.743.743 0 0 0 .581.581.745.745 0 0 0 .885-.725.744.744 0 0 0-.74-.741Zm0-20.11a.738.738 0 0 0-.524 1.263.743.743 0 0 0 1.139-.112.745.745 0 0 0-.092-.935.743.743 0 0 0-.523-.216Zm0-30.167a.738.738 0 0 0-.524 1.263.745.745 0 0 0 .807.161.743.743 0 0 0 .457-.684.744.744 0 0 0-.74-.74Zm0 10.055a.74.74 0 1 0 0 1.478.74.74 0 0 0 0-1.478Zm-8.709-25.138a.743.743 0 0 0-.411.124.745.745 0 0 0-.314.76.735.735 0 0 0 .581.581.737.737 0 0 0 .76-.314.745.745 0 0 0-.092-.935.742.742 0 0 0-.524-.216Zm-8.708 35.194a.738.738 0 0 0-.144 1.466.743.743 0 0 0 .759-.315.736.736 0 0 0-.092-.934.735.735 0 0 0-.523-.217Zm0 20.111a.738.738 0 0 0-.144 1.466.743.743 0 0 0 .759-.315.736.736 0 0 0-.092-.934.735.735 0 0 0-.523-.217Zm0-30.167a.74.74 0 1 0 0 1.478.74.74 0 0 0 0-1.478Zm0 20.112a.738.738 0 0 0-.144 1.465.735.735 0 0 0 .759-.314.737.737 0 0 0-.092-.935.732.732 0 0 0-.523-.216Zm0-40.223a.74.74 0 1 0 0 1.478.74.74 0 0 0 0-1.478Zm0-10.055a.738.738 0 1 0 .283 1.423.736.736 0 0 0 .457-.683.74.74 0 0 0-.74-.74Zm0 20.111a.738.738 0 0 0-.144 1.466.743.743 0 0 0 .759-.315.736.736 0 0 0-.092-.934.735.735 0 0 0-.523-.217Zm-8.708-85.473a.74.74 0 0 0-.726.885.743.743 0 0 0 .581.581.745.745 0 0 0 .885-.725.744.744 0 0 0-.74-.741Zm0 10.056a.738.738 0 0 0-.145 1.466.743.743 0 0 0 .885-.726.744.744 0 0 0-.74-.74Zm8.708 155.861a.74.74 0 1 0 0 1.478.74.74 0 0 0 0-1.478Zm0-20.111a.74.74 0 1 0 0 1.478.74.74 0 0 0 0-1.478Zm0-10.056a.74.74 0 1 0 0 1.478.74.74 0 0 0 0-1.478Zm8.708-25.138a.736.736 0 0 0-.683.457.735.735 0 0 0 .16.806.745.745 0 0 0 .379.203.746.746 0 0 0 .76-.315.744.744 0 0 0-.092-.935.749.749 0 0 0-.524-.216Zm-8.708 45.25a.738.738 0 1 0 .283 1.423.736.736 0 0 0 .457-.683.74.74 0 0 0-.74-.74Zm8.708-5.028a.736.736 0 0 0-.683.457.735.735 0 0 0 .16.806.745.745 0 0 0 .807.161.738.738 0 0 0 .4-.967.745.745 0 0 0-.684-.457Zm-8.708-95.528a.74.74 0 1 0 0 1.478.74.74 0 0 0 0-1.478Zm8.708 105.584a.743.743 0 0 0-.411.124.745.745 0 0 0-.314.76.735.735 0 0 0 .581.581.737.737 0 0 0 .76-.314.745.745 0 0 0-.092-.935.742.742 0 0 0-.524-.216Zm0-40.223a.744.744 0 0 0-.683.457.737.737 0 0 0 .16.807.737.737 0 0 0 1.139-.113.74.74 0 0 0-.616-1.151Zm-8.708-125.694a.738.738 0 0 0-.144 1.466.743.743 0 0 0 .759-.315.736.736 0 0 0-.092-.934.735.735 0 0 0-.523-.217Zm-8.708 25.139a.738.738 0 0 0-.524 1.263.752.752 0 0 0 .379.203.747.747 0 0 0 .76-.315.742.742 0 0 0-.615-1.151Zm17.416 120.666a.744.744 0 0 0-.683.457.737.737 0 0 0 .16.807.743.743 0 0 0 1.139-.113.74.74 0 0 0-.616-1.151ZM365.75 151.51a.738.738 0 0 0-.144 1.466.743.743 0 0 0 .759-.315.736.736 0 0 0-.092-.934.735.735 0 0 0-.523-.217Zm0 10.055a.74.74 0 1 0 0 1.478.74.74 0 0 0 0-1.478Zm0-30.166a.738.738 0 0 0-.144 1.466.743.743 0 0 0 .759-.315.736.736 0 0 0-.092-.934.735.735 0 0 0-.523-.217Zm0 10.056a.738.738 0 0 0-.144 1.465.735.735 0 0 0 .759-.314.737.737 0 0 0-.092-.935.732.732 0 0 0-.523-.216Zm0-20.112a.74.74 0 1 0 0 1.478.74.74 0 0 0 0-1.478Zm8.708 125.695a.736.736 0 0 0-.683.457.735.735 0 0 0 .16.806.738.738 0 0 0 1.139-.112.744.744 0 0 0-.092-.935.749.749 0 0 0-.524-.216Zm34.834 30.167a.738.738 0 0 0-.524 1.263.743.743 0 0 0 1.139-.112.745.745 0 0 0-.092-.935.743.743 0 0 0-.523-.216Zm0-10.056a.731.731 0 0 0-.411.125.733.733 0 0 0-.315.759.735.735 0 0 0 .581.582.743.743 0 0 0 .885-.726.744.744 0 0 0-.74-.74Zm-8.709-155.861a.736.736 0 0 0-.683.457.735.735 0 0 0 .16.806.738.738 0 0 0 1.139-.112.744.744 0 0 0-.092-.935.749.749 0 0 0-.524-.216Zm8.709 125.694a.738.738 0 0 0-.145 1.466.738.738 0 0 0 .885-.726.744.744 0 0 0-.74-.74Zm0 10.056a.738.738 0 0 0-.524 1.263.745.745 0 0 0 .807.161.743.743 0 0 0 .457-.684.742.742 0 0 0-.74-.74Zm-8.709-125.695a.744.744 0 0 0-.683.457.737.737 0 0 0 .16.807.743.743 0 0 0 1.139-.113.74.74 0 0 0-.616-1.151Zm8.709 135.75a.74.74 0 1 0 0 1.478.74.74 0 0 0 0-1.478Zm-8.709-85.472a.744.744 0 0 0-.683.457.737.737 0 0 0 .16.806.745.745 0 0 0 .807.161.738.738 0 0 0 .4-.967.737.737 0 0 0-.684-.457Zm0-40.222a.736.736 0 0 0-.683.457.735.735 0 0 0 .16.806.745.745 0 0 0 .807.161.738.738 0 0 0 .4-.967.737.737 0 0 0-.684-.457Zm0 50.278a.736.736 0 0 0-.683.457.735.735 0 0 0 .16.806.745.745 0 0 0 .379.203.746.746 0 0 0 .76-.315.744.744 0 0 0-.092-.935.749.749 0 0 0-.524-.216Zm0-20.112a.744.744 0 0 0-.683.457.738.738 0 0 0 .539 1.009.738.738 0 0 0 .828-1.009.742.742 0 0 0-.684-.457Zm0-10.055a.744.744 0 0 0-.683.457.737.737 0 0 0 .16.806.745.745 0 0 0 .807.161.738.738 0 0 0 .4-.967.745.745 0 0 0-.684-.457Zm0-10.055a.743.743 0 0 0-.411.124.745.745 0 0 0-.314.76.735.735 0 0 0 .581.581.737.737 0 0 0 .76-.314.745.745 0 0 0-.092-.935.742.742 0 0 0-.524-.216Zm8.709-15.084a.738.738 0 0 0-.145 1.466.743.743 0 0 0 .885-.726.744.744 0 0 0-.74-.74Zm0 20.111a.738.738 0 0 0-.145 1.466.738.738 0 0 0 .885-.726.744.744 0 0 0-.74-.74Zm0 20.111a.74.74 0 1 0 0 1.478.74.74 0 0 0 0-1.478Zm0-10.055a.738.738 0 0 0-.524 1.263.745.745 0 0 0 .807.161.743.743 0 0 0 .457-.684.742.742 0 0 0-.74-.74Zm0-20.111a.738.738 0 0 0-.524 1.263.752.752 0 0 0 .379.203.747.747 0 0 0 .76-.315.742.742 0 0 0-.615-1.151Zm-8.709 55.305a.744.744 0 0 0-.683.457.737.737 0 0 0 .16.807.737.737 0 0 0 1.139-.113.74.74 0 0 0-.616-1.151Zm8.709 35.195a.738.738 0 0 0-.524 1.263.752.752 0 0 0 .379.203.747.747 0 0 0 .76-.315.742.742 0 0 0-.615-1.151Zm0-110.612a.74.74 0 0 0-.726.885.743.743 0 0 0 .581.581.745.745 0 0 0 .885-.725.744.744 0 0 0-.74-.741Zm0 90.5a.74.74 0 0 0-.726.885.743.743 0 0 0 .581.581.745.745 0 0 0 .885-.725.744.744 0 0 0-.74-.741Zm0-30.166a.731.731 0 0 0-.411.125.733.733 0 0 0-.315.759.735.735 0 0 0 .581.582.743.743 0 0 0 .885-.726.744.744 0 0 0-.74-.74Zm0 40.222a.738.738 0 0 0-.145 1.466.743.743 0 0 0 .885-.726.744.744 0 0 0-.74-.74Zm0-20.111a.731.731 0 0 0-.411.125.733.733 0 0 0-.315.759.735.735 0 0 0 .581.582.743.743 0 0 0 .885-.726.744.744 0 0 0-.74-.74Zm0-10.055a.738.738 0 0 0-.524 1.263.743.743 0 0 0 1.139-.112.745.745 0 0 0-.092-.935.743.743 0 0 0-.523-.216Zm-17.417-70.39a.74.74 0 1 0 0 1.478.74.74 0 0 0 0-1.478Zm0 70.39a.738.738 0 0 0-.144 1.465.735.735 0 0 0 .759-.314.737.737 0 0 0-.092-.935.732.732 0 0 0-.523-.216Zm0 10.055a.738.738 0 0 0-.144 1.466.743.743 0 0 0 .759-.315.736.736 0 0 0-.092-.934.724.724 0 0 0-.523-.217Zm0 10.055a.74.74 0 1 0 0 1.478.74.74 0 0 0 0-1.478Zm0-30.166a.738.738 0 0 0-.144 1.466.743.743 0 0 0 .759-.315.736.736 0 0 0-.092-.934.724.724 0 0 0-.523-.217Zm0-10.056a.74.74 0 1 0 0 1.478.74.74 0 0 0 0-1.478Zm0 50.278a.74.74 0 1 0 0 1.478.74.74 0 0 0 0-1.478Zm0 20.111a.74.74 0 1 0 0 1.478.74.74 0 0 0 0-1.478Zm0 30.167a.738.738 0 0 0-.144 1.466.743.743 0 0 0 .759-.315.736.736 0 0 0-.092-.934.724.724 0 0 0-.523-.217Zm8.708-65.361a.736.736 0 0 0-.683.457.735.735 0 0 0 .16.806.745.745 0 0 0 .807.161.745.745 0 0 0 .457-.684.741.741 0 0 0-.741-.74Zm-8.708 55.305a.74.74 0 1 0 0 1.478.74.74 0 0 0 0-1.478Zm0-10.055a.738.738 0 0 0-.144 1.466.736.736 0 0 0 .884-.726.74.74 0 0 0-.74-.74Zm0-90.5a.738.738 0 0 0-.144 1.466.743.743 0 0 0 .759-.315.736.736 0 0 0-.092-.935.737.737 0 0 0-.523-.216Zm0 70.389a.738.738 0 1 0 .283 1.423.736.736 0 0 0 .457-.683.749.749 0 0 0-.217-.524.737.737 0 0 0-.523-.216Zm0 50.278a.738.738 0 0 0-.144 1.465.735.735 0 0 0 .759-.314.737.737 0 0 0-.092-.935.732.732 0 0 0-.523-.216Zm8.708-15.084a.744.744 0 0 0-.683.457.737.737 0 0 0 .16.806.745.745 0 0 0 .807.161.738.738 0 0 0 .4-.967.737.737 0 0 0-.684-.457Zm0-20.111a.736.736 0 0 0-.683.457.737.737 0 0 0 .16.806.745.745 0 0 0 .807.161.738.738 0 0 0 .4-.967.737.737 0 0 0-.684-.457Zm0 10.055a.744.744 0 0 0-.683.457.738.738 0 0 0 .539 1.009.738.738 0 0 0 .828-1.009.742.742 0 0 0-.684-.457Zm0-20.11a.743.743 0 0 0-.411.124.745.745 0 0 0-.314.76.735.735 0 0 0 .581.581.737.737 0 0 0 .76-.315.74.74 0 0 0-.616-1.15Zm0-10.056a.736.736 0 0 0-.683.457.735.735 0 0 0 .16.806.745.745 0 0 0 .807.161.738.738 0 0 0 .4-.967.737.737 0 0 0-.684-.457Zm0-10.056a.744.744 0 0 0-.683.457.737.737 0 0 0 .16.807.743.743 0 0 0 1.139-.113.74.74 0 0 0-.616-1.151Zm-8.708-75.416a.738.738 0 1 0 .283 1.423.736.736 0 0 0 .457-.683.749.749 0 0 0-.217-.524.737.737 0 0 0-.523-.216Zm8.708 135.75a.736.736 0 0 0-.683.457.735.735 0 0 0 .16.806.745.745 0 0 0 .379.203.746.746 0 0 0 .76-.315.744.744 0 0 0-.092-.935.749.749 0 0 0-.524-.216Zm-8.708-125.695a.74.74 0 1 0 0 1.478.74.74 0 0 0 0-1.478Zm0-20.111a.74.74 0 1 0 0 1.478.74.74 0 0 0 0-1.478Zm8.708 155.861a.744.744 0 0 0-.683.457.737.737 0 0 0 .16.807.737.737 0 0 0 1.139-.113.74.74 0 0 0-.616-1.151Zm-17.416-170.944a.738.738 0 0 0-.524 1.263.745.745 0 0 0 .807.161.743.743 0 0 0 .457-.684.742.742 0 0 0-.74-.74Zm-52.25 120.667a.738.738 0 0 0-.524 1.263.743.743 0 0 0 1.139-.112.745.745 0 0 0-.092-.935.743.743 0 0 0-.523-.216Zm0 50.277a.738.738 0 0 0-.145 1.466.738.738 0 0 0 .885-.726.744.744 0 0 0-.74-.74Zm0-10.055a.738.738 0 0 0-.524 1.263.748.748 0 0 0 .379.203.747.747 0 0 0 .76-.315.742.742 0 0 0-.615-1.151Zm-8.709-155.862a.744.744 0 0 0-.683.457.738.738 0 0 0 .539 1.009.738.738 0 0 0 .828-1.009.742.742 0 0 0-.684-.457Zm0 10.056a.744.744 0 0 0-.683.457.737.737 0 0 0 .16.806.745.745 0 0 0 .807.161.738.738 0 0 0 .4-.967.737.737 0 0 0-.684-.457Zm8.709 135.75a.738.738 0 0 0-.145 1.466.743.743 0 0 0 .885-.726.744.744 0 0 0-.74-.74Zm0-10.056a.74.74 0 0 0-.726.885.743.743 0 0 0 .581.581.745.745 0 0 0 .885-.725.744.744 0 0 0-.74-.741Zm-8.709-85.472a.744.744 0 0 0-.683.457.737.737 0 0 0 .16.807.743.743 0 0 0 1.139-.113.74.74 0 0 0-.616-1.151Zm0-30.166a.736.736 0 0 0-.683.457.735.735 0 0 0 .16.806.745.745 0 0 0 .379.203.746.746 0 0 0 .76-.315.744.744 0 0 0-.092-.935.749.749 0 0 0-.524-.216Zm0 40.222a.736.736 0 0 0-.683.457.735.735 0 0 0 .16.806.745.745 0 0 0 .807.161.738.738 0 0 0 .4-.967.737.737 0 0 0-.684-.457Zm0 10.056a.743.743 0 0 0-.411.124.745.745 0 0 0-.314.76.735.735 0 0 0 .581.581.737.737 0 0 0 .76-.314.745.745 0 0 0-.092-.935.742.742 0 0 0-.524-.216Zm8.709 55.305a.731.731 0 0 0-.411.125.733.733 0 0 0-.315.759.735.735 0 0 0 .581.582.743.743 0 0 0 .885-.726.744.744 0 0 0-.74-.74Zm-8.709-45.25a.744.744 0 0 0-.683.457.737.737 0 0 0 .16.806.745.745 0 0 0 .807.161.738.738 0 0 0 .4-.967.737.737 0 0 0-.684-.457Zm0-50.278a.744.744 0 0 0-.683.457.737.737 0 0 0 .16.807.737.737 0 0 0 1.139-.113.74.74 0 0 0-.616-1.151Zm0 10.056a.736.736 0 0 0-.683.457.735.735 0 0 0 .16.806.745.745 0 0 0 .807.161.745.745 0 0 0 .457-.684.741.741 0 0 0-.741-.74Zm8.709-5.028a.731.731 0 0 0-.411.125.733.733 0 0 0-.315.759.735.735 0 0 0 .581.582.743.743 0 0 0 .885-.726.744.744 0 0 0-.74-.74Zm0-10.055a.738.738 0 0 0-.524 1.263.743.743 0 0 0 1.139-.112.745.745 0 0 0-.092-.935.743.743 0 0 0-.523-.216Zm0 30.166a.738.738 0 0 0-.145 1.466.743.743 0 0 0 .885-.726.744.744 0 0 0-.74-.74Zm0-10.056a.74.74 0 0 0-.726.885.743.743 0 0 0 .581.581.745.745 0 0 0 .885-.725.744.744 0 0 0-.74-.741Zm0-40.222a.74.74 0 1 0 0 1.478.74.74 0 0 0 0-1.478Zm0 10.056a.731.731 0 0 0-.411.125.733.733 0 0 0-.315.759.735.735 0 0 0 .581.582.743.743 0 0 0 .885-.726.744.744 0 0 0-.74-.74ZM313.5 282.232a.74.74 0 1 0 0 1.478.74.74 0 0 0 0-1.478Zm17.417-70.389a.74.74 0 1 0 0 1.478.74.74 0 0 0 0-1.478Zm0-30.166a.738.738 0 0 0-.524 1.263.748.748 0 0 0 .379.203.747.747 0 0 0 .76-.315.742.742 0 0 0-.615-1.151Zm0 40.222a.731.731 0 0 0-.411.125.733.733 0 0 0-.315.759.735.735 0 0 0 .581.582.743.743 0 0 0 .885-.726.744.744 0 0 0-.74-.74Zm0-20.111a.738.738 0 0 0-.524 1.263.74.74 0 1 0 .524-1.263Zm0-10.056a.738.738 0 0 0-.145 1.466.738.738 0 0 0 .885-.726.744.744 0 0 0-.74-.74Zm-8.709 55.306a.736.736 0 0 0-.683.457.735.735 0 0 0 .16.806.738.738 0 0 0 1.139-.112.744.744 0 0 0-.092-.935.749.749 0 0 0-.524-.216Zm-8.708-55.306a.74.74 0 1 0 0 1.478.74.74 0 0 0 0-1.478Zm0 10.056a.738.738 0 0 0-.144 1.466.743.743 0 0 0 .759-.315.736.736 0 0 0-.092-.934.735.735 0 0 0-.523-.217Zm0 10.055a.74.74 0 1 0 0 1.478.74.74 0 0 0 0-1.478Zm0 10.056a.738.738 0 0 0-.144 1.466.743.743 0 0 0 .759-.315.736.736 0 0 0-.092-.934.735.735 0 0 0-.523-.217Zm0-40.222a.738.738 0 1 0 .283 1.423.736.736 0 0 0 .457-.683.74.74 0 0 0-.74-.74Zm0-10.056a.74.74 0 1 0 0 1.478.74.74 0 0 0 0-1.478Zm0 80.444a.74.74 0 1 0 0 1.478.74.74 0 0 0 0-1.478Zm0-20.11a.738.738 0 0 0-.144 1.465.735.735 0 0 0 .759-.314.737.737 0 0 0-.092-.935.732.732 0 0 0-.523-.216Zm0 30.166a.74.74 0 1 0 0 1.478.74.74 0 0 0 0-1.478Zm0 10.056a.738.738 0 1 0 .283 1.423.736.736 0 0 0 .457-.683.74.74 0 0 0-.74-.74Zm0-30.167a.738.738 0 0 0-.144 1.466.743.743 0 0 0 .759-.315.736.736 0 0 0-.092-.934.735.735 0 0 0-.523-.217Zm0-80.445a.74.74 0 1 0 0 1.478.74.74 0 0 0 0-1.478Zm0-10.055a.74.74 0 1 0 0 1.478.74.74 0 0 0 0-1.478Zm8.708 115.639a.736.736 0 0 0-.683.457.735.735 0 0 0 .16.806.745.745 0 0 0 .807.161.738.738 0 0 0 .4-.967.737.737 0 0 0-.684-.457Zm0-30.167a.744.744 0 0 0-.683.457.737.737 0 0 0 .16.807.737.737 0 0 0 1.139-.113.74.74 0 0 0-.616-1.151Zm0-30.167a.744.744 0 0 0-.683.457.738.738 0 0 0 .539 1.009.738.738 0 0 0 .828-1.009.742.742 0 0 0-.684-.457Zm8.709-95.527a.738.738 0 0 0-.524 1.263.74.74 0 1 0 .524-1.263Zm-8.709 115.639a.736.736 0 0 0-.683.457.735.735 0 0 0 .16.806.745.745 0 0 0 .379.203.746.746 0 0 0 .76-.315.744.744 0 0 0-.092-.935.749.749 0 0 0-.524-.216Zm0-10.056a.744.744 0 0 0-.683.457.737.737 0 0 0 .16.806.745.745 0 0 0 .807.161.738.738 0 0 0 .4-.967.737.737 0 0 0-.684-.457Zm0 40.222a.744.744 0 0 0-.683.457.737.737 0 0 0 .16.807.743.743 0 0 0 1.139-.113.74.74 0 0 0-.616-1.151ZM313.5 141.455a.738.738 0 0 0-.144 1.465.735.735 0 0 0 .759-.314.737.737 0 0 0-.092-.935.732.732 0 0 0-.523-.216Zm0-10.056a.738.738 0 0 0-.144 1.466.743.743 0 0 0 .759-.315.736.736 0 0 0-.092-.934.735.735 0 0 0-.523-.217Zm0-10.056a.74.74 0 1 0 0 1.478.74.74 0 0 0 0-1.478Zm0-10.055a.738.738 0 0 0-.144 1.466.743.743 0 0 0 .759-.315.736.736 0 0 0-.092-.934.735.735 0 0 0-.523-.217Zm8.708 165.917a.743.743 0 0 0-.411.124.745.745 0 0 0-.314.76.735.735 0 0 0 .581.581.737.737 0 0 0 .76-.314.745.745 0 0 0-.092-.935.742.742 0 0 0-.524-.216Zm17.417-30.167a.738.738 0 0 0-.144 1.466.743.743 0 0 0 .759-.315.736.736 0 0 0-.092-.934.735.735 0 0 0-.523-.217Zm8.708-105.583a.743.743 0 0 0-.411.124.745.745 0 0 0-.314.76.735.735 0 0 0 .581.581.737.737 0 0 0 .76-.314.745.745 0 0 0-.092-.935.742.742 0 0 0-.524-.216Zm0-10.056a.736.736 0 0 0-.683.457.735.735 0 0 0 .16.806.745.745 0 0 0 .807.161.738.738 0 0 0 .4-.967.745.745 0 0 0-.684-.457Zm0 30.166a.744.744 0 0 0-.683.457.738.738 0 0 0 .539 1.009.738.738 0 0 0 .828-1.009.742.742 0 0 0-.684-.457Zm0-10.055a.744.744 0 0 0-.683.457.737.737 0 0 0 .16.806.745.745 0 0 0 .807.161.738.738 0 0 0 .4-.967.745.745 0 0 0-.684-.457Zm0-40.222a.736.736 0 0 0-.683.457.735.735 0 0 0 .16.806.745.745 0 0 0 .807.161.745.745 0 0 0 .457-.684.741.741 0 0 0-.741-.74Zm0 10.055a.744.744 0 0 0-.683.457.737.737 0 0 0 .16.807.743.743 0 0 0 1.139-.113.74.74 0 0 0-.616-1.151Zm0 100.556a.736.736 0 0 0-.683.457.735.735 0 0 0 .16.806.745.745 0 0 0 .807.161.738.738 0 0 0 .4-.967.745.745 0 0 0-.684-.457Zm0-10.056a.744.744 0 0 0-.683.457.737.737 0 0 0 .16.807.743.743 0 0 0 1.139-.113.74.74 0 0 0-.616-1.151Zm8.709 65.362a.738.738 0 0 0-.524 1.263.743.743 0 0 0 1.139-.112.745.745 0 0 0-.092-.935.743.743 0 0 0-.523-.216Zm-8.709-105.584a.744.744 0 0 0-.683.457.737.737 0 0 0 .16.806.745.745 0 0 0 .807.161.738.738 0 0 0 .4-.967.745.745 0 0 0-.684-.457Zm0 30.167a.736.736 0 0 0-.683.457.735.735 0 0 0 .16.806.745.745 0 0 0 .807.161.745.745 0 0 0 .457-.684.741.741 0 0 0-.741-.74Zm0-20.111a.736.736 0 0 0-.683.457.735.735 0 0 0 .16.806.745.745 0 0 0 .379.203.746.746 0 0 0 .76-.315.744.744 0 0 0-.092-.935.749.749 0 0 0-.524-.216Zm8.709 15.083a.731.731 0 0 0-.411.125.733.733 0 0 0-.315.759.735.735 0 0 0 .581.582.743.743 0 0 0 .885-.726.744.744 0 0 0-.74-.74Zm0-10.055a.738.738 0 0 0-.524 1.263.743.743 0 0 0 1.139-.112.745.745 0 0 0-.092-.935.743.743 0 0 0-.523-.216Zm-8.709 45.25a.743.743 0 0 0-.411.124.745.745 0 0 0-.314.76.735.735 0 0 0 .581.581.737.737 0 0 0 .76-.314.745.745 0 0 0-.092-.935.742.742 0 0 0-.524-.216Zm8.709-55.306a.731.731 0 0 0-.411.125.733.733 0 0 0-.315.759.735.735 0 0 0 .581.582.743.743 0 0 0 .885-.726.744.744 0 0 0-.74-.74Zm0 90.5a.731.731 0 0 0-.411.125.733.733 0 0 0-.315.759.735.735 0 0 0 .581.582.743.743 0 0 0 .885-.726.744.744 0 0 0-.74-.74Zm0-60.334a.74.74 0 0 0-.726.885.743.743 0 0 0 .581.581.745.745 0 0 0 .885-.725.744.744 0 0 0-.74-.741Zm0-50.277a.738.738 0 0 0-.524 1.263.745.745 0 0 0 .807.161.743.743 0 0 0 .457-.684.744.744 0 0 0-.74-.74Zm0 10.055a.74.74 0 1 0 0 1.478.74.74 0 0 0 0-1.478Zm0 80.445a.738.738 0 0 0-.524 1.263.745.745 0 0 0 .807.161.743.743 0 0 0 .457-.684.742.742 0 0 0-.74-.74Zm0 10.055a.74.74 0 1 0 0 1.478.74.74 0 0 0 0-1.478Zm0-30.166a.738.738 0 0 0-.524 1.263.752.752 0 0 0 .379.203.747.747 0 0 0 .76-.315.742.742 0 0 0-.615-1.151Zm0 10.055a.738.738 0 0 0-.145 1.466.738.738 0 0 0 .885-.726.744.744 0 0 0-.74-.74Zm0-20.111a.738.738 0 0 0-.145 1.466.743.743 0 0 0 .885-.726.744.744 0 0 0-.74-.74Zm-8.709-25.139a.744.744 0 0 0-.683.457.737.737 0 0 0 .16.807.737.737 0 0 0 1.139-.113.74.74 0 0 0-.616-1.151Zm-8.708-15.083a.738.738 0 0 0-.144 1.466.743.743 0 0 0 .759-.315.736.736 0 0 0-.092-.934.735.735 0 0 0-.523-.217Zm0 60.333a.74.74 0 1 0 0 1.478.74.74 0 0 0 0-1.478Zm0 20.111a.74.74 0 1 0 0 1.478.74.74 0 0 0 0-1.478Zm17.417-110.611a.738.738 0 0 0-.145 1.466.738.738 0 0 0 .885-.726.744.744 0 0 0-.74-.74Zm-17.417 120.667a.738.738 0 0 0-.144 1.466.743.743 0 0 0 .759-.315.736.736 0 0 0-.092-.934.735.735 0 0 0-.523-.217Zm0-100.556a.74.74 0 1 0 0 1.478.74.74 0 0 0 0-1.478Zm0-10.055a.738.738 0 0 0-.144 1.466.743.743 0 0 0 .759-.315.736.736 0 0 0-.092-.934.735.735 0 0 0-.523-.217Zm0 60.333a.74.74 0 1 0 0 1.478.74.74 0 0 0 0-1.478Zm0-10.056a.74.74 0 1 0 0 1.478.74.74 0 0 0 0-1.478Zm0-20.11a.738.738 0 0 0-.144 1.465.735.735 0 0 0 .759-.314.737.737 0 0 0-.092-.935.732.732 0 0 0-.523-.216Zm0 10.055a.74.74 0 1 0 0 1.478.74.74 0 0 0 0-1.478Zm8.708 45.25a.744.744 0 0 0-.683.457.737.737 0 0 0 .16.806.745.745 0 0 0 .807.161.738.738 0 0 0 .4-.967.745.745 0 0 0-.684-.457Zm-8.708-105.583a.738.738 0 1 0 .283 1.423.736.736 0 0 0 .457-.683.74.74 0 0 0-.74-.74Zm8.708 135.75a.736.736 0 0 0-.683.457.735.735 0 0 0 .16.806.745.745 0 0 0 .379.203.746.746 0 0 0 .76-.315.744.744 0 0 0-.092-.935.749.749 0 0 0-.524-.216Zm-8.708 5.028a.738.738 0 0 0-.144 1.465.735.735 0 0 0 .759-.314.737.737 0 0 0-.092-.935.732.732 0 0 0-.523-.216Zm8.708 5.027a.744.744 0 0 0-.683.457.737.737 0 0 0 .16.807.737.737 0 0 0 1.139-.113.74.74 0 0 0-.616-1.151Zm0-30.167a.744.744 0 0 0-.683.457.738.738 0 0 0 .539 1.009.738.738 0 0 0 .828-1.009.742.742 0 0 0-.684-.457Zm0 10.056a.744.744 0 0 0-.683.457.737.737 0 0 0 .16.806.745.745 0 0 0 .807.161.738.738 0 0 0 .4-.967.745.745 0 0 0-.684-.457Zm-8.708-145.806a.74.74 0 1 0 0 1.478.74.74 0 0 0 0-1.478Zm0 30.167a.74.74 0 1 0 0 1.478.74.74 0 0 0 0-1.478Zm0 80.445a.738.738 0 1 0 .283 1.423.736.736 0 0 0 .457-.683.74.74 0 0 0-.74-.74Zm0-100.556a.74.74 0 1 0 0 1.478.74.74 0 0 0 0-1.478Z"/><g fill="#C2C5CB" clip-path="url(#a)"><path d="M320.732 288h2.952L418 233.546v-1.704l-97.043 56.028-.225.13Zm87.084 0L418 282.119v1.704L410.767 288h-2.951Zm-69.442-.13L418 241.898v1.704L341.1 288h-2.951l.225-.13Zm17.416 0L418 251.952v1.704L358.517 288h-2.952l.225-.13Zm34.834 0L418 272.064v1.705L393.35 288h-2.951l.225-.13Zm-17.417 0L418 262.008v1.704L375.933 288h-2.951l.225-.13ZM393.351 107h-2.952L209 211.731v1.704L393.126 107.13l.225-.13Zm17.191.13L209 223.491v-1.704L407.816 107h2.951l-.225.13Zm-52.25 0L209 193.325v-1.704L355.566 107h2.951l-.225.13Zm17.417 0L209 203.381v-1.704L372.983 107h2.951l-.225.13Zm-34.833 0L209 183.269v-1.704L338.149 107h2.952l-.225.13Zm-17.417 0L209 173.215v-1.704L320.733 107h2.951l-.225.13Zm94.466 44.311L209 272.065v1.703l.075-.043L418 153.102v-1.705l-.075.044Zm.075-10.098v1.704L209.075 263.67l-.075.044v-1.705l208.925-120.623.075-.043Zm0 20.11v1.705L209.075 283.78l-.075.044v-1.703l208.925-120.625.075-.043Zm0-30.166v1.704L209.075 253.614l-.075.044v-1.704L417.925 131.33l.075-.043Zm0-10.056v1.704L209.075 243.559l-.075.043v-1.704l208.925-120.623.075-.044Zm0-10.055v1.704L209.075 233.503l-.075.044v-1.704l208.925-120.624.075-.043Z"/></g><path fill="#C2C5CB" d="M320.732 107h2.952L418 52.546v-1.704l-97.043 56.028-.225.13Zm87.084 0L418 101.119v1.704L410.767 107h-2.951Zm-69.442-.13L418 60.897v1.705L341.1 107h-2.951l.225-.13Zm17.416 0L418 70.952v1.704L358.517 107h-2.952l.225-.13Zm34.834 0L418 91.064v1.705L393.35 107h-2.951l.225-.13Zm-17.417 0L418 81.008v1.704L375.933 107h-2.951l.225-.13Z"/><g fill="#C2C5CB" clip-path="url(#b)"><path d="M233.649 469h2.952L418 364.269v-1.704L233.874 468.87l-.225.13Zm-17.191-.13L418 352.509v1.704L219.184 469h-2.951l.225-.13Zm52.25 0L418 382.675v1.704L271.434 469h-2.951l.225-.13Zm-17.417 0L418 372.619v1.704L254.017 469h-2.951l.225-.13Zm34.833 0L418 392.731v1.704L288.851 469h-2.952l.225-.13Zm17.417 0L418 402.785v1.704L306.267 469h-2.951l.225-.13Zm17.191.13h2.952L418 414.546v-1.704l-97.043 56.028-.225.13Zm87.084 0L418 463.119v1.704L410.767 469h-2.951Zm-69.442-.13L418 422.898v1.704L341.1 469h-2.951l.225-.13Zm17.416 0L418 432.952v1.704L358.517 469h-2.952l.225-.13Zm34.834 0L418 453.064v1.705L393.35 469h-2.951l.225-.13Zm-17.417 0L418 443.008v1.704L375.933 469h-2.951l.225-.13ZM393.351 288h-2.952L209 392.731v1.704L393.126 288.13l.225-.13Zm17.191.13L209 404.491v-1.704L407.816 288h2.951l-.225.13Zm-52.25 0L209 374.325v-1.704L355.566 288h2.951l-.225.13Zm17.417 0L209 384.381v-1.704L372.983 288h2.951l-.225.13Zm-34.833 0L209 364.269v-1.704L338.149 288h2.952l-.225.13Zm-17.417 0L209 354.215v-1.704L320.733 288h2.951l-.225.13Zm-17.191-.13h-2.952L209 342.454v1.704l97.043-56.028.225-.13Zm-87.084 0L209 293.881v-1.704l7.233-4.177h2.951Zm69.442.13L209 334.102v-1.704L285.9 288h2.951l-.225.13Zm-17.416 0L209 324.048v-1.704L268.483 288h2.952l-.225.13Zm-34.834 0L209 303.936v-1.705L233.65 288h2.951l-.225.13Zm17.417 0L209 313.992v-1.704L251.067 288h2.951l-.225.13Zm164.132 44.311L209 453.065v1.703l.075-.043L418 334.102v-1.705l-.075.044Zm.075-10.098v1.704L209.075 444.67l-.075.044v-1.705l208.925-120.623.075-.043Zm0 20.11v1.705L209.075 464.78l-.075.044v-1.703l208.925-120.625.075-.043Zm0-30.166v1.704L209.075 434.614l-.075.044v-1.704L417.925 312.33l.075-.043Zm0-10.056v1.704L209.075 424.559l-.075.043v-1.704l208.925-120.623.075-.044Zm0-10.055v1.704L209.075 414.503l-.075.044v-1.704l208.925-120.624.075-.043Z"/></g><path fill="#C2C5CB" d="M184.351 288h-2.952L0 392.731v1.705L184.126 288.13l.225-.13Zm17.191.13L0 404.491v-1.704L198.816 288h2.951l-.225.13Zm-52.25 0L0 374.325v-1.704L146.566 288h2.951l-.225.13Zm17.417 0L0 384.381v-1.704L163.983 288h2.951l-.225.13Zm-34.833 0L0 364.27v-1.705L129.149 288h2.952l-.225.13Zm-17.417 0L0 354.215v-1.704L111.733 288h2.951l-.225.13Zm94.466 44.311L0 453.065v1.703l.075-.043L209 334.102v-1.705l-.075.044Zm.075-10.098v1.704L.075 444.67l-.075.044v-1.704l208.925-120.624.075-.043Zm0 20.11v1.705L.075 464.781l-.075.043v-1.703l208.925-120.625.075-.043Zm0-30.166v1.704L.075 434.615l-.075.043v-1.704L208.925 312.33l.075-.043Zm0-10.056v1.704L.075 424.559l-.075.043v-1.704l208.925-120.623.075-.044Zm0-10.055v1.704L.075 414.503l-.075.044v-1.704l208.925-120.624.075-.043Z"/><defs><clipPath id="a"><path fill="#fff" d="M209 107h209v181H209z"/></clipPath><clipPath id="b"><path fill="#fff" d="M209 288h209v181H209z"/></clipPath></defs></svg>