<svg width="19" height="19" fill="none" viewBox="0 0 19 19" xmlns="http://www.w3.org/2000/svg"><path fill-rule="evenodd" clip-rule="evenodd" d="M9.484 15.411a5.484 5.484 0 01-3.905-1.613 5.5 5.5 0 01-1.614-3.906 5.506 5.506 0 015.52-5.52c1.224 0 2.383.391 3.35 1.132l.844-1.1a6.84 6.84 0 00-4.195-1.42 6.886 6.886 0 00-4.887 2.02 6.865 6.865 0 00-2.02 4.888c0 1.842.717 3.578 2.02 4.886a6.863 6.863 0 004.887 2.02 6.85 6.85 0 004.194-1.417l-.843-1.103a5.469 5.469 0 01-3.351 1.133zm6.06-8.212a.688.688 0 00.347-.541.64.64 0 00-.085-.398.694.694 0 00-.939-.262.695.695 0 00-.262.938c.191.33.61.446.94.263zm-.01 5.376a.687.687 0 00-.94.258.687.687 0 00.26.939.687.687 0 001.024-.54.689.689 0 00-.345-.657zm-.05-3.73a.686.686 0 001.36-.048.686.686 0 10-1.36.048zm.79 1.492a.683.683 0 00-.797.558.683.683 0 00.558.796.683.683 0 00.796-.558c0-.024.007-.04.013-.061a.69.69 0 00-.57-.735zM13.56 8.926a.685.685 0 00.826.513.662.662 0 00.518-.558.687.687 0 10-1.344.044zm1.313 2.283c.007-.02.007-.037.014-.054a.687.687 0 10-.014.054zm-3.202-1.334c0 .38.306.687.687.687a.686.686 0 00.688-.687.685.685 0 00-.688-.688.685.685 0 00-.687.688z" fill="#CA2171"/><path fill-rule="evenodd" clip-rule="evenodd" d="M7.966 9.877c0 .826.667 1.488 1.493 1.488a1.485 1.485 0 001.487-1.493c0-.826-.667-1.487-1.493-1.487-.826 0-1.487.667-1.487 1.492z" fill="#961D59"/></svg>