<svg width="1600" height="776" viewBox="0 0 1600 776" fill="none" xmlns="http://www.w3.org/2000/svg"><mask id="prefix__a" maskUnits="userSpaceOnUse" x="0" y="0" width="1600" height="776"><path fill="var(--boundary-secondary, #ffecec)" d="M0 0h1600v776H0z"/></mask><g mask="url(#prefix__a)" stroke-width="1.5" stroke-miterlimit="10"><path d="M0-140.574L532.548-448M0 171.782l532.548-307.427L0 171.782zm0-13.037l532.548-307.426L0 158.745zm0-13.036l532.548-307.426L0 145.709zm0-12.972l532.548-307.426L0 132.737zm0-13.036l532.548-307.426L0 119.701zm0-13.036l532.548-307.427L0 106.665zm0-12.972l532.548-307.426L0 93.693zm0-13.037L532.548-226.77 0 80.657zM0 67.62l532.548-307.426L0 67.62zm0-12.972l532.548-307.426L0 54.649zm0-13.036l532.548-307.426L0 41.612zm0-13.036l532.548-307.427L0 28.576zm0-12.972l532.548-307.426L0 15.604zM0 2.568L532.548-304.86 0 2.568zm0-12.972L532.548-317.83 0-10.404zM0-23.44l532.548-307.427L0-23.44zm0-13.037l532.548-307.426L0-36.477zm0-12.971l532.548-307.427L0-49.448zm0-13.037L532.548-369.91 0-62.485zM0-75.52l532.548-307.427L0-75.521zm0-12.972l532.548-307.426L0-88.493zm0-13.036l532.548-307.427L0-101.529zm0-13.037l532.548-307.426L0-114.566zm0-12.971l532.548-307.427L0-127.537z" stroke="url(#prefix__paint0_linear)"/></g><defs><linearGradient id="prefix__paint0_linear" x1="-.259" y1="-138.137" x2="532.758" y2="-138.137" gradientUnits="userSpaceOnUse"><stop offset=".645" stop-color="var(--terraform, #844fba)"/><stop offset=".997" stop-color="var(--terraform, #844fba)" stop-opacity=".5"/></linearGradient></defs></svg>