<svg width="456" height="589" viewBox="0 0 456 589" fill="none" xmlns="http://www.w3.org/2000/svg"><g opacity=".75" fill="#844FBA"><path d="M26.89 197h3.22L228 83.59v-1.846L27.135 196.86l-.245.141Zm-18.754-.141L228 70.855v1.846L11.11 197H7.89l.246-.141Zm57 0L228 103.521v1.846L68.11 197h-3.22l.246-.141Zm-19 0L228 92.632v1.846L49.11 197h-3.22l.246-.141Zm38 0L228 114.41v1.846L87.11 197h-3.22l.245-.141Zm18.999 0L228 125.298v1.846L106.109 197h-3.219l.245-.141ZM121.89 197h3.22L228 138.034v-1.846l-105.865 60.671-.245.141Zm95 0 11.11-6.368v1.846L220.109 197h-3.219Zm-75.755-.141L228 147.077v1.846L144.109 197h-3.22l.246-.141Zm19 0L228 157.965v1.846L163.109 197h-3.22l.246-.141Zm38 0L228 179.743v1.847L201.11 197h-3.221l.246-.141Zm-19 0L228 168.854v1.846L182.109 197h-3.219l.245-.141Z"/><g clip-path="url(#clip0_5_216)"><path d="M121.89 393.001h3.22L228 334.034v-1.845L122.135 392.86l-.245.141Zm95 0 11.11-6.368v1.845l-7.891 4.523h-3.219Zm-75.755-.141L228 343.078v1.845l-83.891 48.078h-3.22l.246-.141Zm19 0L228 353.966v1.845l-64.891 37.19h-3.22l.246-.141Zm38 0L228 375.744v1.846l-26.89 15.411h-3.221l.246-.141Zm-19 0L228 364.855v1.845l-45.891 26.301h-3.219l.245-.141ZM201.11 197.001h-3.22L0 310.412v1.845l200.865-115.115.245-.141Zm18.754.141L0 323.146v-1.845l216.89-124.3h3.22l-.246.141Zm-57 0L0 290.48v-1.845l159.89-91.634h3.22l-.246.141Zm19 0L0 301.369v-1.845l178.89-102.523h3.22l-.246.141Zm-37.999 0L0 279.591v-1.845l140.89-80.745h3.22l-.245.141Zm-19 0L0 268.703v-1.845l121.891-69.857h3.219l-.245.141ZM227.918 245.125 0 375.745v1.845l.082-.047L228 246.924v-1.846l-.082.047ZM228 234.19v1.845L.082 366.655l-.082.047v-1.846l227.918-130.619.082-.047Zm0 21.777v1.846L.082 388.432l-.082.047v-1.845l227.918-130.62.082-.047Zm0-32.666v1.845L.082 355.766l-.082.047v-1.846l227.918-130.619.082-.047Zm0-10.889v1.845L.082 344.877l-.082.047v-1.846l227.918-130.619.082-.047Zm0-10.889v1.845L.082 333.988l-.082.047v-1.846L227.918 201.57l.082-.047Z"/></g><g clip-path="url(#clip1_5_216)"><path d="M106.11 393.001h-3.22L0 451.968v1.845l105.865-60.671.245-.141Zm-95 0L0 399.369v-1.845l7.89-4.523h3.22Zm75.755.141L0 442.924v-1.845l83.891-48.078h3.22l-.246.141Zm-19 0L0 432.036v-1.845l64.89-37.19h3.22l-.245.141Zm-38 0L0 410.258v-1.846l26.89-15.411h3.22l-.245.141Zm19 0L0 421.147v-1.845l45.89-26.301h3.22l-.245.141ZM26.89 589.001h3.22L228 475.59v-1.845L27.135 588.86l-.245.141Zm-18.754-.141L228 462.856v1.845l-216.89 124.3H7.89l.246-.141Zm57 0L228 495.522v1.845L68.11 589.001h-3.22l.246-.141Zm-19 0L228 484.633v1.845L49.11 589.001h-3.22l.246-.141Zm38 0L228 506.411v1.845L87.11 589.001h-3.22l.245-.141Zm18.999 0L228 517.299v1.845l-121.891 69.857h-3.219l.245-.141ZM121.89 589.001h3.22L228 530.034v-1.845L122.135 588.86l-.245.141Zm95 0 11.11-6.368v1.845l-7.891 4.523h-3.219Zm-75.755-.141L228 539.078v1.845l-83.891 48.078h-3.22l.246-.141Zm19 0L228 549.966v1.845l-64.891 37.19h-3.22l.246-.141Zm38 0L228 571.744v1.846l-26.89 15.411h-3.221l.246-.141Zm-19 0L228 560.855v1.845l-45.891 26.301h-3.219l.245-.141ZM.082 540.877 228 410.256v-1.844l-.082.047L0 539.078v1.846l.082-.047ZM0 551.812v-1.845l227.918-130.62.082-.047v1.845L.082 551.765l-.082.047Zm0-21.777v-1.846L227.918 397.57l.082-.047v1.844L.082 529.988l-.082.047Zm0 32.666v-1.845l227.918-130.62.082-.047v1.845L.082 562.654l-.082.047Zm0 10.889v-1.845l227.918-130.62.082-.047v1.845L.082 573.543 0 573.59Zm0 10.889v-1.845l227.918-130.62.082-.047v1.845L.082 584.432l-.082.047Z"/></g><path d="M349.89 196h3.22L456 137.033v-1.845l-105.865 60.671-.245.141Zm95 0 11.11-6.368v1.845L448.109 196h-3.219Zm-75.755-.141L456 146.077v1.845L372.109 196h-3.22l.246-.141Zm19 0L456 156.965v1.845L391.109 196h-3.22l.246-.141Zm38 0L456 178.743v1.846L429.11 196h-3.221l.246-.141Zm-19 0L456 167.854v1.845L410.109 196h-3.219l.245-.141Z"/><g clip-path="url(#clip2_5_216)"><path d="m374.675 196.071.054-.07h-2.148L228 382.444v2.768l146.675-189.141Zm-63.276-.07h-2.147L228 300.775v2.769l83.344-107.473.055-.07Zm37.997 0h-2.148L228 349.775v2.769l121.341-156.473.055-.07Zm12.67 0h-2.148L228 366.107v2.768l134.011-172.804.055-.07Zm-25.333 0h-2.148L228 333.439v2.768l108.678-140.136.055-.07Zm-12.67 0h-2.148L228 317.107v2.768l96.008-123.804.055-.07ZM418.805 334.487a.86.86 0 0 0-.339-.251 1.207 1.207 0 0 0-.936.001.884.884 0 0 0-.348.266l-44.581 57.498h2.148l43.254-55.78L456 385.216v-2.772l-37.169-47.919-.026-.038Zm-.802-79.934L456 303.548v-2.772l-37.169-47.919-.026-.038a.857.857 0 0 0-.34-.251 1.203 1.203 0 0 0-.935.001.882.882 0 0 0-.348.265L309.319 391.93l-.054.071h2.147l106.591-137.448Zm.802 14.602a.857.857 0 0 0-.34-.251 1.22 1.22 0 0 0-.935.001.891.891 0 0 0-.348.265l-95.249 122.831h2.148l93.922-121.112L456 319.884v-2.772l-37.169-47.918-.026-.039Zm-.802 15.984a1.198 1.198 0 0 0-.468.091.778.778 0 0 0-.31.231L334.659 391.93l-.055.071h2.148l81.251-104.78L456 336.216v-2.767l-37.195-47.967a.867.867 0 0 0-.34-.251 1.18 1.18 0 0 0-.462-.092Zm0 16.336c-.164 0-.326.032-.469.092a.77.77 0 0 0-.307.229l-69.898 90.134-.055.071h2.148l68.581-88.448L456 352.548v-2.767l-37.195-47.962a.857.857 0 0 0-.34-.251 1.162 1.162 0 0 0-.462-.093Zm.773 16.651a.414.414 0 0 0-.113-.102 1.045 1.045 0 0 0-.197-.116.413.413 0 0 0-.112-.039.727.727 0 0 0-.224-.047 1.104 1.104 0 0 0-.587.078l-.089.04-.002.004a.403.403 0 0 0-.1.069.581.581 0 0 0-.051.042.17.17 0 0 0-.066.061.478.478 0 0 0-.06.069l-57.237 73.816h2.147l55.918-72.116 37.997 49v-2.772l-37.206-47.969-.018-.018Zm-.454-.113h-.001l.002-.004-.001.004Zm.073.03-.001-.001.002-.002-.001.003Z"/></g></g><defs><clipPath id="clip0_5_216"><path fill="#fff" transform="rotate(-180 114 196.5)" d="M0 0h228v196H0z"/></clipPath><clipPath id="clip1_5_216"><path fill="#fff" transform="translate(0 393.001)" d="M0 0h228v196H0z"/></clipPath><clipPath id="clip2_5_216"><path fill="#fff" transform="rotate(-180 228 196)" d="M0 0h228v196H0z"/></clipPath></defs></svg>