<svg width="420" height="500" viewBox="0 0 420 500" fill="none" xmlns="http://www.w3.org/2000/svg"><mask id="mask0_2_51" style="mask-type:alpha" maskUnits="userSpaceOnUse" x="0" y="0" width="420" height="500"><path d="M0 0h420v494a6 6 0 0 1-6 6H6a6 6 0 0 1-6-6V0Z" fill="#F2F2F3"/></mask><g mask="url(#mask0_2_51)"><g clip-path="url(#clip0_2_51)"><path d="M41.307 196.819h-3.236L-65.31 137.606v-1.853L41.06 196.677l.247.142Zm-95.455 0-11.163-6.395v1.853l7.928 4.542h3.235Zm76.118-.142-87.281-49.99v1.853l84.292 48.279h3.235l-.246-.142Zm-19.091 0-68.19-39.056v1.853L-.11 196.819h3.235l-.246-.142Zm-38.182 0-30.008-17.187v1.854l27.02 15.475h3.234l-.246-.142Zm19.09 0-49.098-28.122v1.853l46.11 26.411h3.235l-.246-.142Z" fill="#000"/><path d="M-65.229 48.325 163.78 179.492v1.851l-.083-.047L-65.311 50.132v-1.854l.082.047Zm-.082-10.98v1.852l229.008 131.166.083.047v-1.853L-65.229 37.391l-.082-.047Zm0 21.867v1.854l229.008 131.165.083.047v-1.852L-65.229 59.259l-.082-.047Zm0-32.803v1.854l229.008 131.165.083.048v-1.853L-65.229 26.457l-.082-.047Zm0-10.934v1.853l229.008 131.166.083.047v-1.853L-65.229 15.522l-.082-.047Zm0-10.934v1.853l229.008 131.165.083.048v-1.853L-65.229 4.588l-.082-.047Z" fill="#844FBA"/></g><g clip-path="url(#clip1_2_51)" fill="#000"><path d="M-38.293 196.818h3.236L163.78 309.553v1.834L-38.046 196.958l-.247-.14Zm-18.843.14L163.78 322.211v-1.834L-54.148 196.818h-3.235l.247.14Zm57.272 0L163.78 289.74v-1.835L3.125 196.818H-.11l.246.14Zm-19.09 0L163.78 300.564v-1.834L-15.966 196.818h-3.235l.247.14Zm38.181 0 144.553 81.958v-1.835L22.216 196.818H18.98l.247.14Zm19.09 0 125.463 71.135v-1.835l-122.474-69.44h-3.235l.247.14ZM-65.229 244.655 163.78 374.497v1.833l-.083-.047-229.008-129.84v-1.835l.082.047Zm-.082-10.87v1.834L163.697 365.46l.083.047v-1.834L-65.229 233.832l-.082-.047Zm0 21.647v1.835l229.008 129.84.083.047v-1.833L-65.229 255.479l-.082-.047Zm0-32.471v1.834l229.008 129.841.083.047v-1.834L-65.229 223.008l-.082-.047Zm0-10.824v1.834l229.008 129.841.083.047v-1.834L-65.229 212.184l-.082-.047Zm0-10.824v1.834l229.008 129.841.083.047v-1.834L-65.229 201.36l-.082-.047Z"/></g><g clip-path="url(#clip2_2_51)"><path d="M365.852 391.649h-3.235L163.78 278.915v-1.835l201.826 114.429.246.14Zm18.844-.14L163.78 266.256v1.835l217.927 123.558h3.236l-.247-.14Zm-57.272 0L163.78 298.728v1.834l160.655 91.087h3.235l-.246-.14Zm19.09 0L163.78 287.903v1.835l179.746 101.911h3.235l-.247-.14Zm-38.181 0L163.78 309.552v1.834l141.564 80.263h3.235l-.246-.14Zm-19.091 0L163.78 320.375v1.834l122.474 69.44h3.235l-.247-.14Z" fill="#000"/><path d="M270.398 391.649h-3.235L163.78 333.034V331.2l106.371 60.309.247.14Zm-95.455 0-11.163-6.33v1.834l7.928 4.496h3.235Zm76.118-.14-87.281-49.485v1.834l84.292 47.791h3.235l-.246-.14Zm-19.091 0-68.19-38.662v1.834l65.201 36.968h3.236l-.247-.14Zm-38.182 0-30.008-17.014v1.835l27.019 15.319h3.236l-.247-.14Zm19.091 0-49.099-27.838v1.834l46.11 26.144h3.235l-.246-.14Z" fill="#844FBA"/></g><g clip-path="url(#clip3_2_51)" fill="#000"><path d="M57.162 391.649h3.235l103.383 59.213v1.853L57.409 391.791l-.247-.142Zm95.455 0 11.163 6.395v-1.853l-7.928-4.542h-3.235Zm-76.118.142 87.281 49.99v-1.853l-84.292-48.279h-3.235l.246.142Zm19.091 0 68.19 39.056v-1.853l-65.201-37.345h-3.236l.247.142Zm38.182 0 30.008 17.187v-1.854l-27.019-15.475h-3.236l.247.142Zm-19.091 0 49.099 28.122v-1.853l-46.11-26.411h-3.235l.246.142ZM-65.229 439.974 163.78 571.141v1.852l-.083-.048-229.008-131.164v-1.854l.082.047Zm-.082-10.981v1.853l229.008 131.166.083.047v-1.853L-65.229 429.04l-.082-.047Zm0 21.868v1.854L163.697 583.88l.083.047v-1.852L-65.229 450.908l-.082-.047Zm0-32.802v1.853l229.008 131.165.083.048v-1.853L-65.229 418.106l-.082-.047Zm0-10.935v1.853l229.008 131.166.083.047v-1.853L-65.229 407.171l-.082-.047Zm0-10.934v1.853l229.008 131.165.083.048v-1.853L-65.229 396.237l-.082-.047Z"/></g><g clip-path="url(#clip4_2_51)"><path d="m163.862 439.974 229.009 131.167v1.852l-.083-.048L163.78 441.781v-1.854l.082.047Zm-.082-10.981v1.853l229.008 131.166.083.047v-1.853L163.862 429.04l-.082-.047Zm0 21.868v1.854L392.788 583.88l.083.047v-1.852L163.862 450.908l-.082-.047Zm0-32.802v1.853l229.008 131.165.083.048v-1.853L163.862 418.106l-.082-.047Zm0-10.935v1.853l229.008 131.166.083.047v-1.853L163.862 407.171l-.082-.047Zm0-10.934v1.853l229.008 131.165.083.048v-1.853L163.862 396.237l-.082-.047Z" fill="#844FBA"/></g></g><defs><clipPath id="clip0_2_51"><path fill="#fff" transform="matrix(-1 0 0 1 163.78 0)" d="M0 0h229.091v196.819H0z"/></clipPath><clipPath id="clip1_2_51"><path fill="#fff" transform="matrix(-1 0 0 1 163.78 196.818)" d="M0 0h229.091v194.831H0z"/></clipPath><clipPath id="clip2_2_51"><path fill="#fff" transform="matrix(-1 0 0 1 392.871 196.818)" d="M0 0h229.091v194.831H0z"/></clipPath><clipPath id="clip3_2_51"><path fill="#fff" transform="matrix(-1 0 0 1 163.78 391.649)" d="M0 0h229.091v196.819H0z"/></clipPath><clipPath id="clip4_2_51"><path fill="#fff" transform="matrix(-1 0 0 1 392.871 391.649)" d="M0 0h229.091v196.819H0z"/></clipPath></defs></svg>