<svg width="175" height="350" viewBox="0 0 175 350" fill="none" xmlns="http://www.w3.org/2000/svg"><mask id="mask0_2_114" style="mask-type:alpha" maskUnits="userSpaceOnUse" x="0" y="0" width="175" height="350"><path fill="#C4C4C4" d="M0 0h175v350H0z"/></mask><g mask="url(#mask0_2_114)"><path d="M87.86 192h-2.302L12 249.763v1.808l75.684-59.433.176-.138Zm-67.917 0L12 198.238v-1.807L17.641 192h2.302Zm54.158.138L12 240.904v-1.807L71.975 192h2.301l-.175.138Zm-13.583 0L12 230.239v-1.808L58.391 192h2.302l-.175.138Zm-27.167 0L12 208.905v-1.809L31.224 192h2.302l-.175.138Zm13.583 0L12 219.572v-1.808L44.808 192h2.302l-.176.138ZM31.224 384h2.302L175 272.904v-1.808L31.4 383.862l-.176.138Zm-13.408-.138L175 260.429v1.808L19.943 384H17.64l.175-.138Zm40.75 0L175 292.429v1.807L60.692 384h-2.301l.175-.138Zm-13.583 0L175 281.762v1.808L47.11 384h-2.302l.175-.138Zm27.167 0L175 303.095v1.808L74.276 384h-2.302l.175-.138Zm13.583 0L175 313.761v1.808L87.859 384h-2.302l.176-.138Z" fill="#fff"/><path d="M99.14 384h2.302L175 326.237v-1.808l-75.684 59.433-.176.138Zm67.917 0 7.943-6.238v1.807L169.359 384h-2.302Zm-54.158-.138L175 335.096v1.807L115.025 384h-2.301l.175-.138Zm13.583 0L175 345.761v1.808L128.609 384h-2.302l.175-.138Zm27.167 0L175 367.095v1.809L155.776 384h-2.302l.175-.138Zm-13.583 0L175 356.428v1.808L142.192 384h-2.302l.176-.138ZM12.059 336.858 175 208.903v-1.806l-.059.046L12 335.096v1.809l.059-.047ZM12 347.57v-1.807l162.941-127.955.059-.046v1.808L12.059 347.524l-.059.046Zm0-21.332v-1.809l162.941-127.953.059-.046v1.807L12.059 326.192l-.059.046Zm0 31.999v-1.808l162.941-127.954.059-.046v1.808L12.059 358.191l-.059.046Zm0 10.667v-1.808l162.941-127.954.059-.046v1.808L12.059 368.858l-.059.046Zm0 10.667v-1.808l162.941-127.954.059-.046v1.807L12.059 379.524l-.059.047Z" fill="#844FBA"/><g clip-path="url(#clip0_2_114)" fill="#fff"><path d="M31.224 192h2.302L175 80.904v-1.808L31.4 191.862l-.176.138Zm-13.408-.138L175 68.429v1.808L19.943 192H17.64l.175-.138Zm40.75 0L175 100.429v1.807L60.692 192h-2.301l.175-.138Zm-13.583 0L175 89.762v1.808L47.11 192h-2.302l.175-.138Zm27.167 0L175 111.095v1.808L74.276 192h-2.302l.175-.138Zm13.583 0L175 121.761v1.808L87.859 192h-2.302l.176-.138ZM155.776 0h-2.302L12 111.096v1.808L155.601.138l.175-.138Zm13.408.138L12 123.571v-1.808L167.057 0h2.302l-.175.138Zm-40.75 0L12 91.571v-1.807L126.308 0h2.301l-.175.138Zm13.583 0L12 102.238v-1.808L139.891 0h2.301l-.175.138Zm-27.166 0L12 80.905v-1.808L112.724 0h2.302l-.175.138Zm-13.584 0L12 70.238v-1.807L99.141 0h2.302l-.176.138ZM87.86 0h-2.302L12 57.763v1.808L87.684.138 87.86 0ZM19.943 0 12 6.238V4.431L17.641 0h2.302ZM74.1.138 12 48.904v-1.807L71.975 0h2.301l-.175.138Zm-13.583 0L12 38.238v-1.807L58.391 0h2.302l-.175.138Zm-27.167 0L12 16.905v-1.809L31.224 0h2.302l-.175.138Zm13.583 0L12 27.572v-1.808L44.808 0h2.302l-.176.138ZM174.941 47.142 12 175.097v1.806l.059-.046L175 48.904v-1.809l-.059.047ZM175 36.43v1.807L12.059 166.192l-.059.046v-1.808L174.941 36.476l.059-.046Zm0 21.332v1.809L12.059 187.524l-.059.046v-1.806L174.941 57.808l.059-.046Zm0-31.999v1.808L12.059 155.525l-.059.046v-1.808L174.941 25.809l.059-.046Zm0-10.667v1.808L12.059 144.858l-.059.046v-1.808L174.941 15.142l.059-.046Zm0-10.667v1.808L12.059 134.191l-.059.046v-1.807L174.941 4.476l.059-.047Z"/></g></g><defs><clipPath id="clip0_2_114"><path fill="#fff" transform="translate(12)" d="M0 0h163v192H0z"/></clipPath></defs></svg>