<svg width="592" height="590" viewBox="0 0 592 590" fill="none" xmlns="http://www.w3.org/2000/svg">
<path d="M175 0.5H1C0.723858 0.5 0.5 0.723858 0.5 1V175C0.5 175.276 0.723858 175.5 1 175.5H175C175.276 175.5 175.5 175.276 175.5 175V1C175.5 0.723858 175.276 0.5 175 0.5Z" fill="white" stroke="black"/>
<path d="M383 0.5H209C208.724 0.5 208.5 0.723858 208.5 1V175C208.5 175.276 208.724 175.5 209 175.5H383C383.276 175.5 383.5 175.276 383.5 175V1C383.5 0.723858 383.276 0.5 383 0.5Z" fill="white" stroke="black"/>
<path d="M383 206.5H209C208.724 206.5 208.5 206.724 208.5 207V381C208.5 381.276 208.724 381.5 209 381.5H383C383.276 381.5 383.5 381.276 383.5 381V207C383.5 206.724 383.276 206.5 383 206.5Z" fill="white" stroke="black"/>
<path d="M383 414.5H209C208.724 414.5 208.5 414.724 208.5 415V589C208.5 589.276 208.724 589.5 209 589.5H383C383.276 589.5 383.5 589.276 383.5 589V415C383.5 414.724 383.276 414.5 383 414.5Z" fill="white" stroke="black"/>
<path d="M175 206.5H1C0.723858 206.5 0.5 206.724 0.5 207V381C0.5 381.276 0.723858 381.5 1 381.5H175C175.276 381.5 175.5 381.276 175.5 381V207C175.5 206.724 175.276 206.5 175 206.5Z" fill="white" stroke="black"/>
<path d="M175 414.5H1C0.723858 414.5 0.5 414.724 0.5 415V589C0.5 589.276 0.723858 589.5 1 589.5H175C175.276 589.5 175.5 589.276 175.5 589V415C175.5 414.724 175.276 414.5 175 414.5Z" fill="white" stroke="black"/>
<path d="M591 0.5H417C416.724 0.5 416.5 0.723858 416.5 1V175C416.5 175.276 416.724 175.5 417 175.5H591C591.276 175.5 591.5 175.276 591.5 175V1C591.5 0.723858 591.276 0.5 591 0.5Z" fill="white" stroke="black"/>
<path d="M591 206.5H417C416.724 206.5 416.5 206.724 416.5 207V381C416.5 381.276 416.724 381.5 417 381.5H591C591.276 381.5 591.5 381.276 591.5 381V207C591.5 206.724 591.276 206.5 591 206.5Z" fill="white" stroke="black"/>
<path d="M279.719 81.9812C279.719 82.8867 279.817 83.6209 279.988 84.1593C280.184 84.6977 280.428 85.2851 280.771 85.9214C280.893 86.1172 280.942 86.313 280.942 86.4843C280.942 86.729 280.795 86.9738 280.477 87.2185L278.937 88.2464C278.717 88.3932 278.497 88.4666 278.301 88.4666C278.056 88.4666 277.812 88.3443 277.567 88.124C277.225 87.7569 276.932 87.3653 276.687 86.9738C276.443 86.5577 276.198 86.0927 275.929 85.5298C274.022 87.7814 271.625 88.9072 268.74 88.9072C266.686 88.9072 265.048 88.3198 263.85 87.1451C262.651 85.9703 262.04 84.404 262.04 82.4462C262.04 80.3659 262.774 78.6773 264.265 77.4046C265.757 76.132 267.737 75.4957 270.256 75.4957C271.087 75.4957 271.943 75.5691 272.848 75.6915C273.753 75.8139 274.682 76.0096 275.66 76.2299V74.4433C275.66 72.5834 275.269 71.2863 274.511 70.5276C273.728 69.7689 272.408 69.4018 270.525 69.4018C269.669 69.4018 268.789 69.4997 267.884 69.72C266.979 69.9402 266.099 70.2094 265.243 70.5521C264.852 70.7234 264.559 70.8213 264.387 70.8702C264.216 70.9192 264.094 70.9436 263.996 70.9436C263.654 70.9436 263.483 70.6989 263.483 70.185V68.9858C263.483 68.5942 263.532 68.3005 263.654 68.1292C263.776 67.9579 263.996 67.7866 264.339 67.6152C265.194 67.1747 266.221 66.8076 267.42 66.5139C268.618 66.1958 269.889 66.0489 271.234 66.0489C274.144 66.0489 276.271 66.7097 277.641 68.0313C278.986 69.3529 279.67 71.3597 279.67 74.0518V81.9812H279.719ZM269.791 85.7011C270.598 85.7011 271.43 85.5543 272.31 85.2606C273.19 84.9669 273.973 84.4285 274.633 83.6943C275.024 83.2293 275.318 82.7154 275.464 82.128C275.611 81.5406 275.709 80.8309 275.709 79.9988V78.9709C275 78.7996 274.242 78.6528 273.459 78.5549C272.677 78.457 271.919 78.408 271.161 78.408C269.522 78.408 268.324 78.7262 267.517 79.387C266.71 80.0478 266.319 80.9778 266.319 82.2014C266.319 83.3517 266.613 84.2083 267.224 84.7956C267.811 85.4075 268.667 85.7011 269.791 85.7011ZM289.427 88.3443C288.987 88.3443 288.693 88.2709 288.498 88.0995C288.302 87.9527 288.131 87.6101 287.984 87.1451L282.238 68.2271C282.091 67.7376 282.018 67.4195 282.018 67.2481C282.018 66.8566 282.213 66.6363 282.605 66.6363H285.001C285.465 66.6363 285.783 66.7097 285.955 66.881C286.15 67.0279 286.297 67.3705 286.444 67.8355L290.552 84.0369L294.366 67.8355C294.488 67.346 294.635 67.0279 294.831 66.881C295.026 66.7342 295.369 66.6363 295.809 66.6363H297.765C298.23 66.6363 298.547 66.7097 298.743 66.881C298.939 67.0279 299.11 67.3705 299.208 67.8355L303.071 84.2327L307.301 67.8355C307.448 67.346 307.619 67.0279 307.791 66.881C307.986 66.7342 308.304 66.6363 308.744 66.6363H311.018C311.409 66.6363 311.63 66.8321 311.63 67.2481C311.63 67.3705 311.605 67.4929 311.581 67.6397C311.556 67.7866 311.507 67.9824 311.409 68.2516L305.516 87.1695C305.37 87.659 305.199 87.9772 305.003 88.124C304.807 88.2709 304.489 88.3687 304.074 88.3687H301.971C301.506 88.3687 301.188 88.2953 300.993 88.124C300.797 87.9527 300.626 87.6345 300.528 87.1451L296.738 71.3597L292.972 87.1206C292.85 87.6101 292.703 87.9282 292.508 88.0995C292.312 88.2709 291.97 88.3443 291.53 88.3443H289.427ZM320.848 89.0051C319.577 89.0051 318.305 88.8582 317.082 88.5645C315.86 88.2709 314.906 87.9527 314.27 87.5856C313.879 87.3653 313.61 87.1206 313.512 86.9003C313.415 86.6801 313.366 86.4353 313.366 86.2151V84.9669C313.366 84.453 313.561 84.2083 313.928 84.2083C314.075 84.2083 314.221 84.2327 314.368 84.2817C314.515 84.3306 314.735 84.4285 314.98 84.5264C315.811 84.8935 316.716 85.1872 317.669 85.383C318.647 85.5788 319.601 85.6767 320.579 85.6767C322.12 85.6767 323.318 85.4075 324.149 84.869C324.981 84.3306 325.421 83.5475 325.421 82.5441C325.421 81.8588 325.201 81.2959 324.76 80.8309C324.32 80.3659 323.489 79.9499 322.291 79.5583L318.745 78.457C316.96 77.8941 315.64 77.062 314.833 75.9607C314.026 74.8839 313.61 73.6847 313.61 72.412C313.61 71.3842 313.83 70.4786 314.27 69.6955C314.711 68.9123 315.297 68.2271 316.031 67.6887C316.765 67.1258 317.596 66.7097 318.574 66.416C319.552 66.1224 320.579 66 321.655 66C322.193 66 322.755 66.0245 323.293 66.0979C323.856 66.1713 324.369 66.2692 324.883 66.3671C325.372 66.4895 325.836 66.6118 326.277 66.7587C326.717 66.9055 327.059 67.0524 327.304 67.1992C327.646 67.395 327.89 67.5908 328.037 67.811C328.184 68.0068 328.257 68.276 328.257 68.6187V69.7689C328.257 70.2829 328.062 70.5521 327.695 70.5521C327.499 70.5521 327.181 70.4542 326.766 70.2584C325.372 69.6221 323.807 69.3039 322.071 69.3039C320.677 69.3039 319.577 69.5242 318.819 69.9892C318.061 70.4542 317.669 71.1639 317.669 72.1673C317.669 72.8526 317.914 73.4399 318.403 73.9049C318.892 74.3699 319.797 74.8349 321.093 75.251L324.565 76.3523C326.325 76.9152 327.597 77.6983 328.355 78.7017C329.113 79.7051 329.48 80.8554 329.48 82.128C329.48 83.1804 329.26 84.1348 328.844 84.9669C328.404 85.799 327.817 86.5332 327.059 87.1206C326.301 87.7324 325.396 88.173 324.345 88.4911C323.244 88.8337 322.095 89.0051 320.848 89.0051Z" fill="#252F3E"/>
<path fill-rule="evenodd" clip-rule="evenodd" d="M325.47 100.893C317.425 106.84 305.736 109.997 295.686 109.997C281.602 109.997 268.911 104.784 259.326 96.1204C258.568 95.4352 259.252 94.5052 260.157 95.0436C270.525 101.064 283.314 104.711 296.542 104.711C305.467 104.711 315.273 102.851 324.296 99.0328C325.641 98.421 326.79 99.9138 325.47 100.893Z" fill="#FF9900"/>
<path fill-rule="evenodd" clip-rule="evenodd" d="M328.82 97.0781C327.793 95.7566 322.022 96.4418 319.405 96.76C318.623 96.8579 318.501 96.1726 319.21 95.6587C323.807 92.4282 331.363 93.3582 332.243 94.435C333.123 95.5363 331.998 103.099 327.695 106.721C327.035 107.284 326.399 106.99 326.692 106.256C327.67 103.833 329.847 98.3752 328.82 97.0781Z" fill="#FF9900"/>
<path d="M495.292 296.458H501.918L498.414 290.836L491.984 301H489.057L496.879 288.791C497.219 288.298 497.785 288 498.414 288C499.022 288 499.589 288.288 499.919 288.771L507.771 301H504.845L503.464 298.729H496.755L495.292 296.458ZM525.692 298.729V288.123H523.209V299.767C523.209 300.085 523.332 300.394 523.569 300.63C523.806 300.866 524.126 301 524.476 301H535.802L537.265 298.729H525.692ZM484.605 296.828C487.016 296.828 488.974 294.885 488.974 292.481C488.974 290.076 487.016 288.123 484.605 288.123H473.74V301H476.223V290.394H484.44C485.594 290.394 486.522 291.33 486.522 292.481C486.522 293.632 485.594 294.567 484.44 294.567L477.439 294.557L484.852 301H488.459L483.471 296.828H484.605ZM458.457 301C454.893 301 452 298.123 452 294.567C452 291.011 454.893 288.123 458.457 288.123H465.963C469.528 288.123 472.419 291.011 472.419 294.567C472.419 298.123 469.528 301 465.963 301H458.457ZM465.796 298.729C468.105 298.729 469.976 296.869 469.976 294.567C469.976 292.265 468.105 290.394 465.796 290.394H458.623C456.315 290.394 454.443 292.265 454.443 294.567C454.443 296.869 456.315 298.729 458.623 298.729H465.796ZM512.955 301C509.389 301 506.494 298.123 506.494 294.567C506.494 291.011 509.389 288.123 512.955 288.123H521.869L520.416 290.394H513.12C510.811 290.394 508.936 292.265 508.936 294.567C508.936 296.869 510.811 298.729 513.12 298.729H522.075L520.612 301H512.955ZM543.325 298.729C541.418 298.729 539.8 297.455 539.306 295.697H549.92L551.383 293.426H539.306C539.8 291.679 541.418 290.394 543.325 290.394H550.611L552.084 288.123H543.16C539.594 288.123 536.698 291.011 536.698 294.567C536.698 298.123 539.594 301 543.16 301H550.817L552.28 298.729H543.325Z" fill="#D83831"/>
<path d="M553.413 289.49C553.413 288.863 553.918 288.359 554.547 288.359C555.186 288.359 555.691 288.863 555.691 289.49C555.691 290.127 555.186 290.63 554.547 290.63C553.918 290.63 553.413 290.127 553.413 289.49ZM554.547 290.949C555.351 290.949 556 290.301 556 289.5C556 288.698 555.351 288.051 554.547 288.051C553.753 288.051 553.104 288.698 553.104 289.5C553.104 290.301 553.753 290.949 554.547 290.949ZM554.413 288.637C554.64 288.637 554.732 288.647 554.836 288.688C555.124 288.78 555.155 289.037 555.155 289.14C555.155 289.161 555.155 289.212 555.134 289.274C555.124 289.335 555.083 289.459 554.939 289.551C554.918 289.561 554.908 289.572 554.866 289.592L555.237 290.26H554.877L554.547 289.644H554.32V290.26H554.001V288.637H554.413ZM554.526 289.376C554.629 289.366 554.732 289.366 554.794 289.274C554.825 289.233 554.836 289.191 554.836 289.13C554.836 289.048 554.784 288.976 554.712 288.935C554.64 288.904 554.568 288.904 554.413 288.904H554.32V289.376H554.526Z" fill="#D83831"/>
<path d="M77.5219 91.1651L82.913 105.775H80.175L78.9098 102.132H73.2686L72.0506 105.76H69.3362L74.7273 91.1506L77.5219 91.1651ZM76.0443 93.8779L73.9295 100.026H78.2206L76.1152 93.8779H76.0443Z" fill="#737373"/>
<path d="M84.1211 95.3042H92.3163V96.292L86.9346 103.818H92.3446V105.775H83.7434V104.604L89.0401 97.2557H84.1211V95.3042Z" fill="#737373"/>
<path d="M102.622 95.3042V105.775H100.191V104.397H100.149C99.8226 104.874 99.3799 105.256 98.8645 105.505C98.304 105.781 97.6881 105.92 97.0659 105.91C96.5664 105.945 96.0653 105.871 95.5962 105.693C95.1272 105.514 94.7011 105.235 94.3467 104.874C93.7173 104.186 93.4026 103.115 93.4026 101.66V95.3042H95.8715V101.375C95.8211 102.079 96.0022 102.779 96.3861 103.366C96.575 103.594 96.8142 103.773 97.0842 103.889C97.3542 104.004 97.6473 104.053 97.9392 104.03C98.2499 104.043 98.5593 103.983 98.8439 103.855C99.1285 103.727 99.3809 103.535 99.582 103.293C100.014 102.75 100.236 102.065 100.205 101.366V95.3042H102.622Z" fill="#737373"/>
<path d="M109.896 95.1308C110.07 95.1278 110.244 95.1407 110.416 95.1693C110.547 95.1926 110.677 95.2265 110.803 95.2705V97.7665C110.633 97.6493 110.447 97.5583 110.251 97.4967C109.965 97.4051 109.667 97.3628 109.368 97.3714C109.077 97.3717 108.79 97.4406 108.53 97.5727C108.269 97.7047 108.042 97.8964 107.867 98.1327C107.405 98.8238 107.189 99.6551 107.253 100.489V105.789H104.841V95.3043H107.258V96.9522H107.295C107.491 96.4142 107.84 95.9478 108.296 95.6126C108.766 95.2827 109.326 95.1139 109.896 95.1308Z" fill="#737373"/>
<path d="M119.499 103.134V105.163C119.013 105.457 118.484 105.669 117.931 105.789C117.254 105.953 116.56 106.033 115.864 106.03C115.193 106.07 114.521 105.965 113.892 105.721C113.264 105.477 112.694 105.099 112.219 104.613C111.351 103.669 110.916 102.355 110.916 100.672C110.861 99.203 111.36 97.7684 112.309 96.6629C112.747 96.1522 113.291 95.7463 113.9 95.474C114.509 95.2016 115.17 95.0696 115.835 95.0873C116.447 95.0525 117.06 95.1533 117.63 95.3828C118.201 95.6124 118.716 95.9653 119.14 96.4172C119.927 97.3038 120.32 98.5277 120.32 100.089V101.284H113.3C113.409 102.334 113.739 103.072 114.292 103.486C114.924 103.927 115.679 104.147 116.444 104.112C117.007 104.117 117.567 104.026 118.101 103.842C118.599 103.678 119.07 103.439 119.499 103.134ZM117.95 99.4769C117.995 98.8073 117.799 98.144 117.398 97.6122C117.199 97.3951 116.956 97.2252 116.686 97.1145C116.416 97.0037 116.126 96.9549 115.835 96.9713C115.255 96.9711 114.697 97.1988 114.277 97.6074C113.779 98.1109 113.457 98.768 113.362 99.4769H117.95Z" fill="#737373"/>
<path d="M85.6792 71.0817V85.6914H83.1914V74.2378H83.1536L78.7114 85.6914H77.0639L72.5131 74.2378H72.4848V85.6914H70.1858V71.0817H73.7499L77.8617 81.8944H77.9325L82.2709 71.0673L85.6792 71.0817ZM87.7564 72.19C87.7521 71.9978 87.7887 71.807 87.8637 71.6306C87.9387 71.4542 88.0502 71.2966 88.1907 71.1685C88.4746 70.8985 88.8483 70.7484 89.2363 70.7484C89.6244 70.7484 89.998 70.8985 90.282 71.1685C90.4162 71.2987 90.5228 71.4557 90.5951 71.6298C90.6674 71.8039 90.7038 71.9913 90.7021 72.1804C90.705 72.3705 90.6681 72.559 90.5941 72.7335C90.52 72.908 90.4104 73.0644 90.2725 73.1922C89.988 73.461 89.6121 73.6062 89.2245 73.597C89.0327 73.6026 88.8417 73.5693 88.6626 73.499C88.4835 73.4287 88.3199 73.3228 88.1812 73.1874C88.046 73.0607 87.9383 72.9065 87.8652 72.7347C87.792 72.5629 87.7549 72.3773 87.7564 72.19ZM90.4189 75.216V85.6914H88.0066V75.216H90.4189ZM97.7454 83.8893C98.1538 83.8781 98.5569 83.7916 98.9351 83.6339C99.362 83.4668 99.764 83.2398 100.129 82.9593V85.2673C99.7185 85.5015 99.2764 85.6736 98.817 85.7781C98.2887 85.8983 97.7486 85.9565 97.2073 85.9516C96.5286 85.9844 95.8506 85.8724 95.2167 85.6227C94.5828 85.373 94.0068 84.9911 93.5257 84.5014C93.0446 84.0116 92.6688 83.4249 92.4224 82.7785C92.176 82.1322 92.0644 81.4405 92.0947 80.7476C92.044 79.2238 92.5658 77.7379 93.5534 76.5941C94.5196 75.5019 95.887 74.9558 97.6557 74.9558C98.119 74.9587 98.5802 75.0186 99.0295 75.1341C99.4118 75.2242 99.7814 75.3634 100.129 75.5485V77.9095C99.7774 77.645 99.3934 77.428 98.987 77.2639C98.6072 77.1151 98.2041 77.0384 97.7974 77.0374C97.3676 77.0217 96.9395 77.0995 96.5415 77.2656C96.1435 77.4318 95.7847 77.6825 95.4889 78.0011C94.8781 78.703 94.5626 79.6222 94.6109 80.5597C94.5847 81.009 94.6459 81.4592 94.7909 81.8842C94.9359 82.3093 95.1619 82.7009 95.4559 83.0364C95.7606 83.3349 96.1226 83.5657 96.5191 83.7142C96.9157 83.8626 97.338 83.9255 97.7596 83.8989L97.7454 83.8893ZM107.008 75.0329C107.182 75.031 107.355 75.0456 107.527 75.0763C107.661 75.095 107.792 75.129 107.919 75.1775V77.6734C107.747 77.5562 107.559 77.4653 107.362 77.4036C107.076 77.312 106.778 77.2697 106.479 77.2783C106.188 77.2787 105.901 77.3476 105.641 77.4796C105.38 77.6117 105.154 77.8033 104.978 78.0396C104.516 78.7325 104.301 79.5658 104.369 80.4007V85.701H101.952V75.216H104.369V76.8687H104.406C104.602 76.3307 104.951 75.8644 105.407 75.5292C105.877 75.1985 106.437 75.0281 107.008 75.0425V75.0329ZM108.046 80.5982C108.007 79.8492 108.115 79.0998 108.362 78.3934C108.609 77.687 108.991 77.0378 109.486 76.4833C110.43 75.4714 111.76 74.9654 113.475 74.9654C114.169 74.9203 114.864 75.0258 115.515 75.2749C116.166 75.5241 116.758 75.9113 117.251 76.411C118.193 77.4937 118.68 78.9113 118.606 80.3573C118.643 81.0973 118.534 81.8373 118.287 82.534C118.04 83.2306 117.659 83.87 117.167 84.4145C116.653 84.9285 116.04 85.328 115.367 85.5876C114.694 85.8472 113.976 85.9613 113.258 85.9227C112.565 85.9549 111.873 85.8434 111.224 85.5949C110.575 85.3464 109.982 84.9662 109.481 84.4771C109 83.9633 108.625 83.356 108.378 82.6913C108.132 82.0266 108.019 81.3181 108.046 80.6079V80.5982ZM110.562 80.5163C110.501 81.4136 110.76 82.3032 111.289 83.0219C111.551 83.3166 111.875 83.5476 112.236 83.6977C112.597 83.8478 112.987 83.9132 113.376 83.8893C113.753 83.914 114.131 83.8484 114.479 83.6979C114.828 83.5473 115.137 83.3158 115.382 83.0219C115.893 82.2697 116.136 81.3617 116.071 80.4489C116.136 79.5399 115.884 78.6368 115.358 77.8999C115.106 77.6142 114.792 77.3913 114.442 77.2485C114.092 77.1057 113.714 77.0466 113.338 77.0759C112.949 77.0544 112.561 77.1245 112.204 77.2808C111.846 77.437 111.528 77.6753 111.275 77.977C110.757 78.7173 110.505 79.6178 110.562 80.526V80.5163ZM122.18 77.9577C122.172 78.1122 122.197 78.2667 122.254 78.41C122.311 78.5533 122.399 78.6819 122.51 78.7865C122.955 79.1136 123.445 79.3702 123.964 79.5478C124.739 79.8136 125.438 80.2704 125.999 80.8777C126.391 81.3859 126.597 82.0185 126.58 82.6654C126.592 83.1227 126.498 83.5765 126.305 83.9894C126.112 84.4024 125.826 84.7628 125.47 85.0409C124.596 85.6813 123.533 85.9976 122.458 85.9371C121.982 85.9321 121.508 85.8788 121.042 85.7781C120.592 85.6923 120.152 85.5566 119.73 85.3734V82.9641C120.167 83.2755 120.643 83.5251 121.146 83.7062C121.586 83.8802 122.053 83.9748 122.525 83.9856C122.94 84.0121 123.356 83.9309 123.733 83.7495C123.863 83.6684 123.968 83.5519 124.036 83.4131C124.105 83.2744 124.134 83.1188 124.12 82.9641C124.121 82.7988 124.086 82.6354 124.016 82.486C123.947 82.3367 123.845 82.2053 123.719 82.1016C123.247 81.7603 122.73 81.4879 122.185 81.2921C121.463 81.0278 120.814 80.5879 120.296 80.0104C119.91 79.4908 119.713 78.8502 119.739 78.1986C119.732 77.7494 119.828 77.3047 120.019 76.9004C120.211 76.4961 120.494 76.1435 120.844 75.8713C121.66 75.2318 122.672 74.9075 123.7 74.9558C124.106 74.9612 124.51 75.0031 124.909 75.0811C125.291 75.1451 125.666 75.25 126.027 75.3943V77.7409C125.678 77.5074 125.302 77.3181 124.909 77.1771C124.503 77.0268 124.075 76.9486 123.643 76.9458C123.266 76.9235 122.89 77.0193 122.567 77.2205C122.446 77.3013 122.347 77.4122 122.279 77.5429C122.211 77.6735 122.177 77.8196 122.18 77.9674V77.9577ZM127.618 80.5982C127.579 79.8492 127.687 79.0998 127.934 78.3934C128.181 77.687 128.563 77.0378 129.058 76.4833C130.002 75.4714 131.343 74.9654 133.047 74.9654C133.741 74.9203 134.436 75.0258 135.087 75.2749C135.738 75.5241 136.33 75.9113 136.824 76.411C137.766 77.4937 138.252 78.9113 138.179 80.3573C138.215 81.0973 138.106 81.8373 137.859 82.534C137.612 83.2306 137.231 83.87 136.739 84.4145C136.225 84.9285 135.612 85.328 134.939 85.5876C134.267 85.8472 133.548 85.9613 132.83 85.9227C132.137 85.9549 131.446 85.8434 130.796 85.5949C130.147 85.3464 129.554 84.9662 129.053 84.4771C128.572 83.9633 128.197 83.356 127.951 82.6913C127.704 82.0266 127.591 81.3181 127.618 80.6079V80.5982ZM130.134 80.5163C130.074 81.4136 130.332 82.3032 130.861 83.0219C131.123 83.3172 131.446 83.5485 131.808 83.6986C132.169 83.8488 132.559 83.9139 132.948 83.8893C133.325 83.914 133.703 83.8484 134.052 83.6979C134.4 83.5473 134.709 83.3158 134.954 83.0219C135.465 82.2697 135.708 81.3617 135.643 80.4489C135.709 79.5399 135.456 78.6368 134.931 77.8999C134.68 77.6168 134.369 77.3956 134.023 77.2528C133.676 77.1101 133.302 77.0496 132.929 77.0759C132.54 77.0541 132.152 77.124 131.794 77.2803C131.437 77.4366 131.119 77.675 130.866 77.977C130.341 78.7148 130.082 79.6155 130.134 80.526V80.5163ZM146.185 77.2253H142.588V85.6914H140.142V77.2349H138.429V75.216H140.142V73.7705C140.124 73.2689 140.208 72.769 140.388 72.3022C140.569 71.8353 140.842 71.4116 141.19 71.0576C141.548 70.7058 141.971 70.431 142.435 70.2497C142.899 70.0684 143.394 69.9843 143.891 70.0024C144.151 70.0005 144.411 70.015 144.67 70.0458C144.873 70.0727 145.074 70.1195 145.269 70.1855V72.3153C145.135 72.2444 144.994 72.1864 144.849 72.1418C144.626 72.0707 144.393 72.0365 144.16 72.0406C143.942 72.0267 143.725 72.0628 143.523 72.1462C143.321 72.2296 143.14 72.3582 142.994 72.5225C142.689 72.9372 142.543 73.4512 142.583 73.968V75.2305H146.18V72.8646L148.607 72.1081V75.216H151.052V77.2349H148.607V82.1353C148.56 82.6171 148.682 83.1001 148.951 83.499C149.092 83.6414 149.262 83.7509 149.449 83.8199C149.635 83.889 149.834 83.9159 150.032 83.8989C150.205 83.8936 150.376 83.8577 150.537 83.7929C150.718 83.735 150.891 83.654 151.052 83.552V85.5902C150.81 85.7078 150.552 85.7889 150.287 85.8311C149.941 85.9072 149.588 85.9459 149.234 85.9468C148.817 85.9787 148.398 85.921 148.003 85.7775C147.609 85.6339 147.248 85.4076 146.945 85.1132C146.386 84.4102 146.112 83.5152 146.18 82.6124L146.185 77.2253Z" fill="#737373"/>
<path d="M42.1544 71.0818H26V87.5706H42.1544V71.0818Z" fill="#F25022"/>
<path d="M59.9895 71.0818H43.8352V87.5706H59.9895V71.0818Z" fill="#7FBA00"/>
<path d="M42.1544 89.2861H26V105.775H42.1544V89.2861Z" fill="#00A4EF"/>
<path d="M59.9895 89.2861H43.8352V105.775H59.9895V89.2861Z" fill="#FFB900"/>
<path d="M494.968 63.0311C492.55 63.0538 490.2 63.8214 488.243 65.2272C486.287 66.6331 484.821 68.6073 484.051 70.8754C483.281 73.1434 483.244 75.5926 483.946 77.8824C484.647 80.1721 486.052 82.1887 487.966 83.6516L493.097 78.5883C492.413 78.3041 491.853 77.7912 491.385 77.2222C490.917 76.6533 490.597 75.979 490.455 75.2591C490.312 74.5391 490.351 73.7955 490.568 73.0938C490.784 72.3922 491.172 71.7541 491.697 71.2358C492.222 70.7175 492.867 70.335 493.577 70.122C494.286 69.909 495.038 69.872 495.765 70.0144C496.492 70.1567 497.173 70.474 497.747 70.9383C498.321 71.4025 498.771 71.9994 499.057 72.6763L504.23 67.5464C503.143 66.1372 501.742 64.9962 500.135 64.2128C498.528 63.4295 496.759 63.025 494.968 63.0311Z" fill="#FBBC05"/>
<path d="M514.54 57.2417C516.887 59.304 518.634 62.0433 519.455 65.0416C521.51 66.429 523.061 68.4322 523.88 70.7567C524.699 73.0812 524.742 75.6043 524.004 77.9551C523.265 80.3058 521.784 82.36 519.778 83.8158C517.772 85.2715 515.347 86.0519 512.859 86.0422H503.914L503.913 86.0416V78.9792L503.914 78.9787H512.859C513.936 78.8268 514.922 78.2956 515.634 77.4825C516.347 76.6695 516.74 75.6292 516.74 74.5528C516.74 73.4764 516.347 72.4361 515.634 71.6231C514.922 70.81 513.936 70.2788 512.859 70.1269V69.2552C512.877 67.9191 512.592 66.5962 512.025 65.3835C511.459 64.1708 510.599 63.1766 509.558 62.3249L514.54 57.2417Z" fill="#4285F4"/>
<path d="M493.089 78.5842C493.663 78.8435 494.337 78.966 494.968 78.9569H503.913V86.0428H494.968C492.443 86.0501 489.971 85.1529 487.952 83.6517L493.089 78.5842Z" fill="#34A853"/>
<path d="M454.307 115.18C452.748 115.198 451.218 114.76 449.909 113.92C448.601 113.079 447.573 111.875 446.955 110.458C446.337 109.041 446.156 107.475 446.435 105.957C446.715 104.438 447.441 103.036 448.524 101.925C448.569 101.887 448.61 101.846 448.649 101.802C449.383 101.058 450.262 100.467 451.232 100.066C452.203 99.6648 453.244 99.4608 454.296 99.4662C455.302 99.449 456.301 99.6321 457.235 100.005C458.168 100.377 459.016 100.931 459.729 101.634L458.159 103.188C457.128 102.194 455.746 101.637 454.307 101.634C453.552 101.628 452.804 101.777 452.11 102.072C451.416 102.366 450.791 102.799 450.275 103.344C449.189 104.4 448.571 105.839 448.558 107.345C448.544 108.85 449.135 110.3 450.202 111.375C451.268 112.449 452.722 113.061 454.244 113.074C455.766 113.088 457.231 112.503 458.317 111.447C458.966 110.709 459.362 109.785 459.446 108.81H454.307V106.619H461.581C461.66 107.058 461.694 107.504 461.683 107.949C461.723 108.866 461.576 109.782 461.252 110.642C460.928 111.502 460.433 112.289 459.796 112.956C459.092 113.689 458.238 114.266 457.292 114.649C456.346 115.032 455.329 115.213 454.307 115.18ZM471.328 113.761C470.607 114.47 469.689 114.952 468.691 115.146C467.692 115.34 466.659 115.237 465.72 114.851C464.78 114.464 463.978 113.811 463.414 112.973C462.849 112.136 462.548 111.152 462.548 110.145C462.548 109.139 462.849 108.155 463.414 107.317C463.978 106.48 464.78 105.827 465.72 105.44C466.659 105.053 467.692 104.95 468.691 105.144C469.689 105.338 470.607 105.82 471.328 106.53C472.277 107.499 472.807 108.796 472.807 110.145C472.807 111.495 472.277 112.791 471.328 113.761ZM465.681 112.33C465.927 112.596 466.224 112.811 466.555 112.963C466.886 113.114 467.243 113.2 467.608 113.214C467.972 113.229 468.335 113.172 468.677 113.047C469.019 112.922 469.333 112.732 469.6 112.487L469.747 112.341C470.036 112.047 470.26 111.696 470.406 111.311C470.552 110.927 470.616 110.516 470.594 110.106C470.61 109.697 470.543 109.288 470.398 108.904C470.252 108.52 470.031 108.169 469.747 107.871C469.23 107.337 468.519 107.027 467.772 107.011C467.025 106.994 466.301 107.271 465.76 107.781L465.67 107.86C465.385 108.158 465.164 108.509 465.019 108.893C464.873 109.277 464.806 109.685 464.822 110.095C464.797 110.505 464.858 110.915 465.002 111.3C465.146 111.685 465.37 112.036 465.658 112.33H465.681ZM482.465 113.761C481.742 114.474 480.823 114.959 479.822 115.156C478.821 115.352 477.783 115.25 476.841 114.863C475.898 114.476 475.093 113.821 474.526 112.982C473.96 112.142 473.657 111.155 473.657 110.145C473.657 109.136 473.96 108.149 474.526 107.309C475.093 106.469 475.898 105.814 476.841 105.428C477.783 105.041 478.821 104.939 479.822 105.135C480.823 105.331 481.742 105.817 482.465 106.53C483.403 107.506 483.924 108.803 483.919 110.15C483.915 111.497 483.386 112.79 482.442 113.761H482.465ZM476.817 112.33C477.063 112.596 477.359 112.81 477.689 112.962C478.018 113.113 478.375 113.199 478.738 113.213C479.102 113.228 479.464 113.171 479.805 113.047C480.146 112.922 480.459 112.732 480.725 112.487L480.849 112.341C481.401 111.742 481.707 110.961 481.707 110.151C481.707 109.34 481.401 108.559 480.849 107.96C480.335 107.435 479.633 107.13 478.894 107.111C478.155 107.092 477.437 107.361 476.896 107.86L476.817 107.938C476.526 108.231 476.299 108.582 476.151 108.966C476.003 109.351 475.938 109.762 475.959 110.173C475.946 110.583 476.016 110.992 476.163 111.376C476.31 111.759 476.533 112.11 476.817 112.409V112.33ZM489.829 119.74C488.822 119.745 487.842 119.423 487.039 118.824C486.314 118.279 485.743 117.559 485.379 116.734L487.344 115.929C487.55 116.424 487.885 116.856 488.315 117.181C488.751 117.543 489.305 117.737 489.874 117.729C490.244 117.749 490.615 117.692 490.961 117.561C491.308 117.43 491.622 117.228 491.884 116.969C492.4 116.341 492.651 115.54 492.585 114.733V114.007H492.505C492.178 114.386 491.765 114.685 491.301 114.879C490.836 115.073 490.332 115.157 489.829 115.124C489.182 115.137 488.54 115.019 487.942 114.777C487.344 114.534 486.802 114.174 486.35 113.716C485.866 113.262 485.48 112.717 485.214 112.112C484.948 111.507 484.808 110.855 484.803 110.196C484.791 109.529 484.918 108.868 485.176 108.252C485.435 107.637 485.819 107.081 486.305 106.619C486.734 106.147 487.255 105.767 487.838 105.502C488.421 105.237 489.052 105.092 489.693 105.077C490.234 105.081 490.768 105.195 491.263 105.412C491.692 105.6 492.076 105.874 492.393 106.217H492.472V105.412H494.629V114.443C494.68 115.159 494.586 115.878 494.351 116.558C494.116 117.238 493.746 117.864 493.262 118.399C492.323 119.275 491.073 119.748 489.783 119.718L489.829 119.74ZM489.987 113.213C490.35 113.219 490.71 113.146 491.042 112.999C491.374 112.853 491.669 112.636 491.907 112.364C492.45 111.772 492.738 110.994 492.709 110.196C492.747 109.377 492.463 108.577 491.918 107.96C491.68 107.688 491.385 107.471 491.053 107.325C490.722 107.178 490.361 107.105 489.998 107.111C489.62 107.103 489.244 107.175 488.895 107.321C488.547 107.467 488.233 107.685 487.976 107.96C487.394 108.535 487.062 109.312 487.049 110.126C487.037 110.94 487.345 111.726 487.909 112.319C488.173 112.605 488.496 112.831 488.857 112.982C489.217 113.132 489.607 113.203 489.998 113.191L489.987 113.213ZM498.458 100.059V114.89H496.199V100.036L498.458 100.059ZM504.568 115.203C503.898 115.219 503.232 115.099 502.61 114.851C501.989 114.604 501.425 114.232 500.954 113.761C500.028 112.78 499.513 111.488 499.513 110.145C499.513 108.803 500.028 107.511 500.954 106.53C501.6 105.854 502.437 105.386 503.355 105.186C504.274 104.987 505.231 105.066 506.104 105.412C506.585 105.621 507.021 105.916 507.392 106.284C507.721 106.596 508.013 106.945 508.261 107.323C508.464 107.637 508.634 107.97 508.77 108.318L508.996 108.888L502.128 111.682C502.334 112.158 502.68 112.561 503.121 112.839C503.563 113.116 504.079 113.254 504.602 113.236C505.109 113.236 505.607 113.105 506.047 112.856C506.487 112.607 506.853 112.249 507.109 111.816L508.837 112.934C508.392 113.55 507.832 114.077 507.188 114.487C506.396 114.96 505.481 115.189 504.557 115.147L504.568 115.203ZM501.744 109.972L506.262 108.094C506.126 107.762 505.879 107.486 505.562 107.312C505.214 107.129 504.827 107.029 504.433 107.021C504.06 107.039 503.694 107.129 503.356 107.287C503.019 107.445 502.716 107.667 502.466 107.942C502.216 108.216 502.024 108.537 501.9 108.885C501.776 109.234 501.723 109.603 501.744 109.972Z" fill="#5F6368"/>
<path d="M520.686 115.181C519.759 115.197 518.838 115.032 517.975 114.696C517.112 114.36 516.325 113.859 515.658 113.222C514.991 112.585 514.457 111.824 514.087 110.982C513.718 110.141 513.519 109.236 513.503 108.318V108.028C513.48 107.109 513.641 106.194 513.975 105.337C514.31 104.48 514.812 103.696 515.453 103.031C516.094 102.365 516.861 101.832 517.711 101.46C518.56 101.088 519.475 100.885 520.404 100.863H520.686C521.65 100.835 522.608 101.021 523.49 101.408C524.372 101.794 525.154 102.372 525.78 103.099L524.65 104.295C524.194 103.725 523.609 103.269 522.942 102.964C522.275 102.66 521.545 102.514 520.81 102.54C520.099 102.528 519.393 102.66 518.734 102.927C518.076 103.194 517.48 103.591 516.981 104.093C515.979 105.172 515.423 106.584 515.423 108.05C515.423 109.516 515.979 110.928 516.981 112.006C517.48 112.508 518.077 112.904 518.735 113.171C519.393 113.438 520.099 113.57 520.81 113.56C521.629 113.566 522.439 113.392 523.182 113.05C523.924 112.708 524.58 112.206 525.102 111.582L526.333 112.8C525.69 113.566 524.879 114.178 523.961 114.588C522.932 115.038 521.81 115.24 520.686 115.181Z" fill="#5F6368"/>
<path d="M529.552 114.878H527.722V101.154H529.507L529.552 114.878Z" fill="#5F6368"/>
<path d="M532.421 106.619C533.351 105.702 534.61 105.187 535.922 105.187C537.235 105.187 538.494 105.702 539.424 106.619C540.307 107.601 540.794 108.87 540.794 110.184C540.794 111.499 540.307 112.767 539.424 113.749C538.491 114.661 537.233 115.173 535.922 115.173C534.612 115.173 533.353 114.661 532.421 113.749C531.538 112.767 531.051 111.499 531.051 110.184C531.051 108.87 531.538 107.601 532.421 106.619ZM533.743 112.643C534.011 112.928 534.333 113.157 534.691 113.317C535.049 113.478 535.436 113.566 535.829 113.578C536.222 113.589 536.613 113.523 536.98 113.384C537.347 113.244 537.682 113.034 537.967 112.766L538.08 112.654C538.676 111.969 539.004 111.094 539.004 110.19C539.004 109.285 538.676 108.411 538.08 107.725C537.812 107.444 537.491 107.218 537.135 107.059C536.779 106.901 536.395 106.814 536.005 106.802C535.614 106.791 535.226 106.855 534.861 106.993C534.496 107.13 534.162 107.337 533.878 107.602L533.754 107.714C533.441 108.044 533.199 108.432 533.041 108.857C532.884 109.281 532.815 109.733 532.839 110.184C532.823 110.632 532.897 111.079 533.056 111.499C533.215 111.919 533.456 112.304 533.765 112.632L533.743 112.643Z" fill="#5F6368"/>
<path d="M550.673 114.878H548.967V113.582C548.646 114.048 548.216 114.431 547.714 114.699C547.175 115.009 546.563 115.171 545.941 115.169C545.435 115.194 544.93 115.107 544.463 114.913C543.995 114.72 543.578 114.425 543.241 114.051C542.594 113.24 542.272 112.221 542.338 111.19V105.501H544.111V110.967C544.111 112.71 544.89 113.593 546.46 113.593C546.806 113.602 547.149 113.529 547.461 113.382C547.773 113.234 548.046 113.015 548.256 112.744C548.709 112.146 548.936 111.411 548.9 110.665V105.501H550.673V114.878Z" fill="#5F6368"/>
<path d="M556.716 115.18C556.122 115.178 555.536 115.05 554.996 114.805C554.457 114.56 553.976 114.204 553.587 113.761C552.729 112.767 552.257 111.503 552.257 110.195C552.257 108.888 552.729 107.624 553.587 106.63C554.199 105.931 555.029 105.455 555.946 105.277C556.863 105.099 557.813 105.229 558.647 105.646C559.168 105.905 559.614 106.29 559.946 106.764H560.025L559.946 105.501V101.154H561.719V114.878H559.991V113.582C559.659 114.056 559.213 114.44 558.692 114.699C558.086 115.026 557.405 115.191 556.716 115.18ZM556.998 113.638C557.402 113.638 557.802 113.555 558.171 113.393C558.541 113.232 558.872 112.995 559.144 112.699C559.743 112.022 560.048 111.138 559.991 110.24C560.048 109.335 559.743 108.444 559.144 107.759C558.627 107.194 557.905 106.856 557.136 106.818C556.367 106.78 555.615 107.046 555.044 107.558L554.829 107.736C554.273 108.44 553.971 109.308 553.971 110.201C553.971 111.094 554.273 111.962 554.829 112.665C555.104 112.955 555.437 113.185 555.806 113.341C556.176 113.496 556.574 113.575 556.975 113.571L556.998 113.638Z" fill="#5F6368"/>
<path d="M514.539 57.2386L509.561 62.3264C507.794 60.9078 505.546 60.2123 503.278 60.3827C501.009 60.5531 498.893 61.5768 497.363 63.2434C497.36 63.2514 497.357 63.2596 497.354 63.268C496.572 63.1082 495.772 63.0282 494.968 63.031C492.62 63.053 490.334 63.7781 488.412 65.1084C488.408 65.0734 488.407 65.0367 488.407 64.9981C489.121 62.3892 490.495 60.0036 492.401 58.0668C494.306 56.1301 496.679 54.7061 499.295 53.9297C501.912 53.1532 504.685 53.0498 507.353 53.6294C510.019 54.2086 512.492 55.4508 514.539 57.2386Z" fill="#EA4335"/>
<path d="M233.21 284.123C231.799 284.417 230.283 285.583 229.653 286.857C229.023 288.131 229 288.444 229 293.804C229 296.665 229.047 299.02 229.117 299.393C229.319 300.459 229.826 301.44 230.571 302.208C231.317 302.977 232.268 303.499 233.303 303.708C233.945 303.828 242.295 303.888 242.295 303.756C242.295 303.659 241.584 300.775 241.549 300.739C241.537 300.715 240.056 300.378 238.26 299.982C234.073 299.044 234.201 299.08 233.852 298.648L233.548 298.275V289.549L233.852 289.171C234.201 288.738 234.073 288.774 238.26 287.837C240.056 287.44 241.537 287.104 241.549 287.08C241.584 287.044 242.295 284.159 242.295 284.063C242.295 283.949 233.77 284.003 233.21 284.123ZM246.727 284.141C246.738 284.357 247.391 287.001 247.461 287.074C247.485 287.11 249.083 287.482 250.995 287.903C252.908 288.324 254.61 288.756 254.762 288.84C254.967 288.963 255.14 289.136 255.264 289.345C255.45 289.682 255.473 290.042 255.473 293.912C255.473 297.782 255.45 298.143 255.264 298.479C255.136 298.685 254.965 298.858 254.762 298.984C254.61 299.068 252.919 299.489 250.995 299.922C249.071 300.354 247.485 300.715 247.461 300.751C247.391 300.823 246.738 303.467 246.727 303.683C246.727 303.816 247.566 303.84 251.252 303.804C256.336 303.756 256.395 303.744 257.689 302.842C258.619 302.183 259.322 301.236 259.695 300.138C259.963 299.333 259.963 299.261 259.963 293.912C259.963 288.564 259.963 288.492 259.695 287.687C259.322 286.589 258.619 285.642 257.689 284.982C256.395 284.081 256.336 284.069 251.252 284.021C247.566 283.985 246.727 284.003 246.727 284.141ZM268.43 288.227C267.626 289.958 266.821 292.097 265.993 294.693C265.433 296.436 264.337 300.33 264.337 300.547C264.647 300.578 264.958 300.59 265.27 300.583H266.191L266.319 300.066C266.401 299.789 266.599 299.044 266.774 298.419L267.089 297.277H273.492L273.818 298.479C273.993 299.14 274.191 299.886 274.261 300.126L274.378 300.583H275.299C275.813 300.583 276.232 300.571 276.232 300.547C276.232 300.523 275.999 299.633 275.708 298.551C274.646 294.597 273.293 290.703 272.151 288.263L271.544 287.001H269.002L268.43 288.227ZM271.194 290.631C271.766 292.013 272.85 295.042 272.85 295.246C272.85 295.27 271.696 295.294 270.285 295.294C268.873 295.294 267.719 295.246 267.719 295.198C267.719 294.994 268.897 291.761 269.468 290.379C269.911 289.309 270.133 288.924 270.285 288.924C270.436 288.924 270.669 289.369 271.194 290.631ZM277.399 293.792V300.583H279.265V287.001H277.399V293.792ZM281.597 287.158C281.378 287.309 281.201 287.516 281.084 287.759C280.897 288.167 280.886 288.263 281.037 288.66C281.134 288.95 281.337 289.19 281.602 289.329C281.868 289.468 282.175 289.496 282.46 289.405C283.043 289.213 283.288 288.864 283.288 288.239C283.288 287.783 283.23 287.65 282.903 287.35C282.495 286.977 282.075 286.905 281.597 287.158ZM284.979 293.768V300.547L286.414 300.655C287.195 300.703 288.419 300.763 289.119 300.763C290.297 300.763 290.46 300.739 291.079 300.414C291.439 300.246 291.759 299.998 292.017 299.689C292.275 299.379 292.464 299.016 292.571 298.624C292.641 298.335 292.676 297.061 292.653 295.318C292.618 292.638 292.606 292.446 292.361 291.965C291.907 291.1 291.218 290.679 289.947 290.499C289.271 290.403 287.591 290.499 287.078 290.667C286.857 290.739 286.845 290.691 286.845 288.876V287.001H284.979V293.768ZM290.285 292.47C290.513 292.556 290.701 292.728 290.81 292.951C290.962 293.359 290.962 297.83 290.81 298.227C290.635 298.72 290.064 298.948 288.944 298.948C288.43 298.954 287.915 298.922 287.405 298.852L286.845 298.768V292.554L287.521 292.434C288.559 292.254 289.831 292.266 290.285 292.47ZM303.522 293.78V300.559L304.665 300.619C305.283 300.667 306.356 300.727 307.044 300.775C308.642 300.871 309.645 300.607 310.298 299.898C311.138 299.008 311.161 298.9 311.196 295.871C311.231 293.672 311.208 293.011 311.056 292.506C310.741 291.376 309.832 290.667 308.444 290.499C307.744 290.415 305.913 290.511 305.54 290.667C305.423 290.703 305.388 290.295 305.388 288.864V287.001H303.522V293.78ZM308.759 292.416C308.957 292.488 309.178 292.644 309.237 292.764C309.365 293.005 309.4 298.029 309.283 298.353C309.085 298.882 307.511 299.11 305.948 298.846L305.388 298.762V292.554L306.065 292.434C306.998 292.278 308.315 292.266 308.759 292.416ZM327.29 287.122C326.124 287.338 325.529 287.626 324.923 288.251C323.99 289.213 323.931 289.561 323.931 293.912C323.931 298.263 323.99 298.612 324.934 299.585C325.424 300.102 325.681 300.258 326.392 300.486C327.138 300.727 327.5 300.763 329.063 300.763C330.415 300.763 331.115 300.703 331.815 300.535C332.187 300.458 332.554 300.354 332.911 300.222C333.005 300.162 332.993 299.946 332.853 299.369C332.787 299.077 332.698 298.791 332.585 298.515C332.538 298.467 332.246 298.503 331.943 298.6C330.905 298.924 329.086 299.056 327.955 298.912C326.823 298.768 326.404 298.576 326.042 298.107C325.809 297.794 325.797 297.662 325.797 293.912C325.797 290.162 325.809 290.03 326.042 289.718C326.404 289.249 326.812 289.069 327.955 288.912C329.098 288.756 330.905 288.9 331.943 289.225C332.258 289.321 332.538 289.405 332.573 289.405C332.666 289.405 333.074 287.735 333.005 287.662C332.97 287.626 332.538 287.494 332.025 287.35C330.999 287.074 328.258 286.941 327.29 287.122ZM334.661 293.792V300.583H336.41V287.001H334.661V293.792ZM361.134 288.804V290.607L360.469 290.535C360.096 290.499 359.676 290.451 359.536 290.415C359.14 290.343 357.67 290.583 357.25 290.799C356.707 291.097 356.261 291.552 355.968 292.109C355.734 292.554 355.711 292.807 355.676 295.258C355.629 298.539 355.723 299.02 356.574 299.874C357.332 300.631 358.23 300.883 359.758 300.775C360.353 300.739 361.332 300.667 361.927 300.631L363 300.559V287.001H361.134V288.804ZM360.936 292.47C361.122 292.554 361.134 292.819 361.134 295.667V298.768L360.703 298.852C359.956 299.008 358.533 298.972 358.125 298.792C357.915 298.696 357.694 298.527 357.635 298.407C357.577 298.287 357.519 297.013 357.519 295.571C357.519 292.71 357.542 292.614 358.16 292.41C358.533 292.29 360.586 292.338 360.936 292.47ZM296.991 290.493C296.47 290.565 295.952 290.665 295.44 290.793C294.81 290.95 294.659 291.034 294.705 291.19C294.74 291.298 294.822 291.647 294.904 291.983C294.985 292.32 295.067 292.62 295.114 292.656C295.16 292.692 295.662 292.632 296.233 292.512C298.181 292.091 299.499 292.284 299.685 293.005C299.744 293.326 299.775 293.652 299.779 293.978L299.79 294.651L298.682 294.591C295.72 294.435 293.936 295.577 293.912 297.632C293.901 298.606 294.204 299.363 294.834 299.964C295.568 300.661 296.35 300.865 297.854 300.769C298.507 300.733 299.604 300.661 300.292 300.625L301.551 300.541L301.516 296.502L301.481 292.464L301.155 291.899C300.502 290.763 298.951 290.235 296.991 290.493ZM299.709 296.574C299.825 296.646 299.814 298.774 299.697 298.774C299.639 298.774 299.044 298.834 298.367 298.906C296.42 299.098 295.708 298.798 295.708 297.764C295.708 297.32 295.767 297.187 296.058 296.923C296.326 296.721 296.639 296.592 296.968 296.55C297.271 296.514 297.598 296.454 297.691 296.43C297.901 296.382 299.58 296.496 299.709 296.58V296.574ZM315.593 290.475C315.071 290.552 314.553 290.656 314.042 290.787C313.26 290.98 313.19 291.028 313.249 291.256C313.284 291.388 313.377 291.797 313.458 292.145C313.587 292.746 313.61 292.782 313.89 292.71C315.453 292.29 316.957 292.17 317.552 292.398C318.1 292.614 318.217 292.855 318.217 293.768V294.633H316.794C314.963 294.633 314.123 294.874 313.319 295.619C312.619 296.268 312.327 297.049 312.421 298.023C312.619 299.994 313.972 300.931 316.397 300.775C317.05 300.739 318.147 300.667 318.835 300.631L320.094 300.547L320.059 296.568C320.024 292.746 320.013 292.566 319.768 292.097C319.103 290.811 317.599 290.235 315.593 290.475ZM317.902 296.496H318.217V298.768L317.552 298.852C316.269 299.02 315.021 298.984 314.695 298.756C314.042 298.311 314.065 297.145 314.73 296.785C315.185 296.544 316.269 296.376 316.992 296.448C317.319 296.472 317.715 296.496 317.902 296.496ZM340.503 290.487C339.827 290.631 339.081 291.1 338.696 291.617C338.101 292.422 338.043 292.819 338.043 295.703C338.043 298.66 338.124 299.008 338.894 299.837C339.64 300.643 340.014 300.763 341.775 300.763C343.582 300.763 343.99 300.619 344.737 299.729C345.448 298.864 345.53 298.431 345.483 295.391C345.448 292.915 345.425 292.674 345.192 292.218C344.847 291.562 344.313 291.033 343.664 290.703C343.069 290.427 341.32 290.307 340.503 290.487ZM343.069 292.482C343.664 292.794 343.757 293.227 343.757 295.595C343.757 297.842 343.676 298.263 343.174 298.72C342.813 299.056 341.168 299.14 340.573 298.84C339.874 298.503 339.792 298.155 339.792 295.595C339.792 293.143 339.862 292.819 340.468 292.482C340.912 292.23 342.603 292.23 343.069 292.482ZM281.247 295.595V300.583H282.997V290.607H281.247V295.595ZM346.953 290.763C346.918 290.859 346.906 292.662 346.929 294.766C346.964 298.227 346.988 298.636 347.186 299.02C347.874 300.354 349.04 300.907 350.941 300.775C351.548 300.739 352.539 300.667 353.145 300.631L354.253 300.559V290.607H352.504V298.768L351.956 298.852C350.941 299.02 349.682 298.96 349.273 298.744C349.064 298.624 348.877 298.515 348.865 298.503C348.854 298.491 348.807 296.725 348.772 294.573L348.714 290.667L347.862 290.631C347.221 290.607 346.999 290.631 346.953 290.763Z" fill="black"/>
<path d="M241.525 293.66C241.488 293.788 241.48 293.924 241.502 294.056C241.537 294.261 241.747 294.273 244.488 294.309L247.426 294.333V293.492H244.511C242.073 293.492 241.572 293.516 241.525 293.66Z" fill="black"/>
<path d="M87.7504 467.321C87.1139 467.353 86.4903 467.51 85.9161 467.782L60.8853 479.658C60.2375 479.965 59.6682 480.412 59.2199 480.966C58.7715 481.52 58.4556 482.166 58.2955 482.856L52.1203 509.532C51.9777 510.147 51.9617 510.783 52.0733 511.404C52.1849 512.025 52.4219 512.617 52.7701 513.146C52.8546 513.276 52.9454 513.401 53.0422 513.521L70.3675 534.911C70.816 535.465 71.3853 535.912 72.0331 536.219C72.681 536.526 73.3908 536.685 74.1098 536.685L101.894 536.679C102.612 536.679 103.322 536.52 103.97 536.214C104.618 535.907 105.187 535.461 105.636 534.908L122.955 513.515C123.403 512.961 123.72 512.315 123.88 511.624C124.04 510.934 124.04 510.216 123.88 509.526L117.695 482.85C117.535 482.159 117.219 481.513 116.771 480.96C116.322 480.406 115.753 479.959 115.105 479.652L90.0713 467.782C89.3491 467.44 88.551 467.281 87.7504 467.321Z" fill="#326CE5"/>
<path d="M87.9979 476.4C87.1705 476.4 86.4996 477.14 86.4997 478.053C86.4997 478.067 86.5026 478.08 86.5029 478.094C86.5017 478.218 86.4957 478.367 86.4997 478.475C86.5195 479.002 86.635 479.405 86.7046 479.89C86.8306 480.928 86.9363 481.789 86.8711 482.589C86.8077 482.89 86.584 483.166 86.3845 483.358L86.3493 483.987C85.4502 484.061 84.5451 484.197 83.641 484.401C79.7509 485.278 76.4015 487.267 73.8515 489.954C73.686 489.842 73.3966 489.636 73.3105 489.572C73.043 489.608 72.7727 489.69 72.4205 489.487C71.7501 489.038 71.1394 488.42 70.4005 487.675C70.062 487.318 69.8168 486.979 69.4145 486.635C69.3232 486.557 69.1838 486.452 69.0816 486.371C68.7671 486.122 68.3962 485.993 68.038 485.98C67.5774 485.965 67.1341 486.144 66.8439 486.505C66.3281 487.147 66.4933 488.129 67.2121 488.698C67.2194 488.704 67.2271 488.709 67.2345 488.714C67.3332 488.794 67.4542 488.896 67.545 488.962C67.9719 489.275 68.3618 489.435 68.7871 489.684C69.6831 490.233 70.426 490.689 71.0152 491.238C71.2453 491.482 71.2855 491.911 71.3161 492.096L71.7963 492.522C69.2257 496.364 68.036 501.109 68.7391 505.943L68.1116 506.124C67.9463 506.336 67.7126 506.67 67.4682 506.77C66.6973 507.011 65.8297 507.099 64.7823 507.208C64.2906 507.249 63.8663 507.225 63.3449 507.323C63.2302 507.344 63.0703 507.386 62.9448 507.415C62.9404 507.416 62.9363 507.417 62.932 507.418C62.9251 507.42 62.9161 507.423 62.9096 507.424C62.0265 507.636 61.4592 508.442 61.6419 509.236C61.8245 510.031 62.6871 510.514 63.5754 510.323C63.5818 510.322 63.5911 510.322 63.5978 510.32C63.6079 510.318 63.6167 510.313 63.6266 510.311C63.7505 510.284 63.9057 510.254 64.014 510.225C64.5265 510.089 64.8977 509.888 65.3585 509.713C66.3498 509.36 67.1709 509.065 67.9708 508.95C68.3048 508.924 68.6568 509.155 68.8319 509.252L69.485 509.141C70.9878 513.768 74.1372 517.507 78.1252 519.853L77.8531 520.502C77.9512 520.754 78.0593 521.094 77.9863 521.343C77.6955 522.092 77.1974 522.882 76.6302 523.763C76.3556 524.17 76.0745 524.486 75.8267 524.952C75.7674 525.064 75.6919 525.235 75.6346 525.353C75.2496 526.171 75.532 527.113 76.2717 527.467C77.016 527.822 77.9399 527.447 78.3397 526.627C78.3403 526.626 78.3423 526.625 78.3429 526.624C78.3433 526.623 78.3425 526.622 78.3429 526.621C78.3998 526.505 78.4805 526.352 78.5286 526.243C78.7408 525.76 78.8115 525.346 78.9607 524.879C79.3571 523.89 79.5749 522.853 80.1206 522.206C80.27 522.029 80.5137 521.961 80.7662 521.894L81.1056 521.284C84.5822 522.609 88.4738 522.965 92.3613 522.088C93.2481 521.888 94.1042 521.629 94.9319 521.319C95.0272 521.487 95.2045 521.81 95.252 521.891C95.5087 521.974 95.7888 522.017 96.0171 522.352C96.4254 523.045 96.7046 523.864 97.0447 524.854C97.194 525.321 97.2678 525.734 97.4801 526.217C97.5285 526.327 97.6087 526.482 97.6658 526.599C98.0647 527.421 98.9916 527.798 99.737 527.441C100.477 527.087 100.759 526.145 100.374 525.327C100.317 525.209 100.238 525.038 100.179 524.927C99.9309 524.461 99.6499 524.148 99.3752 523.741C98.808 522.86 98.3375 522.128 98.0467 521.379C97.9251 520.993 98.0672 520.753 98.162 520.502C98.1052 520.437 97.9838 520.073 97.9123 519.901C102.057 517.471 105.114 513.592 106.549 509.112C106.743 509.143 107.08 509.202 107.19 509.224C107.415 509.076 107.622 508.884 108.028 508.915C108.828 509.03 109.649 509.325 110.641 509.678C111.101 509.853 111.472 510.057 111.985 510.193C112.093 510.222 112.249 510.249 112.372 510.276C112.382 510.278 112.391 510.283 112.401 510.285C112.408 510.287 112.417 510.287 112.424 510.289C113.312 510.478 114.175 509.996 114.357 509.201C114.54 508.407 113.973 507.601 113.089 507.389C112.961 507.36 112.779 507.311 112.654 507.288C112.133 507.19 111.708 507.214 111.217 507.173C110.169 507.064 109.302 506.976 108.531 506.735C108.217 506.614 107.993 506.242 107.884 506.089L107.279 505.915C107.593 503.661 107.508 501.316 106.965 498.969C106.418 496.6 105.449 494.434 104.158 492.526C104.313 492.385 104.606 492.128 104.689 492.052C104.714 491.785 104.693 491.505 104.971 491.21C105.56 490.66 106.303 490.205 107.199 489.655C107.624 489.407 108.018 489.247 108.444 488.934C108.541 488.863 108.673 488.751 108.774 488.67C109.493 488.1 109.658 487.119 109.142 486.476C108.626 485.834 107.626 485.774 106.908 486.343C106.806 486.423 106.667 486.528 106.575 486.607C106.173 486.95 105.924 487.29 105.586 487.646C104.847 488.391 104.236 489.013 103.566 489.461C103.275 489.629 102.85 489.571 102.657 489.56L102.087 489.963C98.8374 486.58 94.4134 484.417 89.6498 483.997C89.6365 483.799 89.619 483.44 89.6146 483.333C89.4196 483.147 89.184 482.989 89.1248 482.589C89.0596 481.789 89.1684 480.928 89.2944 479.89C89.364 479.405 89.4796 479.002 89.4993 478.475C89.5038 478.356 89.4966 478.182 89.4961 478.053C89.496 477.14 88.8253 476.4 87.9979 476.4ZM86.122 487.939L85.677 495.742L85.645 495.758C85.6151 496.456 85.0365 497.014 84.3261 497.014C84.0351 497.014 83.7664 496.921 83.5482 496.763L83.5354 496.769L77.0912 492.233C79.0717 490.299 81.605 488.87 84.5245 488.212C85.0579 488.092 85.5909 488.003 86.122 487.939ZM89.8771 487.939C93.2856 488.355 96.4379 489.887 98.8534 492.236L92.4509 496.744L92.4285 496.734C91.8602 497.146 91.0595 497.044 90.6166 496.493C90.4351 496.267 90.3399 496.001 90.3285 495.733L90.3221 495.73L89.8771 487.939ZM74.7543 495.148L80.6382 500.374L80.6318 500.406C81.1629 500.864 81.2412 501.66 80.7983 502.211C80.6168 502.437 80.374 502.589 80.1132 502.659L80.1068 502.685L72.5646 504.846C72.1807 501.361 73.008 497.973 74.7543 495.148ZM101.2 495.151C102.074 496.558 102.736 498.13 103.13 499.834C103.52 501.517 103.617 503.197 103.457 504.821L95.8763 502.653L95.8699 502.621C95.191 502.437 94.7739 501.751 94.9319 501.064C94.9966 500.782 95.1472 500.544 95.3513 500.368L95.3481 500.352L101.2 495.151ZM86.791 500.778H89.2016L90.6998 502.637L90.162 504.958L87.9979 505.991L85.8275 504.955L85.2897 502.634L86.791 500.778ZM94.5189 507.142C94.6214 507.136 94.7233 507.146 94.823 507.164L94.8358 507.148L102.637 508.458C101.496 511.643 99.3108 514.402 96.3917 516.249L93.3633 508.985L93.3729 508.972C93.0947 508.331 93.3731 507.578 94.0131 507.272C94.177 507.193 94.3482 507.15 94.5189 507.142ZM81.4161 507.173C82.0115 507.182 82.5455 507.592 82.6838 508.194C82.7486 508.475 82.7171 508.755 82.6102 509.001L82.6326 509.03L79.6362 516.22C76.8347 514.435 74.6034 511.762 73.4097 508.483L81.144 507.18L81.1568 507.196C81.2433 507.18 81.3311 507.172 81.4161 507.173ZM87.9499 510.323C88.1573 510.316 88.3677 510.358 88.5678 510.454C88.83 510.579 89.0325 510.777 89.16 511.013H89.1888L93.0015 517.854C92.5067 518.019 91.998 518.159 91.4777 518.277C88.5618 518.934 85.6551 518.735 83.0232 517.844L86.8263 511.016H86.8327C87.0609 510.593 87.4937 510.34 87.9499 510.323Z" fill="white" stroke="white" stroke-width="0.219373"/>
<path d="M87.7504 467.321C87.1139 467.353 86.4903 467.51 85.9161 467.782L60.8853 479.658C60.2375 479.965 59.6682 480.412 59.2199 480.966C58.7715 481.52 58.4556 482.166 58.2955 482.856L52.1203 509.532C51.9777 510.147 51.9617 510.783 52.0733 511.404C52.1849 512.025 52.4219 512.617 52.7701 513.146C52.8546 513.276 52.9454 513.401 53.0422 513.521L70.3675 534.911C70.816 535.465 71.3853 535.912 72.0331 536.219C72.681 536.526 73.3908 536.685 74.1098 536.685L101.894 536.679C102.612 536.679 103.322 536.52 103.97 536.214C104.618 535.907 105.187 535.461 105.636 534.908L122.955 513.515C123.403 512.961 123.72 512.315 123.88 511.624C124.04 510.934 124.04 510.216 123.88 509.526L117.695 482.85C117.535 482.159 117.219 481.513 116.771 480.96C116.322 480.406 115.753 479.959 115.105 479.652L90.0713 467.782C89.3491 467.44 88.551 467.281 87.7504 467.321Z" fill="#326CE5"/>
<path d="M87.9979 476.4C87.1705 476.4 86.4996 477.14 86.4997 478.053C86.4997 478.067 86.5026 478.08 86.5029 478.094C86.5017 478.218 86.4957 478.367 86.4997 478.475C86.5195 479.002 86.635 479.405 86.7046 479.89C86.8306 480.928 86.9363 481.789 86.8711 482.589C86.8077 482.89 86.584 483.166 86.3845 483.358L86.3493 483.987C85.4502 484.061 84.5451 484.197 83.641 484.401C79.7509 485.278 76.4015 487.267 73.8515 489.954C73.686 489.842 73.3966 489.636 73.3105 489.572C73.043 489.608 72.7727 489.69 72.4205 489.487C71.7501 489.038 71.1394 488.42 70.4005 487.675C70.062 487.318 69.8168 486.979 69.4145 486.635C69.3232 486.557 69.1838 486.452 69.0816 486.371C68.7671 486.122 68.3962 485.993 68.038 485.98C67.5774 485.965 67.1341 486.144 66.8439 486.505C66.3281 487.147 66.4933 488.129 67.2121 488.698C67.2194 488.704 67.2271 488.709 67.2345 488.714C67.3332 488.794 67.4542 488.896 67.545 488.962C67.9719 489.275 68.3618 489.435 68.7871 489.684C69.6831 490.233 70.426 490.689 71.0152 491.238C71.2453 491.482 71.2855 491.911 71.3161 492.096L71.7963 492.522C69.2257 496.364 68.036 501.109 68.7391 505.943L68.1116 506.124C67.9463 506.336 67.7126 506.67 67.4682 506.77C66.6973 507.011 65.8297 507.099 64.7823 507.208C64.2906 507.249 63.8663 507.225 63.3449 507.323C63.2302 507.344 63.0703 507.386 62.9448 507.415C62.9404 507.416 62.9363 507.417 62.932 507.418C62.9251 507.42 62.9161 507.423 62.9096 507.424C62.0265 507.636 61.4592 508.442 61.6419 509.236C61.8245 510.031 62.6871 510.514 63.5754 510.323C63.5818 510.322 63.5911 510.322 63.5978 510.32C63.6079 510.318 63.6167 510.313 63.6266 510.311C63.7505 510.284 63.9057 510.254 64.014 510.225C64.5265 510.089 64.8977 509.888 65.3585 509.713C66.3498 509.36 67.1709 509.065 67.9708 508.95C68.3048 508.924 68.6568 509.155 68.8319 509.252L69.485 509.141C70.9878 513.768 74.1372 517.507 78.1252 519.853L77.8531 520.502C77.9512 520.754 78.0593 521.094 77.9863 521.343C77.6955 522.092 77.1974 522.882 76.6302 523.763C76.3556 524.17 76.0745 524.486 75.8267 524.952C75.7674 525.064 75.6919 525.235 75.6346 525.353C75.2496 526.171 75.532 527.113 76.2717 527.467C77.016 527.822 77.9399 527.447 78.3397 526.627C78.3403 526.626 78.3423 526.625 78.3429 526.624C78.3433 526.623 78.3425 526.622 78.3429 526.621C78.3998 526.505 78.4805 526.352 78.5286 526.243C78.7408 525.76 78.8115 525.346 78.9607 524.879C79.3571 523.89 79.5749 522.853 80.1206 522.206C80.27 522.029 80.5137 521.961 80.7662 521.894L81.1056 521.284C84.5822 522.609 88.4738 522.965 92.3613 522.088C93.2481 521.888 94.1042 521.629 94.9319 521.319C95.0272 521.487 95.2045 521.81 95.252 521.891C95.5087 521.974 95.7888 522.017 96.0171 522.352C96.4254 523.045 96.7046 523.864 97.0447 524.854C97.194 525.321 97.2678 525.734 97.4801 526.217C97.5285 526.327 97.6087 526.482 97.6658 526.599C98.0647 527.421 98.9916 527.798 99.737 527.441C100.477 527.087 100.759 526.145 100.374 525.327C100.317 525.209 100.238 525.038 100.179 524.927C99.9309 524.461 99.6499 524.148 99.3752 523.741C98.808 522.86 98.3375 522.128 98.0467 521.379C97.9251 520.993 98.0672 520.753 98.162 520.502C98.1052 520.437 97.9838 520.073 97.9123 519.901C102.057 517.471 105.114 513.592 106.549 509.112C106.743 509.143 107.08 509.202 107.19 509.224C107.415 509.076 107.622 508.884 108.028 508.915C108.828 509.03 109.649 509.325 110.641 509.678C111.101 509.853 111.472 510.057 111.985 510.193C112.093 510.222 112.249 510.249 112.372 510.276C112.382 510.278 112.391 510.283 112.401 510.285C112.408 510.287 112.417 510.287 112.424 510.289C113.312 510.478 114.175 509.996 114.357 509.201C114.54 508.407 113.973 507.601 113.089 507.389C112.961 507.36 112.779 507.311 112.654 507.288C112.133 507.19 111.708 507.214 111.217 507.173C110.169 507.064 109.302 506.976 108.531 506.735C108.217 506.614 107.993 506.242 107.884 506.089L107.279 505.915C107.593 503.661 107.508 501.316 106.965 498.969C106.418 496.6 105.449 494.434 104.158 492.526C104.313 492.385 104.606 492.128 104.689 492.052C104.714 491.785 104.693 491.505 104.971 491.21C105.56 490.66 106.303 490.205 107.199 489.655C107.624 489.407 108.018 489.247 108.444 488.934C108.541 488.863 108.673 488.751 108.774 488.67C109.493 488.1 109.658 487.119 109.142 486.476C108.626 485.834 107.626 485.774 106.908 486.343C106.806 486.423 106.667 486.528 106.575 486.607C106.173 486.95 105.924 487.29 105.586 487.646C104.847 488.391 104.236 489.013 103.566 489.461C103.275 489.629 102.85 489.571 102.657 489.56L102.087 489.963C98.8374 486.58 94.4134 484.417 89.6498 483.997C89.6365 483.799 89.619 483.44 89.6146 483.333C89.4196 483.147 89.184 482.989 89.1248 482.589C89.0596 481.789 89.1684 480.928 89.2944 479.89C89.364 479.405 89.4796 479.002 89.4993 478.475C89.5038 478.356 89.4966 478.182 89.4961 478.053C89.496 477.14 88.8253 476.4 87.9979 476.4ZM86.122 487.939L85.677 495.742L85.645 495.758C85.6151 496.456 85.0365 497.014 84.3261 497.014C84.0351 497.014 83.7664 496.921 83.5482 496.763L83.5354 496.769L77.0912 492.233C79.0717 490.299 81.605 488.87 84.5245 488.212C85.0579 488.092 85.5909 488.003 86.122 487.939ZM89.8771 487.939C93.2856 488.355 96.4379 489.887 98.8534 492.236L92.4509 496.744L92.4285 496.734C91.8602 497.146 91.0595 497.044 90.6166 496.493C90.4351 496.267 90.3399 496.001 90.3285 495.733L90.3221 495.73L89.8771 487.939ZM74.7543 495.148L80.6382 500.374L80.6318 500.406C81.1629 500.864 81.2412 501.66 80.7983 502.211C80.6168 502.437 80.374 502.589 80.1132 502.659L80.1068 502.685L72.5646 504.846C72.1807 501.361 73.008 497.973 74.7543 495.148ZM101.2 495.151C102.074 496.558 102.736 498.13 103.13 499.834C103.52 501.517 103.617 503.197 103.457 504.821L95.8763 502.653L95.8699 502.621C95.191 502.437 94.7739 501.751 94.9319 501.064C94.9966 500.782 95.1472 500.544 95.3513 500.368L95.3481 500.352L101.2 495.151ZM86.791 500.778H89.2016L90.6998 502.637L90.162 504.958L87.9979 505.991L85.8275 504.955L85.2897 502.634L86.791 500.778ZM94.5189 507.142C94.6214 507.136 94.7233 507.146 94.823 507.164L94.8358 507.148L102.637 508.458C101.496 511.643 99.3108 514.402 96.3917 516.249L93.3633 508.985L93.3729 508.972C93.0947 508.331 93.3731 507.578 94.0131 507.272C94.177 507.193 94.3482 507.15 94.5189 507.142ZM81.4161 507.173C82.0115 507.182 82.5455 507.592 82.6838 508.194C82.7486 508.475 82.7171 508.755 82.6102 509.001L82.6326 509.03L79.6362 516.22C76.8347 514.435 74.6034 511.762 73.4097 508.483L81.144 507.18L81.1568 507.196C81.2433 507.18 81.3311 507.172 81.4161 507.173ZM87.9499 510.323C88.1573 510.316 88.3677 510.358 88.5678 510.454C88.83 510.579 89.0325 510.777 89.16 511.013H89.1888L93.0015 517.854C92.5067 518.019 91.998 518.159 91.4777 518.277C88.5618 518.934 85.6551 518.735 83.0232 517.844L86.8263 511.016H86.8327C87.0609 510.593 87.4937 510.34 87.9499 510.323Z" fill="white" stroke="white" stroke-width="0.219373"/>
<path d="M79.0187 305.354L73.5163 290.37C73.4215 290.14 73.3627 289.897 73.342 289.649C73.3542 289.31 73.5008 288.988 73.7509 288.752C74.0009 288.516 74.3349 288.385 74.6825 288.385C74.9989 288.394 75.303 288.507 75.5461 288.705C75.7891 288.904 75.957 289.176 76.0229 289.479L80.634 302.419L85.2316 289.44C85.2986 289.14 85.4678 288.872 85.7114 288.679C85.955 288.486 86.2585 288.38 86.572 288.378H86.7128C87.0342 288.376 87.3469 288.48 87.6009 288.672C87.8549 288.865 88.0354 289.135 88.1135 289.44L92.6643 302.419L97.2954 289.44C97.3538 289.145 97.5142 288.878 97.7497 288.685C97.9852 288.492 98.2815 288.383 98.589 288.378C98.7599 288.372 98.9305 288.399 99.0907 288.458C99.2509 288.517 99.3975 288.606 99.5222 288.721C99.6469 288.835 99.7471 288.973 99.817 289.125C99.8869 289.278 99.9251 289.443 99.9294 289.61C99.9076 289.857 99.8489 290.1 99.7551 290.331L94.2125 305.347C94.1319 305.676 93.9448 305.97 93.6791 306.186C93.4133 306.402 93.0832 306.529 92.738 306.546H92.6308C92.2812 306.543 91.9434 306.422 91.6747 306.204C91.4059 305.985 91.2228 305.683 91.1563 305.347L86.6659 292.591L82.0749 305.354C82.0084 305.689 81.8253 305.992 81.5565 306.21C81.2878 306.429 80.95 306.55 80.6004 306.553H80.5267C80.176 306.541 79.8388 306.418 79.5665 306.201C79.2943 305.985 79.1019 305.687 79.0187 305.354Z" fill="black"/>
<path d="M119.151 289.689C119.151 289.341 119.292 289.008 119.543 288.762C119.795 288.516 120.136 288.378 120.491 288.378C120.847 288.378 121.188 288.516 121.439 288.762C121.691 289.008 121.832 289.341 121.832 289.689V292.729C122.367 291.51 123.237 290.46 124.343 289.694C125.45 288.928 126.752 288.475 128.105 288.385C128.282 288.379 128.459 288.409 128.624 288.473C128.79 288.537 128.94 288.634 129.065 288.756C129.191 288.879 129.289 289.026 129.355 289.187C129.42 289.349 129.451 289.522 129.445 289.695C129.447 290.02 129.325 290.334 129.104 290.576C128.882 290.818 128.576 290.971 128.246 291.005C124.734 291.418 121.852 293.993 121.852 299.11V305.131C121.852 305.478 121.711 305.812 121.459 306.057C121.208 306.303 120.867 306.441 120.511 306.441C120.156 306.441 119.815 306.303 119.564 306.057C119.312 305.812 119.171 305.478 119.171 305.131V289.689H119.151Z" fill="black"/>
<path d="M138.125 306.69C133.232 306.69 129.244 302.982 129.244 297.518V297.446C129.244 292.381 132.864 288.273 137.783 288.273C143.044 288.273 146.047 292.519 146.047 297.177C146.06 297.345 146.037 297.513 145.98 297.672C145.923 297.83 145.833 297.976 145.716 298.099C145.599 298.222 145.457 298.32 145.3 298.387C145.142 298.454 144.972 298.488 144.8 298.487H131.932C132.307 302.294 135.022 304.43 138.198 304.43C140.116 304.442 141.961 303.709 143.326 302.392C143.489 302.243 143.693 302.143 143.914 302.105C144.134 302.068 144.361 302.094 144.566 302.181C144.771 302.269 144.946 302.412 145.068 302.595C145.191 302.778 145.256 302.992 145.256 303.211C145.254 303.373 145.215 303.533 145.143 303.679C145.072 303.825 144.968 303.953 144.84 304.056C143.969 304.922 142.923 305.601 141.77 306.052C140.616 306.503 139.38 306.716 138.138 306.677L138.125 306.69ZM143.393 296.522C143.118 293.325 141.255 290.54 137.709 290.54C134.613 290.54 132.267 293.089 131.932 296.522H143.393Z" fill="black"/>
<path d="M99.9696 301.186V301.108C99.9696 297.38 103.12 295.388 107.711 295.388C109.595 295.37 111.472 295.624 113.28 296.142V295.539C113.28 292.355 111.269 290.71 107.885 290.71C106.434 290.649 104.989 290.925 103.669 291.516C103.516 291.58 103.353 291.616 103.187 291.621C102.876 291.619 102.579 291.501 102.357 291.289C102.134 291.078 102.004 290.791 101.994 290.487C101.981 290.249 102.048 290.014 102.184 289.816C102.321 289.619 102.52 289.47 102.751 289.393C104.452 288.652 106.306 288.306 108.166 288.384C110.72 288.384 112.684 289.04 114.011 290.35C115.237 291.549 115.867 293.259 115.867 295.519V305.275C115.875 305.446 115.848 305.616 115.786 305.776C115.724 305.936 115.629 306.082 115.507 306.205C115.385 306.328 115.239 306.425 115.077 306.49C114.916 306.556 114.742 306.588 114.567 306.585C114.398 306.591 114.23 306.564 114.073 306.505C113.916 306.445 113.773 306.355 113.652 306.24C113.532 306.125 113.437 305.987 113.373 305.834C113.309 305.682 113.277 305.518 113.28 305.353V303.656C112.515 304.636 111.522 305.424 110.383 305.954C109.244 306.484 107.993 306.74 106.732 306.703C103.381 306.703 99.9629 304.823 99.9629 301.186H99.9696ZM113.32 299.797V298.107C111.59 297.61 109.796 297.356 107.992 297.354C104.601 297.354 102.704 298.795 102.704 301.016V301.108C102.704 303.335 104.802 304.633 107.255 304.633C110.606 304.633 113.287 302.667 113.287 299.843" fill="black"/>
<path d="M29.9524 289.492C29.815 289.186 29.6163 288.911 29.368 288.682C29.1198 288.452 28.8271 288.274 28.5071 288.157C28.1872 288.041 27.8465 287.988 27.5054 288.002C27.1642 288.017 26.8294 288.098 26.5209 288.241C26.2062 288.372 25.9224 288.565 25.687 288.808C25.4516 289.051 25.2695 289.339 25.1521 289.653C25.0347 289.967 24.9844 290.302 25.0042 290.636C25.0241 290.97 25.1137 291.296 25.2676 291.595L31.0381 303.807C31.9429 305.721 32.8946 306.723 34.6841 306.723C36.5942 306.723 37.4252 305.629 38.33 303.807L43.37 293.023C43.4288 292.886 43.5304 292.77 43.6603 292.693C43.7903 292.615 43.942 292.579 44.0938 292.591C44.1992 292.592 44.3033 292.613 44.4001 292.653C44.497 292.694 44.5847 292.753 44.6582 292.826C44.7318 292.9 44.7896 292.987 44.8285 293.083C44.8674 293.178 44.8865 293.281 44.8847 293.384V303.794C44.8847 305.4 45.7962 306.723 47.5656 306.723C49.3349 306.723 50.2464 305.413 50.2464 303.794V295.277C50.2325 294.911 50.2974 294.545 50.437 294.205C50.5767 293.864 50.7879 293.556 51.057 293.3C51.3262 293.045 51.6472 292.847 51.9994 292.72C52.3516 292.594 52.727 292.541 53.1015 292.565C53.4667 292.549 53.8312 292.608 54.1718 292.737C54.5123 292.867 54.8213 293.065 55.0788 293.319C55.3363 293.573 55.5367 293.876 55.6671 294.21C55.7975 294.544 55.855 294.901 55.836 295.257V303.775C55.836 305.38 56.7542 306.703 58.5168 306.703C60.2795 306.703 61.1977 305.393 61.1977 303.775V295.257C61.1838 294.891 61.2486 294.527 61.3878 294.187C61.5271 293.847 61.7377 293.539 62.0061 293.283C62.2744 293.028 62.5947 292.83 62.946 292.703C63.2974 292.576 63.6722 292.522 64.0461 292.545C64.4136 292.528 64.7807 292.586 65.1235 292.717C65.4663 292.848 65.7771 293.048 66.0357 293.303C66.2942 293.559 66.4948 293.866 66.6243 294.202C66.7538 294.539 66.8093 294.898 66.7873 295.257V303.775C66.7873 305.38 67.6987 306.703 69.4681 306.703C71.2375 306.703 72.149 305.393 72.149 303.775V294.078C72.1892 290.507 69.2402 288.005 65.7149 288.005C63.5552 288.042 61.4951 288.9 59.9712 290.396C58.7983 288.902 57.1764 288.005 54.4352 288.005C51.5399 288.005 49.0065 290.39 49.0065 290.39C48.4242 289.675 47.691 289.093 46.857 288.681C46.023 288.269 45.1079 288.039 44.1743 288.005C41.6074 288.005 39.5699 289.105 38.33 291.883L34.6573 300.342L29.9524 289.492Z" fill="black"/>
<path d="M146.261 290.553C146.261 289.972 146.497 289.414 146.918 289.003C147.338 288.592 147.908 288.362 148.503 288.362C149.097 288.362 149.668 288.592 150.088 289.003C150.509 289.414 150.745 289.972 150.745 290.553C150.746 290.842 150.688 291.129 150.576 291.396C150.464 291.663 150.298 291.907 150.09 292.112C149.881 292.317 149.634 292.48 149.361 292.591C149.088 292.702 148.795 292.76 148.5 292.761C148.205 292.762 147.914 292.706 147.642 292.596C147.37 292.487 147.123 292.325 146.915 292.122C146.707 291.919 146.542 291.677 146.43 291.411C146.317 291.145 146.26 290.86 146.261 290.573V290.553ZM150.282 290.573C150.286 290.339 150.242 290.106 150.152 289.889C150.063 289.671 149.93 289.474 149.761 289.307C149.593 289.141 149.392 289.009 149.171 288.919C148.95 288.829 148.712 288.783 148.473 288.784C148.233 288.785 147.995 288.832 147.774 288.923C147.553 289.014 147.352 289.146 147.183 289.313C147.014 289.48 146.881 289.678 146.791 289.895C146.7 290.112 146.655 290.345 146.656 290.579C146.641 290.821 146.677 291.063 146.761 291.291C146.846 291.519 146.977 291.727 147.147 291.904C147.316 292.08 147.521 292.221 147.749 292.317C147.976 292.413 148.222 292.463 148.469 292.463C148.717 292.463 148.962 292.413 149.19 292.317C149.417 292.221 149.622 292.08 149.792 291.904C149.962 291.727 150.093 291.519 150.177 291.291C150.262 291.063 150.297 290.821 150.282 290.579" fill="black"/>
<path d="M147.655 289.669C147.655 289.606 147.681 289.546 147.726 289.502C147.771 289.458 147.833 289.433 147.897 289.433H148.647C148.763 289.424 148.879 289.439 148.989 289.476C149.098 289.514 149.199 289.572 149.284 289.649C149.347 289.713 149.397 289.789 149.429 289.873C149.461 289.956 149.476 290.045 149.472 290.134C149.481 290.275 149.443 290.414 149.365 290.532C149.286 290.65 149.171 290.74 149.036 290.789L149.364 291.182C149.409 291.231 149.435 291.294 149.438 291.359C149.438 291.388 149.432 291.417 149.421 291.444C149.409 291.47 149.392 291.494 149.371 291.515C149.35 291.535 149.324 291.55 149.297 291.561C149.269 291.571 149.24 291.576 149.21 291.575C149.164 291.575 149.119 291.564 149.079 291.544C149.038 291.523 149.003 291.494 148.976 291.458L148.513 290.881H148.131V291.34C148.132 291.37 148.127 291.401 148.115 291.429C148.104 291.458 148.087 291.484 148.065 291.506C148.043 291.528 148.017 291.545 147.988 291.557C147.959 291.569 147.928 291.575 147.897 291.575C147.865 291.575 147.833 291.569 147.804 291.558C147.775 291.546 147.748 291.528 147.726 291.506C147.704 291.484 147.686 291.458 147.674 291.43C147.662 291.401 147.655 291.371 147.655 291.34V289.669ZM148.62 290.468C148.855 290.468 148.982 290.35 148.982 290.167C148.982 289.97 148.848 289.865 148.614 289.865H148.138V290.475H148.62V290.468Z" fill="black"/>
<path fill-rule="evenodd" clip-rule="evenodd" d="M274.571 520.061L278.721 519.354C280.747 521.589 279.954 522.469 281.692 523.74C284.584 525.855 288.205 524.909 289.437 523.187C290.895 521.148 290.795 519.208 290.341 517.373L295.049 516.571L295.625 521.39L322.422 516.544L320.828 497.173L319.913 497.339L317.057 466.256L268.673 471.322L274.571 520.061Z" fill="white"/>
<path fill-rule="evenodd" clip-rule="evenodd" d="M315.539 508.423L310.416 505.034L306.142 512.195L301.172 510.737L296.794 517.437L297.018 519.546L320.815 515.148L319.433 500.235L315.539 508.423ZM293.347 501.994L297.165 501.467C297.783 501.746 298.213 501.851 298.953 502.041C300.106 502.342 301.441 502.632 303.42 501.632C303.88 501.403 304.838 500.523 305.226 500.022L320.868 497.176L322.464 516.548L295.666 521.392L293.347 501.994ZM322.404 495.013L320.86 495.308L317.894 464.565L267.35 470.444L273.577 521.131L279.494 520.269C279.022 519.593 278.286 518.773 277.029 517.726C275.287 516.275 275.903 513.808 276.931 512.25C278.29 509.619 285.298 506.274 284.901 502.069C284.758 500.54 284.516 498.549 283.101 497.185C283.048 497.75 283.143 498.296 283.143 498.296C283.143 498.296 282.562 497.552 282.273 496.538C281.986 496.149 281.759 496.025 281.454 495.506C281.236 496.106 281.264 496.803 281.264 496.803C281.264 496.803 280.789 495.677 280.711 494.726C280.43 495.151 280.359 495.959 280.359 495.959C280.359 495.959 279.741 494.184 279.882 493.227C279.601 492.395 278.765 490.743 279.001 486.988C280.544 488.072 283.94 487.815 285.263 485.859C285.702 485.21 286.003 483.442 285.043 479.957C284.427 477.722 282.901 474.395 282.305 473.133L282.235 473.184C282.548 474.201 283.194 476.333 283.443 477.366C284.193 480.502 284.395 481.594 284.042 483.04C283.743 484.296 283.024 485.118 281.2 486.037C279.377 486.959 276.958 484.715 276.805 484.591C275.034 483.176 273.664 480.867 273.511 479.745C273.352 478.518 274.216 477.78 274.652 476.776C274.028 476.954 273.333 477.272 273.333 477.272C273.333 477.272 274.162 476.41 275.186 475.666C275.611 475.384 275.859 475.205 276.305 474.833C275.658 474.822 275.133 474.841 275.133 474.841C275.133 474.841 276.211 474.257 277.329 473.831C276.511 473.795 275.728 473.825 275.728 473.825C275.728 473.825 278.134 472.745 280.034 471.953C281.34 471.416 282.617 471.575 283.334 472.615C284.275 473.977 285.264 474.718 287.36 475.176C288.647 474.604 289.037 474.31 290.654 473.868C292.077 472.298 293.195 472.096 293.195 472.096C293.195 472.096 292.641 472.606 292.492 473.407C293.299 472.769 294.183 472.236 294.183 472.236C294.183 472.236 293.841 472.66 293.521 473.334L293.595 473.445C294.537 472.879 295.644 472.432 295.644 472.432C295.644 472.432 295.328 472.833 294.957 473.352C295.667 473.346 297.107 473.383 297.665 473.446C300.964 473.519 301.648 469.912 302.914 469.459C304.499 468.891 305.207 468.548 307.908 471.209C310.226 473.494 312.036 477.583 311.137 478.499C310.383 479.259 308.897 478.202 307.249 476.142C306.378 475.051 305.72 473.761 305.411 472.121C305.151 470.737 304.138 469.935 304.138 469.935C304.138 469.935 304.725 471.249 304.725 472.407C304.725 473.04 304.804 475.405 305.816 476.732C305.715 476.926 305.669 477.692 305.558 477.839C304.381 476.412 301.855 475.393 301.443 475.091C302.837 476.237 306.042 478.87 307.272 481.393C308.437 483.78 307.751 485.967 308.34 486.533C308.507 486.696 310.844 489.616 311.294 491.083C312.079 493.64 311.341 496.327 310.315 497.994L307.449 498.442C307.03 498.326 306.747 498.267 306.37 498.049C306.577 497.681 306.99 496.764 306.994 496.574L306.832 496.289C305.94 497.557 304.446 498.787 303.204 499.495C301.58 500.418 299.707 500.276 298.488 499.897C295.029 498.827 291.758 496.482 290.969 495.866C290.969 495.866 290.945 496.358 291.093 496.469C291.964 497.456 293.963 499.241 295.896 500.485L291.777 500.939L293.724 516.143C292.861 516.267 292.726 516.328 291.782 516.463C290.949 513.512 289.356 511.585 287.615 510.464C286.08 509.473 283.963 509.25 281.934 509.654L281.804 509.805C283.213 509.658 284.878 509.863 286.586 510.949C288.264 512.013 289.615 514.761 290.114 516.415C290.751 518.531 291.192 520.793 289.476 523.19C288.256 524.895 284.694 525.836 281.816 523.798C282.585 525.038 283.623 526.052 285.022 526.243C287.1 526.526 289.071 526.164 290.427 524.766C291.585 523.572 292.199 521.073 292.037 518.442L293.871 518.176L294.532 522.898L324.878 519.232L322.404 495.013ZM303.942 482.19C303.857 482.384 303.724 482.511 303.923 483.142L303.935 483.178L303.967 483.259L304.051 483.449C304.411 484.188 304.806 484.884 305.467 485.24C305.638 485.211 305.816 485.191 305.999 485.182C306.621 485.155 307.012 485.253 307.261 485.388C307.283 485.264 307.288 485.082 307.275 484.814C307.227 483.879 307.46 482.288 305.666 481.45C304.99 481.136 304.041 481.232 303.724 481.625C303.782 481.633 303.833 481.645 303.874 481.659C304.352 481.826 304.028 481.992 303.942 482.19ZM308.967 490.919C308.732 490.789 307.633 490.841 306.86 490.934C305.389 491.108 303.8 491.619 303.452 491.892C302.819 492.383 303.106 493.238 303.574 493.59C304.885 494.572 306.034 495.23 307.247 495.071C307.993 494.973 308.649 493.79 309.115 492.716C309.433 491.976 309.433 491.178 308.967 490.919ZM295.941 483.348C296.356 482.953 293.875 482.434 291.949 483.75C290.529 484.722 290.483 486.805 291.844 487.986C291.98 488.102 292.092 488.186 292.196 488.254C292.593 488.065 293.046 487.877 293.566 487.707C294.445 487.421 295.176 487.273 295.778 487.194C296.065 486.872 296.4 486.304 296.317 485.276C296.202 483.882 295.149 484.104 295.941 483.348Z" fill="#7749A3"/>
<path fill-rule="evenodd" clip-rule="evenodd" d="M262.928 539.86H258V528.517H262.928C266.478 528.517 268.255 530.305 268.255 533.879C268.255 537.865 266.478 539.86 262.928 539.86ZM260.108 538.034H262.61C264.969 538.034 266.146 536.649 266.146 533.877C266.146 531.517 264.968 530.337 262.61 530.337H260.108V538.034ZM270.463 539.86H268.3L273.124 528.517H275.39L280.321 539.861H278.053L276.622 536.767H272.982L273.705 534.944H276.068L274.207 530.682L270.463 539.86ZM279.128 528.517H287.755V530.341H284.495V539.86H282.389V530.341H279.128V528.517ZM288.837 539.86H286.674L291.501 528.516H293.766L298.695 539.86H296.429L294.998 536.766H291.357L292.08 534.943H294.442L292.581 530.681L288.837 539.86ZM305.021 539.86H300.093V528.517H305.021C308.573 528.517 310.348 530.305 310.348 533.879C310.35 537.865 308.574 539.86 305.021 539.86ZM302.2 538.034H304.705C307.061 538.034 308.243 536.649 308.243 533.877C308.243 531.517 307.062 530.337 304.705 530.337H302.2V538.034ZM311.775 534.204C311.775 530.357 313.679 528.434 317.484 528.434C321.231 528.434 323.104 530.357 323.104 534.204C323.104 538.029 321.231 539.942 317.484 539.942C313.848 539.942 311.947 538.029 311.775 534.204ZM317.484 538.114C319.773 538.114 320.918 536.795 320.918 534.156C320.918 531.558 319.773 530.258 317.484 530.258C315.136 530.258 313.963 531.558 313.963 534.156C313.963 536.795 315.136 538.114 317.484 538.114ZM331.895 535.27V537.926C331.408 538.053 330.973 538.115 330.591 538.115C328.014 538.115 326.727 536.754 326.727 534.03C326.727 531.516 328.093 530.259 330.821 530.259C331.961 530.259 333.021 530.471 334 530.895V528.991C333.021 528.621 331.908 528.435 330.662 528.435C326.581 528.435 324.539 530.299 324.539 534.031C324.539 537.97 326.546 539.943 330.557 539.943C331.938 539.943 333.084 539.742 334 539.339V533.405H330.598L329.886 535.272H331.895V535.27Z" fill="#7749A3"/>
<path d="M438.52 502.2L433.432 504.816L434.224 507.624L437.992 505.872V519H441.328V502.2H438.52ZM451.019 519.336C455.483 519.336 457.955 515.616 457.955 510.6C457.955 505.56 455.483 501.864 451.019 501.864C446.555 501.864 444.059 505.56 444.059 510.6C444.059 515.616 446.555 519.336 451.019 519.336ZM451.019 516.336C448.547 516.336 447.347 514.056 447.347 510.6C447.347 507.144 448.547 504.864 451.019 504.864C453.491 504.864 454.667 507.144 454.667 510.6C454.667 514.056 453.491 516.336 451.019 516.336ZM466.605 519.336C471.069 519.336 473.541 515.616 473.541 510.6C473.541 505.56 471.069 501.864 466.605 501.864C462.141 501.864 459.645 505.56 459.645 510.6C459.645 515.616 462.141 519.336 466.605 519.336ZM466.605 516.336C464.133 516.336 462.933 514.056 462.933 510.6C462.933 507.144 464.133 504.864 466.605 504.864C469.077 504.864 470.253 507.144 470.253 510.6C470.253 514.056 469.077 516.336 466.605 516.336ZM482.191 519.336C486.655 519.336 489.127 515.616 489.127 510.6C489.127 505.56 486.655 501.864 482.191 501.864C477.727 501.864 475.231 505.56 475.231 510.6C475.231 515.616 477.727 519.336 482.191 519.336ZM482.191 516.336C479.719 516.336 478.519 514.056 478.519 510.6C478.519 507.144 479.719 504.864 482.191 504.864C484.663 504.864 485.839 507.144 485.839 510.6C485.839 514.056 484.663 516.336 482.191 516.336ZM501.929 509.328H497.945V505.32H495.425V509.328H491.417V511.848H495.425V515.832H497.945V511.848H501.929V509.328ZM525.346 506.52C523.402 506.52 522.034 507.336 521.242 508.344C520.498 507.192 519.298 506.52 517.594 506.52C515.986 506.52 514.786 507.264 513.994 508.296V506.856H510.826V519H513.994V512.904C513.994 510.768 514.906 509.472 516.61 509.472C518.242 509.472 518.89 510.648 518.89 512.448V519H522.082V512.808C522.082 510.744 522.946 509.472 524.65 509.472C526.306 509.472 526.978 510.624 526.978 512.448V519H530.146V511.776C530.146 508.392 528.25 506.52 525.346 506.52ZM538.898 519.336C542.642 519.336 545.378 516.552 545.378 512.928C545.378 509.28 542.642 506.52 538.898 506.52C535.154 506.52 532.394 509.28 532.394 512.928C532.394 516.552 535.154 519.336 538.898 519.336ZM538.898 516.456C536.858 516.456 535.49 514.944 535.49 512.928C535.49 510.912 536.858 509.4 538.898 509.4C540.914 509.4 542.306 510.912 542.306 512.928C542.306 514.944 540.914 516.456 538.898 516.456ZM550.955 508.656V506.856H547.787V519H550.955V513.72C550.955 510.456 552.371 509.256 554.963 509.664V506.688C553.067 506.424 551.675 507.24 550.955 508.656ZM562.197 519.336C565.389 519.336 567.357 517.464 568.053 515.88L565.197 515.04C564.717 515.952 563.781 516.648 562.245 516.648C560.037 516.648 558.933 515.448 558.717 513.888H568.149C568.221 513.504 568.221 513.144 568.221 512.76C568.221 509.28 565.941 506.52 561.957 506.52C558.141 506.52 555.597 509.304 555.597 512.928C555.597 516.768 558.309 519.336 562.197 519.336ZM558.717 511.896C558.885 510.504 560.085 509.208 561.933 509.208C563.829 509.208 564.981 510.408 565.125 511.896H558.717Z" fill="black"/>
</svg>
